<?xml version="1.0" encoding="utf-8" standalone="no"?>
<!DOCTYPE svg PUBLIC "-//W3C//DTD SVG 1.1//EN"
  "http://www.w3.org/Graphics/SVG/1.1/DTD/svg11.dtd">
<svg xmlns:xlink="http://www.w3.org/1999/xlink" width="460.8pt" height="345.6pt" viewBox="0 0 460.8 345.6" xmlns="http://www.w3.org/2000/svg" version="1.1">
 <metadata>
  <rdf:RDF xmlns:dc="http://purl.org/dc/elements/1.1/" xmlns:cc="http://creativecommons.org/ns#" xmlns:rdf="http://www.w3.org/1999/02/22-rdf-syntax-ns#">
   <cc:Work>
    <dc:type rdf:resource="http://purl.org/dc/dcmitype/StillImage"/>
    <dc:date>2023-12-20T13:36:32.020875</dc:date>
    <dc:format>image/svg+xml</dc:format>
    <dc:creator>
     <cc:Agent>
      <dc:title>Matplotlib v3.7.2, https://matplotlib.org/</dc:title>
     </cc:Agent>
    </dc:creator>
   </cc:Work>
  </rdf:RDF>
 </metadata>
 <defs>
  <style type="text/css">*{stroke-linejoin: round; stroke-linecap: butt}</style>
 </defs>
 <g id="figure_1">
  <g id="patch_1">
   <path d="M 0 345.6 
L 460.8 345.6 
L 460.8 0 
L 0 0 
z
" style="fill: #ffffff"/>
  </g>
  <g id="axes_1">
   <g id="patch_2">
    <path d="M 57.6 307.584 
L 414.72 307.584 
L 414.72 41.472 
L 57.6 41.472 
z
" style="fill: #ffffff"/>
   </g>
   <g id="matplotlib.axis_1">
    <g id="xtick_1">
     <g id="line2d_1">
      <defs>
       <path id="mae511e0193" d="M 0 0 
L 0 3.5 
" style="stroke: #000000; stroke-width: 0.8"/>
      </defs>
      <g>
       <use xlink:href="#mae511e0193" x="73.832727" y="307.584" style="stroke: #000000; stroke-width: 0.8"/>
      </g>
     </g>
     <g id="text_1">
      <!-- 0 -->
      <g transform="translate(70.651477 322.182437) scale(0.1 -0.1)">
       <defs>
        <path id="DejaVuSans-30" d="M 2034 4250 
Q 1547 4250 1301 3770 
Q 1056 3291 1056 2328 
Q 1056 1369 1301 889 
Q 1547 409 2034 409 
Q 2525 409 2770 889 
Q 3016 1369 3016 2328 
Q 3016 3291 2770 3770 
Q 2525 4250 2034 4250 
z
M 2034 4750 
Q 2819 4750 3233 4129 
Q 3647 3509 3647 2328 
Q 3647 1150 3233 529 
Q 2819 -91 2034 -91 
Q 1250 -91 836 529 
Q 422 1150 422 2328 
Q 422 3509 836 4129 
Q 1250 4750 2034 4750 
z
" transform="scale(0.015625)"/>
       </defs>
       <use xlink:href="#DejaVuSans-30"/>
      </g>
     </g>
    </g>
    <g id="xtick_2">
     <g id="line2d_2">
      <g>
       <use xlink:href="#mae511e0193" x="137.241818" y="307.584" style="stroke: #000000; stroke-width: 0.8"/>
      </g>
     </g>
     <g id="text_2">
      <!-- 200 -->
      <g transform="translate(127.698068 322.182437) scale(0.1 -0.1)">
       <defs>
        <path id="DejaVuSans-32" d="M 1228 531 
L 3431 531 
L 3431 0 
L 469 0 
L 469 531 
Q 828 903 1448 1529 
Q 2069 2156 2228 2338 
Q 2531 2678 2651 2914 
Q 2772 3150 2772 3378 
Q 2772 3750 2511 3984 
Q 2250 4219 1831 4219 
Q 1534 4219 1204 4116 
Q 875 4013 500 3803 
L 500 4441 
Q 881 4594 1212 4672 
Q 1544 4750 1819 4750 
Q 2544 4750 2975 4387 
Q 3406 4025 3406 3419 
Q 3406 3131 3298 2873 
Q 3191 2616 2906 2266 
Q 2828 2175 2409 1742 
Q 1991 1309 1228 531 
z
" transform="scale(0.015625)"/>
       </defs>
       <use xlink:href="#DejaVuSans-32"/>
       <use xlink:href="#DejaVuSans-30" x="63.623047"/>
       <use xlink:href="#DejaVuSans-30" x="127.246094"/>
      </g>
     </g>
    </g>
    <g id="xtick_3">
     <g id="line2d_3">
      <g>
       <use xlink:href="#mae511e0193" x="200.650909" y="307.584" style="stroke: #000000; stroke-width: 0.8"/>
      </g>
     </g>
     <g id="text_3">
      <!-- 400 -->
      <g transform="translate(191.107159 322.182437) scale(0.1 -0.1)">
       <defs>
        <path id="DejaVuSans-34" d="M 2419 4116 
L 825 1625 
L 2419 1625 
L 2419 4116 
z
M 2253 4666 
L 3047 4666 
L 3047 1625 
L 3713 1625 
L 3713 1100 
L 3047 1100 
L 3047 0 
L 2419 0 
L 2419 1100 
L 313 1100 
L 313 1709 
L 2253 4666 
z
" transform="scale(0.015625)"/>
       </defs>
       <use xlink:href="#DejaVuSans-34"/>
       <use xlink:href="#DejaVuSans-30" x="63.623047"/>
       <use xlink:href="#DejaVuSans-30" x="127.246094"/>
      </g>
     </g>
    </g>
    <g id="xtick_4">
     <g id="line2d_4">
      <g>
       <use xlink:href="#mae511e0193" x="264.06" y="307.584" style="stroke: #000000; stroke-width: 0.8"/>
      </g>
     </g>
     <g id="text_4">
      <!-- 600 -->
      <g transform="translate(254.51625 322.182437) scale(0.1 -0.1)">
       <defs>
        <path id="DejaVuSans-36" d="M 2113 2584 
Q 1688 2584 1439 2293 
Q 1191 2003 1191 1497 
Q 1191 994 1439 701 
Q 1688 409 2113 409 
Q 2538 409 2786 701 
Q 3034 994 3034 1497 
Q 3034 2003 2786 2293 
Q 2538 2584 2113 2584 
z
M 3366 4563 
L 3366 3988 
Q 3128 4100 2886 4159 
Q 2644 4219 2406 4219 
Q 1781 4219 1451 3797 
Q 1122 3375 1075 2522 
Q 1259 2794 1537 2939 
Q 1816 3084 2150 3084 
Q 2853 3084 3261 2657 
Q 3669 2231 3669 1497 
Q 3669 778 3244 343 
Q 2819 -91 2113 -91 
Q 1303 -91 875 529 
Q 447 1150 447 2328 
Q 447 3434 972 4092 
Q 1497 4750 2381 4750 
Q 2619 4750 2861 4703 
Q 3103 4656 3366 4563 
z
" transform="scale(0.015625)"/>
       </defs>
       <use xlink:href="#DejaVuSans-36"/>
       <use xlink:href="#DejaVuSans-30" x="63.623047"/>
       <use xlink:href="#DejaVuSans-30" x="127.246094"/>
      </g>
     </g>
    </g>
    <g id="xtick_5">
     <g id="line2d_5">
      <g>
       <use xlink:href="#mae511e0193" x="327.469091" y="307.584" style="stroke: #000000; stroke-width: 0.8"/>
      </g>
     </g>
     <g id="text_5">
      <!-- 800 -->
      <g transform="translate(317.925341 322.182437) scale(0.1 -0.1)">
       <defs>
        <path id="DejaVuSans-38" d="M 2034 2216 
Q 1584 2216 1326 1975 
Q 1069 1734 1069 1313 
Q 1069 891 1326 650 
Q 1584 409 2034 409 
Q 2484 409 2743 651 
Q 3003 894 3003 1313 
Q 3003 1734 2745 1975 
Q 2488 2216 2034 2216 
z
M 1403 2484 
Q 997 2584 770 2862 
Q 544 3141 544 3541 
Q 544 4100 942 4425 
Q 1341 4750 2034 4750 
Q 2731 4750 3128 4425 
Q 3525 4100 3525 3541 
Q 3525 3141 3298 2862 
Q 3072 2584 2669 2484 
Q 3125 2378 3379 2068 
Q 3634 1759 3634 1313 
Q 3634 634 3220 271 
Q 2806 -91 2034 -91 
Q 1263 -91 848 271 
Q 434 634 434 1313 
Q 434 1759 690 2068 
Q 947 2378 1403 2484 
z
M 1172 3481 
Q 1172 3119 1398 2916 
Q 1625 2713 2034 2713 
Q 2441 2713 2670 2916 
Q 2900 3119 2900 3481 
Q 2900 3844 2670 4047 
Q 2441 4250 2034 4250 
Q 1625 4250 1398 4047 
Q 1172 3844 1172 3481 
z
" transform="scale(0.015625)"/>
       </defs>
       <use xlink:href="#DejaVuSans-38"/>
       <use xlink:href="#DejaVuSans-30" x="63.623047"/>
       <use xlink:href="#DejaVuSans-30" x="127.246094"/>
      </g>
     </g>
    </g>
    <g id="xtick_6">
     <g id="line2d_6">
      <g>
       <use xlink:href="#mae511e0193" x="390.878182" y="307.584" style="stroke: #000000; stroke-width: 0.8"/>
      </g>
     </g>
     <g id="text_6">
      <!-- 1000 -->
      <g transform="translate(378.153182 322.182437) scale(0.1 -0.1)">
       <defs>
        <path id="DejaVuSans-31" d="M 794 531 
L 1825 531 
L 1825 4091 
L 703 3866 
L 703 4441 
L 1819 4666 
L 2450 4666 
L 2450 531 
L 3481 531 
L 3481 0 
L 794 0 
L 794 531 
z
" transform="scale(0.015625)"/>
       </defs>
       <use xlink:href="#DejaVuSans-31"/>
       <use xlink:href="#DejaVuSans-30" x="63.623047"/>
       <use xlink:href="#DejaVuSans-30" x="127.246094"/>
       <use xlink:href="#DejaVuSans-30" x="190.869141"/>
      </g>
     </g>
    </g>
    <g id="text_7">
     <!-- Sequence Length -->
     <g transform="translate(192.659219 335.860562) scale(0.1 -0.1)">
      <defs>
       <path id="DejaVuSans-53" d="M 3425 4513 
L 3425 3897 
Q 3066 4069 2747 4153 
Q 2428 4238 2131 4238 
Q 1616 4238 1336 4038 
Q 1056 3838 1056 3469 
Q 1056 3159 1242 3001 
Q 1428 2844 1947 2747 
L 2328 2669 
Q 3034 2534 3370 2195 
Q 3706 1856 3706 1288 
Q 3706 609 3251 259 
Q 2797 -91 1919 -91 
Q 1588 -91 1214 -16 
Q 841 59 441 206 
L 441 856 
Q 825 641 1194 531 
Q 1563 422 1919 422 
Q 2459 422 2753 634 
Q 3047 847 3047 1241 
Q 3047 1584 2836 1778 
Q 2625 1972 2144 2069 
L 1759 2144 
Q 1053 2284 737 2584 
Q 422 2884 422 3419 
Q 422 4038 858 4394 
Q 1294 4750 2059 4750 
Q 2388 4750 2728 4690 
Q 3069 4631 3425 4513 
z
" transform="scale(0.015625)"/>
       <path id="DejaVuSans-65" d="M 3597 1894 
L 3597 1613 
L 953 1613 
Q 991 1019 1311 708 
Q 1631 397 2203 397 
Q 2534 397 2845 478 
Q 3156 559 3463 722 
L 3463 178 
Q 3153 47 2828 -22 
Q 2503 -91 2169 -91 
Q 1331 -91 842 396 
Q 353 884 353 1716 
Q 353 2575 817 3079 
Q 1281 3584 2069 3584 
Q 2775 3584 3186 3129 
Q 3597 2675 3597 1894 
z
M 3022 2063 
Q 3016 2534 2758 2815 
Q 2500 3097 2075 3097 
Q 1594 3097 1305 2825 
Q 1016 2553 972 2059 
L 3022 2063 
z
" transform="scale(0.015625)"/>
       <path id="DejaVuSans-71" d="M 947 1747 
Q 947 1113 1208 752 
Q 1469 391 1925 391 
Q 2381 391 2643 752 
Q 2906 1113 2906 1747 
Q 2906 2381 2643 2742 
Q 2381 3103 1925 3103 
Q 1469 3103 1208 2742 
Q 947 2381 947 1747 
z
M 2906 525 
Q 2725 213 2448 61 
Q 2172 -91 1784 -91 
Q 1150 -91 751 415 
Q 353 922 353 1747 
Q 353 2572 751 3078 
Q 1150 3584 1784 3584 
Q 2172 3584 2448 3432 
Q 2725 3281 2906 2969 
L 2906 3500 
L 3481 3500 
L 3481 -1331 
L 2906 -1331 
L 2906 525 
z
" transform="scale(0.015625)"/>
       <path id="DejaVuSans-75" d="M 544 1381 
L 544 3500 
L 1119 3500 
L 1119 1403 
Q 1119 906 1312 657 
Q 1506 409 1894 409 
Q 2359 409 2629 706 
Q 2900 1003 2900 1516 
L 2900 3500 
L 3475 3500 
L 3475 0 
L 2900 0 
L 2900 538 
Q 2691 219 2414 64 
Q 2138 -91 1772 -91 
Q 1169 -91 856 284 
Q 544 659 544 1381 
z
M 1991 3584 
L 1991 3584 
z
" transform="scale(0.015625)"/>
       <path id="DejaVuSans-6e" d="M 3513 2113 
L 3513 0 
L 2938 0 
L 2938 2094 
Q 2938 2591 2744 2837 
Q 2550 3084 2163 3084 
Q 1697 3084 1428 2787 
Q 1159 2491 1159 1978 
L 1159 0 
L 581 0 
L 581 3500 
L 1159 3500 
L 1159 2956 
Q 1366 3272 1645 3428 
Q 1925 3584 2291 3584 
Q 2894 3584 3203 3211 
Q 3513 2838 3513 2113 
z
" transform="scale(0.015625)"/>
       <path id="DejaVuSans-63" d="M 3122 3366 
L 3122 2828 
Q 2878 2963 2633 3030 
Q 2388 3097 2138 3097 
Q 1578 3097 1268 2742 
Q 959 2388 959 1747 
Q 959 1106 1268 751 
Q 1578 397 2138 397 
Q 2388 397 2633 464 
Q 2878 531 3122 666 
L 3122 134 
Q 2881 22 2623 -34 
Q 2366 -91 2075 -91 
Q 1284 -91 818 406 
Q 353 903 353 1747 
Q 353 2603 823 3093 
Q 1294 3584 2113 3584 
Q 2378 3584 2631 3529 
Q 2884 3475 3122 3366 
z
" transform="scale(0.015625)"/>
       <path id="DejaVuSans-20" transform="scale(0.015625)"/>
       <path id="DejaVuSans-4c" d="M 628 4666 
L 1259 4666 
L 1259 531 
L 3531 531 
L 3531 0 
L 628 0 
L 628 4666 
z
" transform="scale(0.015625)"/>
       <path id="DejaVuSans-67" d="M 2906 1791 
Q 2906 2416 2648 2759 
Q 2391 3103 1925 3103 
Q 1463 3103 1205 2759 
Q 947 2416 947 1791 
Q 947 1169 1205 825 
Q 1463 481 1925 481 
Q 2391 481 2648 825 
Q 2906 1169 2906 1791 
z
M 3481 434 
Q 3481 -459 3084 -895 
Q 2688 -1331 1869 -1331 
Q 1566 -1331 1297 -1286 
Q 1028 -1241 775 -1147 
L 775 -588 
Q 1028 -725 1275 -790 
Q 1522 -856 1778 -856 
Q 2344 -856 2625 -561 
Q 2906 -266 2906 331 
L 2906 616 
Q 2728 306 2450 153 
Q 2172 0 1784 0 
Q 1141 0 747 490 
Q 353 981 353 1791 
Q 353 2603 747 3093 
Q 1141 3584 1784 3584 
Q 2172 3584 2450 3431 
Q 2728 3278 2906 2969 
L 2906 3500 
L 3481 3500 
L 3481 434 
z
" transform="scale(0.015625)"/>
       <path id="DejaVuSans-74" d="M 1172 4494 
L 1172 3500 
L 2356 3500 
L 2356 3053 
L 1172 3053 
L 1172 1153 
Q 1172 725 1289 603 
Q 1406 481 1766 481 
L 2356 481 
L 2356 0 
L 1766 0 
Q 1100 0 847 248 
Q 594 497 594 1153 
L 594 3053 
L 172 3053 
L 172 3500 
L 594 3500 
L 594 4494 
L 1172 4494 
z
" transform="scale(0.015625)"/>
       <path id="DejaVuSans-68" d="M 3513 2113 
L 3513 0 
L 2938 0 
L 2938 2094 
Q 2938 2591 2744 2837 
Q 2550 3084 2163 3084 
Q 1697 3084 1428 2787 
Q 1159 2491 1159 1978 
L 1159 0 
L 581 0 
L 581 4863 
L 1159 4863 
L 1159 2956 
Q 1366 3272 1645 3428 
Q 1925 3584 2291 3584 
Q 2894 3584 3203 3211 
Q 3513 2838 3513 2113 
z
" transform="scale(0.015625)"/>
      </defs>
      <use xlink:href="#DejaVuSans-53"/>
      <use xlink:href="#DejaVuSans-65" x="63.476562"/>
      <use xlink:href="#DejaVuSans-71" x="125"/>
      <use xlink:href="#DejaVuSans-75" x="188.476562"/>
      <use xlink:href="#DejaVuSans-65" x="251.855469"/>
      <use xlink:href="#DejaVuSans-6e" x="313.378906"/>
      <use xlink:href="#DejaVuSans-63" x="376.757812"/>
      <use xlink:href="#DejaVuSans-65" x="431.738281"/>
      <use xlink:href="#DejaVuSans-20" x="493.261719"/>
      <use xlink:href="#DejaVuSans-4c" x="525.048828"/>
      <use xlink:href="#DejaVuSans-65" x="579.011719"/>
      <use xlink:href="#DejaVuSans-6e" x="640.535156"/>
      <use xlink:href="#DejaVuSans-67" x="703.914062"/>
      <use xlink:href="#DejaVuSans-74" x="767.390625"/>
      <use xlink:href="#DejaVuSans-68" x="806.599609"/>
     </g>
    </g>
   </g>
   <g id="matplotlib.axis_2">
    <g id="ytick_1">
     <g id="line2d_7">
      <defs>
       <path id="m117e268817" d="M 0 0 
L -3.5 0 
" style="stroke: #000000; stroke-width: 0.8"/>
      </defs>
      <g>
       <use xlink:href="#m117e268817" x="57.6" y="299.588339" style="stroke: #000000; stroke-width: 0.8"/>
      </g>
     </g>
     <g id="text_8">
      <!-- 0 -->
      <g transform="translate(44.2375 303.387558) scale(0.1 -0.1)">
       <use xlink:href="#DejaVuSans-30"/>
      </g>
     </g>
    </g>
    <g id="ytick_2">
     <g id="line2d_8">
      <g>
       <use xlink:href="#m117e268817" x="57.6" y="258.584949" style="stroke: #000000; stroke-width: 0.8"/>
      </g>
     </g>
     <g id="text_9">
      <!-- 200 -->
      <g transform="translate(31.5125 262.384168) scale(0.1 -0.1)">
       <use xlink:href="#DejaVuSans-32"/>
       <use xlink:href="#DejaVuSans-30" x="63.623047"/>
       <use xlink:href="#DejaVuSans-30" x="127.246094"/>
      </g>
     </g>
    </g>
    <g id="ytick_3">
     <g id="line2d_9">
      <g>
       <use xlink:href="#m117e268817" x="57.6" y="217.581559" style="stroke: #000000; stroke-width: 0.8"/>
      </g>
     </g>
     <g id="text_10">
      <!-- 400 -->
      <g transform="translate(31.5125 221.380778) scale(0.1 -0.1)">
       <use xlink:href="#DejaVuSans-34"/>
       <use xlink:href="#DejaVuSans-30" x="63.623047"/>
       <use xlink:href="#DejaVuSans-30" x="127.246094"/>
      </g>
     </g>
    </g>
    <g id="ytick_4">
     <g id="line2d_10">
      <g>
       <use xlink:href="#m117e268817" x="57.6" y="176.578169" style="stroke: #000000; stroke-width: 0.8"/>
      </g>
     </g>
     <g id="text_11">
      <!-- 600 -->
      <g transform="translate(31.5125 180.377388) scale(0.1 -0.1)">
       <use xlink:href="#DejaVuSans-36"/>
       <use xlink:href="#DejaVuSans-30" x="63.623047"/>
       <use xlink:href="#DejaVuSans-30" x="127.246094"/>
      </g>
     </g>
    </g>
    <g id="ytick_5">
     <g id="line2d_11">
      <g>
       <use xlink:href="#m117e268817" x="57.6" y="135.57478" style="stroke: #000000; stroke-width: 0.8"/>
      </g>
     </g>
     <g id="text_12">
      <!-- 800 -->
      <g transform="translate(31.5125 139.373998) scale(0.1 -0.1)">
       <use xlink:href="#DejaVuSans-38"/>
       <use xlink:href="#DejaVuSans-30" x="63.623047"/>
       <use xlink:href="#DejaVuSans-30" x="127.246094"/>
      </g>
     </g>
    </g>
    <g id="ytick_6">
     <g id="line2d_12">
      <g>
       <use xlink:href="#m117e268817" x="57.6" y="94.57139" style="stroke: #000000; stroke-width: 0.8"/>
      </g>
     </g>
     <g id="text_13">
      <!-- 1000 -->
      <g transform="translate(25.15 98.370609) scale(0.1 -0.1)">
       <use xlink:href="#DejaVuSans-31"/>
       <use xlink:href="#DejaVuSans-30" x="63.623047"/>
       <use xlink:href="#DejaVuSans-30" x="127.246094"/>
       <use xlink:href="#DejaVuSans-30" x="190.869141"/>
      </g>
     </g>
    </g>
    <g id="ytick_7">
     <g id="line2d_13">
      <g>
       <use xlink:href="#m117e268817" x="57.6" y="53.568" style="stroke: #000000; stroke-width: 0.8"/>
      </g>
     </g>
     <g id="text_14">
      <!-- 1200 -->
      <g transform="translate(25.15 57.367219) scale(0.1 -0.1)">
       <use xlink:href="#DejaVuSans-31"/>
       <use xlink:href="#DejaVuSans-32" x="63.623047"/>
       <use xlink:href="#DejaVuSans-30" x="127.246094"/>
       <use xlink:href="#DejaVuSans-30" x="190.869141"/>
      </g>
     </g>
    </g>
    <g id="text_15">
     <!-- Object Size (bytes) -->
     <g transform="translate(19.070312 221.931906) rotate(-90) scale(0.1 -0.1)">
      <defs>
       <path id="DejaVuSans-4f" d="M 2522 4238 
Q 1834 4238 1429 3725 
Q 1025 3213 1025 2328 
Q 1025 1447 1429 934 
Q 1834 422 2522 422 
Q 3209 422 3611 934 
Q 4013 1447 4013 2328 
Q 4013 3213 3611 3725 
Q 3209 4238 2522 4238 
z
M 2522 4750 
Q 3503 4750 4090 4092 
Q 4678 3434 4678 2328 
Q 4678 1225 4090 567 
Q 3503 -91 2522 -91 
Q 1538 -91 948 565 
Q 359 1222 359 2328 
Q 359 3434 948 4092 
Q 1538 4750 2522 4750 
z
" transform="scale(0.015625)"/>
       <path id="DejaVuSans-62" d="M 3116 1747 
Q 3116 2381 2855 2742 
Q 2594 3103 2138 3103 
Q 1681 3103 1420 2742 
Q 1159 2381 1159 1747 
Q 1159 1113 1420 752 
Q 1681 391 2138 391 
Q 2594 391 2855 752 
Q 3116 1113 3116 1747 
z
M 1159 2969 
Q 1341 3281 1617 3432 
Q 1894 3584 2278 3584 
Q 2916 3584 3314 3078 
Q 3713 2572 3713 1747 
Q 3713 922 3314 415 
Q 2916 -91 2278 -91 
Q 1894 -91 1617 61 
Q 1341 213 1159 525 
L 1159 0 
L 581 0 
L 581 4863 
L 1159 4863 
L 1159 2969 
z
" transform="scale(0.015625)"/>
       <path id="DejaVuSans-6a" d="M 603 3500 
L 1178 3500 
L 1178 -63 
Q 1178 -731 923 -1031 
Q 669 -1331 103 -1331 
L -116 -1331 
L -116 -844 
L 38 -844 
Q 366 -844 484 -692 
Q 603 -541 603 -63 
L 603 3500 
z
M 603 4863 
L 1178 4863 
L 1178 4134 
L 603 4134 
L 603 4863 
z
" transform="scale(0.015625)"/>
       <path id="DejaVuSans-69" d="M 603 3500 
L 1178 3500 
L 1178 0 
L 603 0 
L 603 3500 
z
M 603 4863 
L 1178 4863 
L 1178 4134 
L 603 4134 
L 603 4863 
z
" transform="scale(0.015625)"/>
       <path id="DejaVuSans-7a" d="M 353 3500 
L 3084 3500 
L 3084 2975 
L 922 459 
L 3084 459 
L 3084 0 
L 275 0 
L 275 525 
L 2438 3041 
L 353 3041 
L 353 3500 
z
" transform="scale(0.015625)"/>
       <path id="DejaVuSans-28" d="M 1984 4856 
Q 1566 4138 1362 3434 
Q 1159 2731 1159 2009 
Q 1159 1288 1364 580 
Q 1569 -128 1984 -844 
L 1484 -844 
Q 1016 -109 783 600 
Q 550 1309 550 2009 
Q 550 2706 781 3412 
Q 1013 4119 1484 4856 
L 1984 4856 
z
" transform="scale(0.015625)"/>
       <path id="DejaVuSans-79" d="M 2059 -325 
Q 1816 -950 1584 -1140 
Q 1353 -1331 966 -1331 
L 506 -1331 
L 506 -850 
L 844 -850 
Q 1081 -850 1212 -737 
Q 1344 -625 1503 -206 
L 1606 56 
L 191 3500 
L 800 3500 
L 1894 763 
L 2988 3500 
L 3597 3500 
L 2059 -325 
z
" transform="scale(0.015625)"/>
       <path id="DejaVuSans-73" d="M 2834 3397 
L 2834 2853 
Q 2591 2978 2328 3040 
Q 2066 3103 1784 3103 
Q 1356 3103 1142 2972 
Q 928 2841 928 2578 
Q 928 2378 1081 2264 
Q 1234 2150 1697 2047 
L 1894 2003 
Q 2506 1872 2764 1633 
Q 3022 1394 3022 966 
Q 3022 478 2636 193 
Q 2250 -91 1575 -91 
Q 1294 -91 989 -36 
Q 684 19 347 128 
L 347 722 
Q 666 556 975 473 
Q 1284 391 1588 391 
Q 1994 391 2212 530 
Q 2431 669 2431 922 
Q 2431 1156 2273 1281 
Q 2116 1406 1581 1522 
L 1381 1569 
Q 847 1681 609 1914 
Q 372 2147 372 2553 
Q 372 3047 722 3315 
Q 1072 3584 1716 3584 
Q 2034 3584 2315 3537 
Q 2597 3491 2834 3397 
z
" transform="scale(0.015625)"/>
       <path id="DejaVuSans-29" d="M 513 4856 
L 1013 4856 
Q 1481 4119 1714 3412 
Q 1947 2706 1947 2009 
Q 1947 1309 1714 600 
Q 1481 -109 1013 -844 
L 513 -844 
Q 928 -128 1133 580 
Q 1338 1288 1338 2009 
Q 1338 2731 1133 3434 
Q 928 4138 513 4856 
z
" transform="scale(0.015625)"/>
      </defs>
      <use xlink:href="#DejaVuSans-4f"/>
      <use xlink:href="#DejaVuSans-62" x="78.710938"/>
      <use xlink:href="#DejaVuSans-6a" x="142.1875"/>
      <use xlink:href="#DejaVuSans-65" x="169.970703"/>
      <use xlink:href="#DejaVuSans-63" x="231.494141"/>
      <use xlink:href="#DejaVuSans-74" x="286.474609"/>
      <use xlink:href="#DejaVuSans-20" x="325.683594"/>
      <use xlink:href="#DejaVuSans-53" x="357.470703"/>
      <use xlink:href="#DejaVuSans-69" x="420.947266"/>
      <use xlink:href="#DejaVuSans-7a" x="448.730469"/>
      <use xlink:href="#DejaVuSans-65" x="501.220703"/>
      <use xlink:href="#DejaVuSans-20" x="562.744141"/>
      <use xlink:href="#DejaVuSans-28" x="594.53125"/>
      <use xlink:href="#DejaVuSans-62" x="633.544922"/>
      <use xlink:href="#DejaVuSans-79" x="697.021484"/>
      <use xlink:href="#DejaVuSans-74" x="756.201172"/>
      <use xlink:href="#DejaVuSans-65" x="795.410156"/>
      <use xlink:href="#DejaVuSans-73" x="856.933594"/>
      <use xlink:href="#DejaVuSans-29" x="909.033203"/>
     </g>
    </g>
   </g>
   <g id="line2d_14">
    <path d="M 73.832727 293.027797 
L 83.978182 293.027797 
L 84.295227 289.747525 
L 94.123636 289.747525 
L 94.440682 288.10739 
L 104.269091 288.10739 
L 104.586136 286.467254 
L 114.414545 286.467254 
L 114.731591 284.827119 
L 124.56 284.827119 
L 124.877045 283.186983 
L 134.705455 283.186983 
L 135.0225 281.546847 
L 144.850909 281.546847 
L 145.167955 279.906712 
L 154.996364 279.906712 
L 155.313409 278.266576 
L 165.141818 278.266576 
L 165.458864 276.626441 
L 175.287273 276.626441 
L 175.604318 274.986305 
L 185.432727 274.986305 
L 185.749773 273.346169 
L 195.578182 273.346169 
L 195.895227 271.706034 
L 205.723636 271.706034 
L 206.040682 270.065898 
L 215.869091 270.065898 
L 216.186136 268.425763 
L 226.014545 268.425763 
L 226.331591 266.785627 
L 236.16 266.785627 
L 236.477045 265.145492 
L 246.305455 265.145492 
L 246.6225 263.505356 
L 256.450909 263.505356 
L 256.767955 261.86522 
L 266.596364 261.86522 
L 266.913409 260.225085 
L 276.741818 260.225085 
L 277.058864 258.584949 
L 286.887273 258.584949 
L 287.204318 256.944814 
L 297.032727 256.944814 
L 297.349773 255.304678 
L 307.178182 255.304678 
L 307.495227 253.664542 
L 317.323636 253.664542 
L 317.640682 252.024407 
L 327.469091 252.024407 
L 327.786136 250.384271 
L 337.614545 250.384271 
L 337.931591 248.744136 
L 347.76 248.744136 
L 348.077045 247.104 
L 357.905455 247.104 
L 358.2225 245.463864 
L 368.050909 245.463864 
L 368.367955 243.823729 
L 378.196364 243.823729 
L 378.513409 242.183593 
L 388.341818 242.183593 
L 388.658864 240.543458 
L 398.487273 240.543458 
L 398.487273 240.543458 
" clip-path="url(#p4c281df6cb)" style="fill: none; stroke: #1f77b4; stroke-width: 1.5; stroke-linecap: square"/>
   </g>
   <g id="line2d_15">
    <path d="M 73.832727 263.505356 
L 76.052045 263.505356 
L 76.369091 261.86522 
L 78.588409 261.86522 
L 78.905455 260.225085 
L 81.124773 260.225085 
L 81.441818 258.584949 
L 83.661136 258.584949 
L 83.978182 256.944814 
L 86.1975 256.944814 
L 86.514545 255.304678 
L 88.733864 255.304678 
L 89.050909 253.664542 
L 91.270227 253.664542 
L 91.587273 252.024407 
L 93.806591 252.024407 
L 94.123636 250.384271 
L 96.342955 250.384271 
L 96.66 248.744136 
L 98.879318 248.744136 
L 99.196364 247.104 
L 101.415682 247.104 
L 101.732727 245.463864 
L 103.952045 245.463864 
L 104.269091 243.823729 
L 106.488409 243.823729 
L 106.805455 242.183593 
L 109.024773 242.183593 
L 109.341818 240.543458 
L 111.561136 240.543458 
L 111.878182 238.903322 
L 114.0975 238.903322 
L 114.414545 237.263186 
L 116.633864 237.263186 
L 116.950909 235.623051 
L 119.170227 235.623051 
L 119.487273 233.982915 
L 121.706591 233.982915 
L 122.023636 232.34278 
L 124.242955 232.34278 
L 124.56 230.702644 
L 126.779318 230.702644 
L 127.096364 229.062508 
L 129.315682 229.062508 
L 129.632727 227.422373 
L 131.852045 227.422373 
L 132.169091 225.782237 
L 134.388409 225.782237 
L 134.705455 224.142102 
L 136.924773 224.142102 
L 137.241818 222.501966 
L 139.461136 222.501966 
L 139.778182 220.861831 
L 141.9975 220.861831 
L 142.314545 219.221695 
L 144.533864 219.221695 
L 144.850909 217.581559 
L 147.070227 217.581559 
L 147.387273 215.941424 
L 149.606591 215.941424 
L 149.923636 214.301288 
L 152.142955 214.301288 
L 152.46 212.661153 
L 154.679318 212.661153 
L 154.996364 211.021017 
L 157.215682 211.021017 
L 157.532727 209.380881 
L 159.752045 209.380881 
L 160.069091 207.740746 
L 162.288409 207.740746 
L 162.605455 206.10061 
L 164.824773 206.10061 
L 165.141818 204.460475 
L 167.361136 204.460475 
L 167.678182 202.820339 
L 169.8975 202.820339 
L 170.214545 201.180203 
L 172.433864 201.180203 
L 172.750909 199.540068 
L 174.970227 199.540068 
L 175.287273 197.899932 
L 177.506591 197.899932 
L 177.823636 196.259797 
L 180.042955 196.259797 
L 180.36 194.619661 
L 182.579318 194.619661 
L 182.896364 192.979525 
L 185.115682 192.979525 
L 185.432727 191.33939 
L 187.652045 191.33939 
L 187.969091 189.699254 
L 190.188409 189.699254 
L 190.505455 188.059119 
L 192.724773 188.059119 
L 193.041818 186.418983 
L 195.261136 186.418983 
L 195.578182 184.778847 
L 197.7975 184.778847 
L 198.114545 183.138712 
L 200.333864 183.138712 
L 200.650909 181.498576 
L 202.870227 181.498576 
L 203.187273 179.858441 
L 205.406591 179.858441 
L 205.723636 178.218305 
L 207.942955 178.218305 
L 208.26 176.578169 
L 210.479318 176.578169 
L 210.796364 174.938034 
L 213.015682 174.938034 
L 213.332727 173.297898 
L 215.552045 173.297898 
L 215.869091 171.657763 
L 218.088409 171.657763 
L 218.405455 170.017627 
L 220.624773 170.017627 
L 220.941818 168.377492 
L 223.161136 168.377492 
L 223.478182 166.737356 
L 225.6975 166.737356 
L 226.014545 165.09722 
L 228.233864 165.09722 
L 228.550909 163.457085 
L 230.770227 163.457085 
L 231.087273 161.816949 
L 233.306591 161.816949 
L 233.623636 160.176814 
L 235.842955 160.176814 
L 236.16 158.536678 
L 238.379318 158.536678 
L 238.696364 156.896542 
L 240.915682 156.896542 
L 241.232727 155.256407 
L 243.452045 155.256407 
L 243.769091 153.616271 
L 245.988409 153.616271 
L 246.305455 151.976136 
L 248.524773 151.976136 
L 248.841818 150.336 
L 251.061136 150.336 
L 251.378182 148.695864 
L 253.5975 148.695864 
L 253.914545 147.055729 
L 256.133864 147.055729 
L 256.450909 145.415593 
L 258.670227 145.415593 
L 258.987273 143.775458 
L 261.206591 143.775458 
L 261.523636 142.135322 
L 263.742955 142.135322 
L 264.06 140.495186 
L 266.279318 140.495186 
L 266.596364 138.855051 
L 268.815682 138.855051 
L 269.132727 137.214915 
L 271.352045 137.214915 
L 271.669091 135.57478 
L 273.888409 135.57478 
L 274.205455 133.934644 
L 276.424773 133.934644 
L 276.741818 132.294508 
L 278.961136 132.294508 
L 279.278182 130.654373 
L 281.4975 130.654373 
L 281.814545 129.014237 
L 284.033864 129.014237 
L 284.350909 127.374102 
L 286.570227 127.374102 
L 286.887273 125.733966 
L 289.106591 125.733966 
L 289.423636 124.093831 
L 291.642955 124.093831 
L 291.96 122.453695 
L 294.179318 122.453695 
L 294.496364 120.813559 
L 296.715682 120.813559 
L 297.032727 119.173424 
L 299.252045 119.173424 
L 299.569091 117.533288 
L 301.788409 117.533288 
L 302.105455 115.893153 
L 304.324773 115.893153 
L 304.641818 114.253017 
L 306.861136 114.253017 
L 307.178182 112.612881 
L 309.3975 112.612881 
L 309.714545 110.972746 
L 311.933864 110.972746 
L 312.250909 109.33261 
L 314.470227 109.33261 
L 314.787273 107.692475 
L 317.006591 107.692475 
L 317.323636 106.052339 
L 319.542955 106.052339 
L 319.86 104.412203 
L 322.079318 104.412203 
L 322.396364 102.772068 
L 324.615682 102.772068 
L 324.932727 101.131932 
L 327.152045 101.131932 
L 327.469091 99.491797 
L 329.688409 99.491797 
L 330.005455 97.851661 
L 332.224773 97.851661 
L 332.541818 96.211525 
L 334.761136 96.211525 
L 335.078182 94.57139 
L 337.2975 94.57139 
L 337.614545 92.931254 
L 339.833864 92.931254 
L 340.150909 91.291119 
L 342.370227 91.291119 
L 342.687273 89.650983 
L 344.906591 89.650983 
L 345.223636 88.010847 
L 347.442955 88.010847 
L 347.76 86.370712 
L 349.979318 86.370712 
L 350.296364 84.730576 
L 352.515682 84.730576 
L 352.832727 83.090441 
L 355.052045 83.090441 
L 355.369091 81.450305 
L 357.588409 81.450305 
L 357.905455 79.810169 
L 360.124773 79.810169 
L 360.441818 78.170034 
L 362.661136 78.170034 
L 362.978182 76.529898 
L 365.1975 76.529898 
L 365.514545 74.889763 
L 367.733864 74.889763 
L 368.050909 73.249627 
L 370.270227 73.249627 
L 370.587273 71.609492 
L 372.806591 71.609492 
L 373.123636 69.969356 
L 375.342955 69.969356 
L 375.66 68.32922 
L 377.879318 68.32922 
L 378.196364 66.689085 
L 380.415682 66.689085 
L 380.732727 65.048949 
L 382.952045 65.048949 
L 383.269091 63.408814 
L 385.488409 63.408814 
L 385.805455 61.768678 
L 388.024773 61.768678 
L 388.341818 60.128542 
L 390.561136 60.128542 
L 390.878182 58.488407 
L 393.0975 58.488407 
L 393.414545 56.848271 
L 395.633864 56.848271 
L 395.950909 55.208136 
L 398.170227 55.208136 
L 398.487273 53.568 
L 398.487273 53.568 
" clip-path="url(#p4c281df6cb)" style="fill: none; stroke: #ff7f0e; stroke-width: 1.5; stroke-linecap: square"/>
   </g>
   <g id="line2d_16">
    <path d="M 73.832727 288.10739 
L 75.100909 288.10739 
L 75.417955 286.467254 
L 77.637273 286.467254 
L 77.954318 284.827119 
L 80.173636 284.827119 
L 80.490682 283.186983 
L 82.71 283.186983 
L 83.027045 281.546847 
L 85.246364 281.546847 
L 85.563409 279.906712 
L 87.782727 279.906712 
L 88.099773 278.266576 
L 90.319091 278.266576 
L 90.636136 276.626441 
L 92.855455 276.626441 
L 93.1725 274.986305 
L 95.391818 274.986305 
L 95.708864 273.346169 
L 97.928182 273.346169 
L 98.245227 271.706034 
L 100.464545 271.706034 
L 100.781591 270.065898 
L 103.000909 270.065898 
L 103.317955 268.425763 
L 105.537273 268.425763 
L 105.854318 266.785627 
L 108.073636 266.785627 
L 108.390682 265.145492 
L 110.61 265.145492 
L 110.927045 263.505356 
L 113.146364 263.505356 
L 113.463409 261.86522 
L 115.682727 261.86522 
L 115.999773 260.225085 
L 118.219091 260.225085 
L 118.536136 258.584949 
L 120.755455 258.584949 
L 121.0725 256.944814 
L 123.291818 256.944814 
L 123.608864 255.304678 
L 125.828182 255.304678 
L 126.145227 253.664542 
L 128.364545 253.664542 
L 128.681591 252.024407 
L 130.900909 252.024407 
L 131.217955 250.384271 
L 133.437273 250.384271 
L 133.754318 248.744136 
L 135.973636 248.744136 
L 136.290682 247.104 
L 138.51 247.104 
L 138.827045 245.463864 
L 141.046364 245.463864 
L 141.363409 243.823729 
L 143.582727 243.823729 
L 143.899773 242.183593 
L 146.119091 242.183593 
L 146.436136 240.543458 
L 148.655455 240.543458 
L 148.9725 238.903322 
L 151.191818 238.903322 
L 151.508864 237.263186 
L 153.728182 237.263186 
L 154.045227 235.623051 
L 156.264545 235.623051 
L 156.581591 233.982915 
L 158.800909 233.982915 
L 159.117955 232.34278 
L 161.337273 232.34278 
L 161.654318 230.702644 
L 163.873636 230.702644 
L 164.190682 229.062508 
L 166.41 229.062508 
L 166.727045 227.422373 
L 168.946364 227.422373 
L 169.263409 225.782237 
L 171.482727 225.782237 
L 171.799773 224.142102 
L 174.019091 224.142102 
L 174.336136 222.501966 
L 176.555455 222.501966 
L 176.8725 220.861831 
L 179.091818 220.861831 
L 179.408864 219.221695 
L 181.628182 219.221695 
L 181.945227 217.581559 
L 184.164545 217.581559 
L 184.481591 215.941424 
L 186.700909 215.941424 
L 187.017955 214.301288 
L 189.237273 214.301288 
L 189.554318 212.661153 
L 191.773636 212.661153 
L 192.090682 211.021017 
L 194.31 211.021017 
L 194.627045 209.380881 
L 196.846364 209.380881 
L 197.163409 207.740746 
L 199.382727 207.740746 
L 199.699773 206.10061 
L 201.919091 206.10061 
L 202.236136 204.460475 
L 204.455455 204.460475 
L 204.7725 202.820339 
L 206.991818 202.820339 
L 207.308864 201.180203 
L 209.528182 201.180203 
L 209.845227 199.540068 
L 212.064545 199.540068 
L 212.381591 197.899932 
L 214.600909 197.899932 
L 214.917955 196.259797 
L 217.137273 196.259797 
L 217.454318 194.619661 
L 219.673636 194.619661 
L 219.990682 192.979525 
L 222.21 192.979525 
L 222.527045 191.33939 
L 224.746364 191.33939 
L 225.063409 189.699254 
L 227.282727 189.699254 
L 227.599773 188.059119 
L 229.819091 188.059119 
L 230.136136 186.418983 
L 232.355455 186.418983 
L 232.6725 184.778847 
L 234.891818 184.778847 
L 235.208864 183.138712 
L 237.428182 183.138712 
L 237.745227 181.498576 
L 239.964545 181.498576 
L 240.281591 179.858441 
L 242.500909 179.858441 
L 242.817955 178.218305 
L 245.037273 178.218305 
L 245.354318 176.578169 
L 247.573636 176.578169 
L 247.890682 174.938034 
L 250.11 174.938034 
L 250.427045 173.297898 
L 252.646364 173.297898 
L 252.963409 171.657763 
L 255.182727 171.657763 
L 255.499773 170.017627 
L 257.719091 170.017627 
L 258.036136 168.377492 
L 260.255455 168.377492 
L 260.5725 166.737356 
L 262.791818 166.737356 
L 263.108864 165.09722 
L 265.328182 165.09722 
L 265.645227 163.457085 
L 267.864545 163.457085 
L 268.181591 161.816949 
L 270.400909 161.816949 
L 270.717955 160.176814 
L 272.937273 160.176814 
L 273.254318 158.536678 
L 275.473636 158.536678 
L 275.790682 156.896542 
L 278.01 156.896542 
L 278.327045 155.256407 
L 280.546364 155.256407 
L 280.863409 153.616271 
L 283.082727 153.616271 
L 283.399773 151.976136 
L 285.619091 151.976136 
L 285.936136 150.336 
L 288.155455 150.336 
L 288.4725 148.695864 
L 290.691818 148.695864 
L 291.008864 147.055729 
L 293.228182 147.055729 
L 293.545227 145.415593 
L 295.764545 145.415593 
L 296.081591 143.775458 
L 298.300909 143.775458 
L 298.617955 142.135322 
L 300.837273 142.135322 
L 301.154318 140.495186 
L 303.373636 140.495186 
L 303.690682 138.855051 
L 305.91 138.855051 
L 306.227045 137.214915 
L 308.446364 137.214915 
L 308.763409 135.57478 
L 310.982727 135.57478 
L 311.299773 133.934644 
L 313.519091 133.934644 
L 313.836136 132.294508 
L 316.055455 132.294508 
L 316.3725 130.654373 
L 318.591818 130.654373 
L 318.908864 129.014237 
L 321.128182 129.014237 
L 321.445227 127.374102 
L 323.664545 127.374102 
L 323.981591 125.733966 
L 326.200909 125.733966 
L 326.517955 124.093831 
L 328.737273 124.093831 
L 329.054318 122.453695 
L 331.273636 122.453695 
L 331.590682 120.813559 
L 333.81 120.813559 
L 334.127045 119.173424 
L 336.346364 119.173424 
L 336.663409 117.533288 
L 338.882727 117.533288 
L 339.199773 115.893153 
L 341.419091 115.893153 
L 341.736136 114.253017 
L 343.955455 114.253017 
L 344.2725 112.612881 
L 346.491818 112.612881 
L 346.808864 110.972746 
L 349.028182 110.972746 
L 349.345227 109.33261 
L 351.564545 109.33261 
L 351.881591 107.692475 
L 354.100909 107.692475 
L 354.417955 106.052339 
L 356.637273 106.052339 
L 356.954318 104.412203 
L 359.173636 104.412203 
L 359.490682 102.772068 
L 361.71 102.772068 
L 362.027045 101.131932 
L 364.246364 101.131932 
L 364.563409 99.491797 
L 366.782727 99.491797 
L 367.099773 97.851661 
L 369.319091 97.851661 
L 369.636136 96.211525 
L 371.855455 96.211525 
L 372.1725 94.57139 
L 374.391818 94.57139 
L 374.708864 92.931254 
L 376.928182 92.931254 
L 377.245227 91.291119 
L 379.464545 91.291119 
L 379.781591 89.650983 
L 382.000909 89.650983 
L 382.317955 88.010847 
L 384.537273 88.010847 
L 384.854318 86.370712 
L 387.073636 86.370712 
L 387.390682 84.730576 
L 389.61 84.730576 
L 389.927045 83.090441 
L 392.146364 83.090441 
L 392.463409 81.450305 
L 394.682727 81.450305 
L 394.999773 79.810169 
L 397.219091 79.810169 
L 397.536136 78.170034 
L 398.487273 78.170034 
L 398.487273 78.170034 
" clip-path="url(#p4c281df6cb)" style="fill: none; stroke: #2ca02c; stroke-width: 1.5; stroke-linecap: square"/>
   </g>
   <g id="line2d_17">
    <path d="M 73.832727 291.387661 
L 76.052045 291.387661 
L 76.369091 289.747525 
L 78.588409 289.747525 
L 78.905455 288.10739 
L 81.124773 288.10739 
L 81.441818 286.467254 
L 83.661136 286.467254 
L 83.978182 284.827119 
L 86.1975 284.827119 
L 86.514545 283.186983 
L 88.733864 283.186983 
L 89.050909 281.546847 
L 91.270227 281.546847 
L 91.587273 279.906712 
L 93.806591 279.906712 
L 94.123636 278.266576 
L 96.342955 278.266576 
L 96.66 276.626441 
L 98.879318 276.626441 
L 99.196364 274.986305 
L 101.415682 274.986305 
L 101.732727 273.346169 
L 103.952045 273.346169 
L 104.269091 271.706034 
L 106.488409 271.706034 
L 106.805455 270.065898 
L 109.024773 270.065898 
L 109.341818 268.425763 
L 111.561136 268.425763 
L 111.878182 266.785627 
L 114.0975 266.785627 
L 114.414545 265.145492 
L 116.633864 265.145492 
L 116.950909 263.505356 
L 119.170227 263.505356 
L 119.487273 261.86522 
L 121.706591 261.86522 
L 122.023636 260.225085 
L 124.242955 260.225085 
L 124.56 258.584949 
L 126.779318 258.584949 
L 127.096364 256.944814 
L 129.315682 256.944814 
L 129.632727 255.304678 
L 131.852045 255.304678 
L 132.169091 253.664542 
L 134.388409 253.664542 
L 134.705455 252.024407 
L 136.924773 252.024407 
L 137.241818 250.384271 
L 139.461136 250.384271 
L 139.778182 248.744136 
L 141.9975 248.744136 
L 142.314545 247.104 
L 144.533864 247.104 
L 144.850909 245.463864 
L 147.070227 245.463864 
L 147.387273 243.823729 
L 149.606591 243.823729 
L 149.923636 242.183593 
L 152.142955 242.183593 
L 152.46 240.543458 
L 154.679318 240.543458 
L 154.996364 238.903322 
L 157.215682 238.903322 
L 157.532727 237.263186 
L 159.752045 237.263186 
L 160.069091 235.623051 
L 162.288409 235.623051 
L 162.605455 233.982915 
L 164.824773 233.982915 
L 165.141818 232.34278 
L 167.361136 232.34278 
L 167.678182 230.702644 
L 169.8975 230.702644 
L 170.214545 229.062508 
L 172.433864 229.062508 
L 172.750909 227.422373 
L 174.970227 227.422373 
L 175.287273 225.782237 
L 177.506591 225.782237 
L 177.823636 224.142102 
L 180.042955 224.142102 
L 180.36 222.501966 
L 182.579318 222.501966 
L 182.896364 220.861831 
L 185.115682 220.861831 
L 185.432727 219.221695 
L 187.652045 219.221695 
L 187.969091 217.581559 
L 190.188409 217.581559 
L 190.505455 215.941424 
L 192.724773 215.941424 
L 193.041818 214.301288 
L 195.261136 214.301288 
L 195.578182 212.661153 
L 197.7975 212.661153 
L 198.114545 211.021017 
L 200.333864 211.021017 
L 200.650909 209.380881 
L 202.870227 209.380881 
L 203.187273 207.740746 
L 205.406591 207.740746 
L 205.723636 206.10061 
L 207.942955 206.10061 
L 208.26 204.460475 
L 210.479318 204.460475 
L 210.796364 202.820339 
L 213.015682 202.820339 
L 213.332727 201.180203 
L 215.552045 201.180203 
L 215.869091 199.540068 
L 218.088409 199.540068 
L 218.405455 197.899932 
L 220.624773 197.899932 
L 220.941818 196.259797 
L 223.161136 196.259797 
L 223.478182 194.619661 
L 225.6975 194.619661 
L 226.014545 192.979525 
L 228.233864 192.979525 
L 228.550909 191.33939 
L 230.770227 191.33939 
L 231.087273 189.699254 
L 233.306591 189.699254 
L 233.623636 188.059119 
L 235.842955 188.059119 
L 236.16 186.418983 
L 238.379318 186.418983 
L 238.696364 184.778847 
L 240.915682 184.778847 
L 241.232727 183.138712 
L 243.452045 183.138712 
L 243.769091 181.498576 
L 245.988409 181.498576 
L 246.305455 179.858441 
L 248.524773 179.858441 
L 248.841818 178.218305 
L 251.061136 178.218305 
L 251.378182 176.578169 
L 253.5975 176.578169 
L 253.914545 174.938034 
L 256.133864 174.938034 
L 256.450909 173.297898 
L 258.670227 173.297898 
L 258.987273 171.657763 
L 261.206591 171.657763 
L 261.523636 170.017627 
L 263.742955 170.017627 
L 264.06 168.377492 
L 266.279318 168.377492 
L 266.596364 166.737356 
L 268.815682 166.737356 
L 269.132727 165.09722 
L 271.352045 165.09722 
L 271.669091 163.457085 
L 273.888409 163.457085 
L 274.205455 161.816949 
L 276.424773 161.816949 
L 276.741818 160.176814 
L 278.961136 160.176814 
L 279.278182 158.536678 
L 281.4975 158.536678 
L 281.814545 156.896542 
L 284.033864 156.896542 
L 284.350909 155.256407 
L 286.570227 155.256407 
L 286.887273 153.616271 
L 289.106591 153.616271 
L 289.423636 151.976136 
L 291.642955 151.976136 
L 291.96 150.336 
L 294.179318 150.336 
L 294.496364 148.695864 
L 296.715682 148.695864 
L 297.032727 147.055729 
L 299.252045 147.055729 
L 299.569091 145.415593 
L 301.788409 145.415593 
L 302.105455 143.775458 
L 304.324773 143.775458 
L 304.641818 142.135322 
L 306.861136 142.135322 
L 307.178182 140.495186 
L 309.3975 140.495186 
L 309.714545 138.855051 
L 311.933864 138.855051 
L 312.250909 137.214915 
L 314.470227 137.214915 
L 314.787273 135.57478 
L 317.006591 135.57478 
L 317.323636 133.934644 
L 319.542955 133.934644 
L 319.86 132.294508 
L 322.079318 132.294508 
L 322.396364 130.654373 
L 324.615682 130.654373 
L 324.932727 129.014237 
L 327.152045 129.014237 
L 327.469091 127.374102 
L 329.688409 127.374102 
L 330.005455 125.733966 
L 332.224773 125.733966 
L 332.541818 124.093831 
L 334.761136 124.093831 
L 335.078182 122.453695 
L 337.2975 122.453695 
L 337.614545 120.813559 
L 339.833864 120.813559 
L 340.150909 119.173424 
L 342.370227 119.173424 
L 342.687273 117.533288 
L 344.906591 117.533288 
L 345.223636 115.893153 
L 347.442955 115.893153 
L 347.76 114.253017 
L 349.979318 114.253017 
L 350.296364 112.612881 
L 352.515682 112.612881 
L 352.832727 110.972746 
L 355.052045 110.972746 
L 355.369091 109.33261 
L 357.588409 109.33261 
L 357.905455 107.692475 
L 360.124773 107.692475 
L 360.441818 106.052339 
L 362.661136 106.052339 
L 362.978182 104.412203 
L 365.1975 104.412203 
L 365.514545 102.772068 
L 367.733864 102.772068 
L 368.050909 101.131932 
L 370.270227 101.131932 
L 370.587273 99.491797 
L 372.806591 99.491797 
L 373.123636 97.851661 
L 375.342955 97.851661 
L 375.66 96.211525 
L 377.879318 96.211525 
L 378.196364 94.57139 
L 380.415682 94.57139 
L 380.732727 92.931254 
L 382.952045 92.931254 
L 383.269091 91.291119 
L 385.488409 91.291119 
L 385.805455 89.650983 
L 388.024773 89.650983 
L 388.341818 88.010847 
L 390.561136 88.010847 
L 390.878182 86.370712 
L 393.0975 86.370712 
L 393.414545 84.730576 
L 395.633864 84.730576 
L 395.950909 83.090441 
L 398.170227 83.090441 
L 398.487273 81.450305 
L 398.487273 81.450305 
" clip-path="url(#p4c281df6cb)" style="fill: none; stroke: #d62728; stroke-width: 1.5; stroke-linecap: square"/>
   </g>
   <g id="line2d_18">
    <path d="M 73.832727 295.488 
L 76.686136 293.642847 
L 77.003182 293.847864 
L 77.637273 293.437831 
L 77.954318 292.82278 
L 78.271364 293.027797 
L 78.588409 292.82278 
L 78.905455 292.82278 
L 79.2225 292.412746 
L 79.539545 292.207729 
L 79.856591 292.207729 
L 80.173636 291.797695 
L 80.490682 292.207729 
L 81.124773 291.182644 
L 81.441818 291.182644 
L 81.758864 290.977627 
L 82.392955 290.977627 
L 82.71 290.77261 
L 83.027045 290.362576 
L 83.344091 290.157559 
L 83.978182 290.157559 
L 84.295227 290.362576 
L 84.612273 289.952542 
L 85.246364 289.952542 
L 85.563409 289.747525 
L 86.1975 289.747525 
L 86.514545 289.337492 
L 86.831591 289.337492 
L 87.148636 289.542508 
L 87.465682 289.337492 
L 87.782727 289.337492 
L 88.099773 288.927458 
L 88.416818 288.927458 
L 88.733864 289.132475 
L 89.367955 288.722441 
L 89.685 288.722441 
L 90.319091 288.312407 
L 90.636136 288.312407 
L 90.953182 288.517424 
L 91.270227 288.10739 
L 91.904318 288.10739 
L 92.221364 288.312407 
L 92.538409 288.10739 
L 92.855455 288.312407 
L 93.1725 287.902373 
L 94.123636 287.902373 
L 94.757727 287.492339 
L 95.074773 287.492339 
L 95.391818 287.287322 
L 96.025909 287.287322 
L 96.342955 287.082305 
L 96.66 287.082305 
L 96.977045 287.287322 
L 97.294091 286.877288 
L 97.611136 287.082305 
L 98.245227 286.672271 
L 98.562273 286.877288 
L 98.879318 286.672271 
L 99.196364 286.262237 
L 99.830455 286.262237 
L 100.1475 286.05722 
L 100.464545 285.647186 
L 100.781591 286.467254 
L 101.098636 286.467254 
L 101.415682 286.05722 
L 101.732727 285.852203 
L 102.049773 286.05722 
L 102.366818 285.852203 
L 102.683864 285.852203 
L 103.000909 285.647186 
L 103.317955 285.237153 
L 103.952045 285.237153 
L 104.269091 285.442169 
L 104.586136 285.237153 
L 104.903182 286.05722 
L 105.220227 285.032136 
L 105.854318 285.032136 
L 106.171364 284.827119 
L 106.488409 284.827119 
L 106.805455 284.622102 
L 107.1225 285.032136 
L 107.439545 284.622102 
L 107.756591 284.622102 
L 108.073636 284.417085 
L 108.390682 284.417085 
L 108.707727 284.212068 
L 109.341818 284.212068 
L 109.658864 284.622102 
L 109.975909 283.802034 
L 110.292955 284.007051 
L 110.61 283.597017 
L 110.927045 284.212068 
L 111.244091 284.212068 
L 111.561136 283.597017 
L 111.878182 283.597017 
L 112.195227 283.392 
L 112.512273 284.007051 
L 112.829318 283.186983 
L 113.463409 283.597017 
L 113.780455 283.186983 
L 114.0975 283.186983 
L 114.414545 282.776949 
L 114.731591 282.571932 
L 115.048636 282.776949 
L 115.365682 282.571932 
L 115.682727 282.571932 
L 115.999773 282.366915 
L 116.316818 282.776949 
L 116.633864 282.571932 
L 116.950909 282.161898 
L 117.267955 282.161898 
L 117.585 281.751864 
L 117.902045 281.956881 
L 118.219091 282.366915 
L 118.536136 282.161898 
L 118.853182 282.366915 
L 119.170227 281.546847 
L 119.487273 281.956881 
L 119.804318 281.751864 
L 120.121364 281.751864 
L 120.438409 280.931797 
L 120.755455 281.546847 
L 121.0725 281.341831 
L 121.389545 281.546847 
L 121.706591 281.546847 
L 122.023636 281.341831 
L 122.657727 281.341831 
L 122.974773 280.72678 
L 123.291818 280.72678 
L 123.608864 281.341831 
L 123.925909 281.341831 
L 124.242955 280.521763 
L 124.56 280.521763 
L 124.877045 280.316746 
L 125.194091 280.72678 
L 125.511136 280.316746 
L 125.828182 280.316746 
L 126.145227 280.111729 
L 126.462273 280.521763 
L 126.779318 279.906712 
L 127.096364 280.316746 
L 127.413409 280.111729 
L 127.730455 279.701695 
L 128.0475 279.701695 
L 128.364545 279.291661 
L 128.998636 279.701695 
L 129.632727 279.701695 
L 129.949773 279.086644 
L 130.583864 279.086644 
L 130.900909 278.67661 
L 131.217955 278.471593 
L 131.535 278.881627 
L 131.852045 278.881627 
L 132.169091 279.086644 
L 132.486136 278.471593 
L 132.803182 278.881627 
L 133.120227 278.471593 
L 133.437273 278.266576 
L 133.754318 279.496678 
L 134.071364 278.881627 
L 134.388409 278.67661 
L 134.705455 278.67661 
L 135.0225 278.266576 
L 135.339545 278.471593 
L 135.656591 277.856542 
L 135.973636 277.651525 
L 136.290682 278.881627 
L 136.607727 277.446508 
L 137.241818 277.446508 
L 137.558864 278.061559 
L 138.192955 277.036475 
L 138.51 277.036475 
L 138.827045 277.241492 
L 139.144091 277.651525 
L 139.461136 277.036475 
L 139.778182 277.651525 
L 140.095227 277.036475 
L 140.412273 277.446508 
L 141.046364 276.421424 
L 141.363409 276.626441 
L 141.680455 276.626441 
L 141.9975 276.831458 
L 142.314545 276.421424 
L 142.631591 276.626441 
L 142.948636 276.626441 
L 143.265682 276.421424 
L 143.899773 276.421424 
L 144.216818 276.01139 
L 144.533864 276.421424 
L 144.850909 276.01139 
L 145.167955 276.626441 
L 145.485 276.01139 
L 145.802045 275.806373 
L 146.119091 274.986305 
L 146.753182 276.01139 
L 147.387273 275.601356 
L 147.704318 274.781288 
L 148.338409 276.01139 
L 148.655455 275.806373 
L 148.9725 274.576271 
L 149.289545 276.01139 
L 150.240682 274.166237 
L 150.557727 274.576271 
L 150.874773 274.576271 
L 151.191818 274.166237 
L 151.508864 274.576271 
L 151.825909 274.371254 
L 152.142955 274.371254 
L 152.46 274.781288 
L 152.777045 274.371254 
L 153.094091 274.576271 
L 153.411136 274.371254 
L 153.728182 273.756203 
L 154.045227 274.576271 
L 154.362273 273.756203 
L 154.679318 274.576271 
L 154.996364 273.346169 
L 155.313409 273.346169 
L 155.630455 274.371254 
L 155.9475 273.346169 
L 156.264545 273.756203 
L 156.581591 273.346169 
L 156.898636 273.346169 
L 157.532727 272.936136 
L 157.849773 272.936136 
L 158.166818 273.756203 
L 158.483864 273.756203 
L 158.800909 273.141153 
L 159.117955 272.936136 
L 159.435 272.526102 
L 159.752045 272.731119 
L 160.069091 273.346169 
L 160.386136 272.116068 
L 160.703182 271.706034 
L 161.020227 272.731119 
L 161.337273 271.706034 
L 162.288409 271.706034 
L 162.605455 272.116068 
L 162.9225 271.911051 
L 163.239545 272.321085 
L 163.556591 272.116068 
L 163.873636 270.885966 
L 164.190682 272.321085 
L 164.507727 271.501017 
L 165.141818 271.911051 
L 165.458864 270.885966 
L 165.775909 272.116068 
L 166.092955 270.885966 
L 166.41 272.116068 
L 166.727045 270.885966 
L 167.044091 271.296 
L 167.361136 270.270915 
L 167.678182 271.706034 
L 167.995227 270.680949 
L 168.312273 270.475932 
L 168.629318 271.090983 
L 168.946364 270.270915 
L 169.263409 270.475932 
L 169.580455 270.270915 
L 169.8975 271.090983 
L 170.214545 270.270915 
L 170.531591 269.860881 
L 170.848636 270.065898 
L 171.165682 269.860881 
L 171.482727 269.860881 
L 171.799773 270.270915 
L 172.116818 270.065898 
L 172.750909 269.245831 
L 173.067955 269.860881 
L 173.702045 269.040814 
L 174.336136 270.065898 
L 174.653182 268.220746 
L 174.970227 269.450847 
L 175.287273 269.450847 
L 175.604318 269.040814 
L 175.921364 269.450847 
L 176.238409 268.63078 
L 176.555455 268.63078 
L 176.8725 269.040814 
L 177.189545 267.810712 
L 177.506591 268.835797 
L 177.823636 269.245831 
L 178.140682 269.040814 
L 178.457727 268.220746 
L 178.774773 268.220746 
L 179.091818 267.810712 
L 179.408864 268.63078 
L 179.725909 268.425763 
L 180.042955 267.400678 
L 180.36 267.810712 
L 180.677045 266.990644 
L 180.994091 268.015729 
L 181.311136 267.810712 
L 181.628182 267.195661 
L 181.945227 268.63078 
L 182.262273 268.015729 
L 182.579318 268.63078 
L 182.896364 266.990644 
L 183.213409 266.990644 
L 183.530455 267.605695 
L 183.8475 267.810712 
L 184.164545 267.810712 
L 184.481591 267.400678 
L 184.798636 267.605695 
L 185.115682 266.785627 
L 185.432727 267.400678 
L 186.066818 266.170576 
L 186.383864 266.990644 
L 186.700909 266.785627 
L 187.017955 265.965559 
L 187.335 266.170576 
L 187.652045 266.58061 
L 187.969091 267.400678 
L 188.603182 265.965559 
L 188.920227 266.170576 
L 189.237273 265.555525 
L 189.554318 266.170576 
L 189.871364 265.555525 
L 190.188409 265.760542 
L 190.505455 265.760542 
L 190.8225 265.965559 
L 191.139545 265.145492 
L 191.456591 265.965559 
L 191.773636 265.965559 
L 192.090682 265.555525 
L 192.407727 265.350508 
L 193.041818 265.760542 
L 193.358864 265.145492 
L 193.675909 265.760542 
L 193.992955 265.145492 
L 194.31 265.760542 
L 194.627045 264.735458 
L 195.261136 264.735458 
L 195.895227 263.91539 
L 196.212273 264.325424 
L 196.529318 264.120407 
L 196.846364 264.120407 
L 197.163409 263.710373 
L 197.480455 264.120407 
L 197.7975 263.505356 
L 198.114545 263.91539 
L 198.431591 264.940475 
L 198.748636 263.710373 
L 199.065682 263.710373 
L 199.382727 263.095322 
L 199.699773 264.530441 
L 200.016818 264.120407 
L 200.333864 263.505356 
L 200.650909 263.91539 
L 200.967955 263.300339 
L 201.919091 263.300339 
L 202.236136 263.095322 
L 202.553182 263.505356 
L 202.870227 264.325424 
L 203.187273 262.480271 
L 203.504318 263.300339 
L 203.821364 262.685288 
L 204.138409 263.505356 
L 204.455455 262.480271 
L 205.089545 262.890305 
L 205.406591 263.300339 
L 205.723636 262.480271 
L 206.040682 262.480271 
L 206.357727 262.070237 
L 206.674773 262.890305 
L 206.991818 261.86522 
L 207.308864 262.480271 
L 207.625909 262.070237 
L 207.942955 262.275254 
L 208.26 261.86522 
L 208.894091 261.86522 
L 209.211136 262.275254 
L 209.528182 261.045153 
L 209.845227 261.660203 
L 210.162273 261.660203 
L 210.479318 262.070237 
L 210.796364 262.070237 
L 211.113409 260.840136 
L 211.430455 261.455186 
L 211.7475 260.635119 
L 212.381591 261.045153 
L 213.015682 260.635119 
L 213.332727 261.660203 
L 213.966818 259.815051 
L 214.283864 259.815051 
L 214.600909 260.635119 
L 214.917955 260.635119 
L 215.235 261.250169 
L 215.552045 260.635119 
L 215.869091 259.610034 
L 216.186136 260.020068 
L 216.503182 260.840136 
L 216.820227 259.610034 
L 217.137273 260.225085 
L 217.454318 259.815051 
L 217.771364 258.789966 
L 218.088409 259.610034 
L 218.405455 259.2 
L 218.7225 259.815051 
L 219.039545 260.020068 
L 219.356591 259.610034 
L 219.673636 258.789966 
L 219.990682 259.405017 
L 220.624773 259.405017 
L 220.941818 259.610034 
L 221.575909 258.174915 
L 221.892955 258.379932 
L 222.21 259.405017 
L 222.527045 257.764881 
L 222.844091 259.405017 
L 223.478182 258.994983 
L 223.795227 258.584949 
L 224.112273 257.149831 
L 224.746364 258.174915 
L 225.063409 258.174915 
L 225.380455 257.969898 
L 225.6975 258.379932 
L 226.014545 257.559864 
L 226.648636 258.379932 
L 226.965682 257.764881 
L 227.282727 257.559864 
L 227.599773 257.969898 
L 228.233864 257.559864 
L 228.867955 257.559864 
L 229.185 256.944814 
L 229.502045 257.764881 
L 229.819091 256.739797 
L 230.136136 257.354847 
L 230.453182 256.739797 
L 230.770227 257.149831 
L 231.087273 256.329763 
L 231.404318 257.149831 
L 231.721364 257.354847 
L 232.038409 256.944814 
L 232.355455 256.124746 
L 232.6725 255.714712 
L 232.989545 256.739797 
L 233.306591 256.329763 
L 233.623636 257.559864 
L 233.940682 256.329763 
L 234.257727 256.944814 
L 234.891818 254.48461 
L 235.525909 256.739797 
L 235.842955 255.714712 
L 236.16 255.714712 
L 236.794091 255.304678 
L 237.111136 256.124746 
L 237.428182 254.894644 
L 238.062273 257.149831 
L 238.379318 255.509695 
L 238.696364 255.304678 
L 239.013409 253.664542 
L 239.330455 255.509695 
L 239.6475 255.304678 
L 239.964545 254.074576 
L 240.281591 254.48461 
L 240.598636 255.919729 
L 240.915682 254.894644 
L 241.232727 254.48461 
L 241.549773 255.099661 
L 241.866818 253.869559 
L 242.183864 254.074576 
L 242.500909 254.894644 
L 242.817955 254.074576 
L 243.135 254.279593 
L 243.452045 254.279593 
L 243.769091 253.664542 
L 244.086136 254.074576 
L 244.403182 253.459525 
L 244.720227 253.254508 
L 245.037273 254.279593 
L 245.354318 254.074576 
L 245.671364 253.459525 
L 246.305455 254.689627 
L 246.6225 253.664542 
L 246.939545 253.869559 
L 247.256591 253.254508 
L 247.573636 253.049492 
L 247.890682 253.049492 
L 248.207727 252.229424 
L 248.524773 253.049492 
L 248.841818 252.434441 
L 249.158864 253.254508 
L 249.475909 252.229424 
L 249.792955 252.844475 
L 250.11 252.434441 
L 250.427045 252.844475 
L 251.061136 252.024407 
L 251.695227 253.459525 
L 252.329318 252.229424 
L 252.646364 252.844475 
L 252.963409 252.639458 
L 253.280455 251.81939 
L 253.5975 252.024407 
L 253.914545 252.024407 
L 254.231591 250.999322 
L 254.548636 253.254508 
L 254.865682 251.81939 
L 255.499773 252.639458 
L 255.816818 252.024407 
L 256.133864 252.024407 
L 256.450909 252.434441 
L 256.767955 252.024407 
L 257.085 250.589288 
L 257.402045 250.794305 
L 257.719091 251.81939 
L 258.036136 252.434441 
L 258.353182 251.409356 
L 259.304318 249.76922 
L 259.621364 250.589288 
L 259.938409 250.589288 
L 260.255455 250.794305 
L 260.5725 249.974237 
L 260.889545 251.409356 
L 261.206591 251.204339 
L 261.523636 249.564203 
L 261.840682 250.384271 
L 262.157727 249.76922 
L 262.474773 250.999322 
L 263.108864 249.154169 
L 263.742955 250.384271 
L 264.06 249.564203 
L 264.377045 249.154169 
L 264.694091 248.539119 
L 265.011136 249.974237 
L 265.328182 248.129085 
L 265.645227 249.154169 
L 265.962273 248.744136 
L 266.279318 249.564203 
L 266.913409 249.154169 
L 267.230455 249.359186 
L 267.864545 248.539119 
L 268.181591 247.924068 
L 268.498636 249.76922 
L 268.815682 248.334102 
L 269.132727 247.924068 
L 269.449773 249.76922 
L 269.766818 248.949153 
L 270.083864 247.514034 
L 270.717955 248.949153 
L 271.035 248.949153 
L 271.352045 247.719051 
L 271.669091 247.514034 
L 271.986136 248.334102 
L 272.303182 247.719051 
L 272.620227 248.744136 
L 272.937273 247.719051 
L 273.254318 247.924068 
L 273.571364 246.693966 
L 273.888409 248.129085 
L 274.205455 247.309017 
L 274.839545 248.539119 
L 275.473636 247.309017 
L 275.790682 247.719051 
L 276.107727 247.719051 
L 276.424773 247.309017 
L 276.741818 247.924068 
L 277.058864 247.104 
L 277.375909 247.104 
L 277.692955 246.693966 
L 278.01 247.104 
L 278.327045 245.668881 
L 278.644091 246.078915 
L 278.961136 245.873898 
L 279.278182 246.078915 
L 279.595227 247.104 
L 279.912273 245.873898 
L 280.229318 246.283932 
L 280.546364 246.078915 
L 280.863409 246.693966 
L 281.180455 246.488949 
L 281.4975 245.873898 
L 281.814545 246.488949 
L 282.131591 246.283932 
L 282.448636 246.693966 
L 282.765682 244.848814 
L 283.082727 244.848814 
L 283.399773 245.053831 
L 283.716818 245.463864 
L 284.033864 245.668881 
L 284.350909 244.43878 
L 284.667955 244.848814 
L 284.985 244.643797 
L 285.619091 246.488949 
L 285.936136 244.43878 
L 286.253182 244.43878 
L 286.570227 245.053831 
L 286.887273 244.848814 
L 287.204318 244.233763 
L 287.521364 245.258847 
L 287.838409 244.028746 
L 288.155455 245.053831 
L 288.4725 244.028746 
L 288.789545 245.258847 
L 289.106591 242.798644 
L 289.423636 244.43878 
L 289.740682 244.028746 
L 290.374773 244.028746 
L 290.691818 243.823729 
L 291.325909 243.823729 
L 291.642955 244.848814 
L 291.96 243.823729 
L 292.277045 243.413695 
L 292.594091 243.618712 
L 292.911136 244.233763 
L 293.228182 243.618712 
L 293.545227 243.413695 
L 293.862273 242.183593 
L 294.179318 244.028746 
L 294.496364 243.208678 
L 294.813409 243.208678 
L 295.130455 241.978576 
L 295.4475 243.413695 
L 295.764545 243.413695 
L 296.081591 242.38861 
L 296.398636 243.208678 
L 296.715682 243.618712 
L 297.032727 242.183593 
L 297.349773 241.978576 
L 297.666818 243.003661 
L 297.983864 241.978576 
L 298.300909 242.593627 
L 298.617955 242.38861 
L 298.935 242.38861 
L 299.252045 241.158508 
L 299.569091 242.183593 
L 299.886136 241.363525 
L 300.203182 243.208678 
L 300.520227 241.773559 
L 301.154318 242.593627 
L 301.471364 241.158508 
L 301.788409 241.568542 
L 302.105455 241.363525 
L 302.4225 241.568542 
L 302.739545 242.183593 
L 303.056591 240.543458 
L 303.373636 239.72339 
L 303.690682 240.748475 
L 304.007727 241.363525 
L 304.324773 240.133424 
L 304.641818 241.978576 
L 304.958864 240.953492 
L 305.275909 241.158508 
L 305.592955 241.158508 
L 305.91 240.543458 
L 306.227045 241.568542 
L 306.544091 239.518373 
L 306.861136 240.748475 
L 307.178182 240.133424 
L 307.495227 240.748475 
L 308.129318 239.313356 
L 308.446364 240.338441 
L 308.763409 240.133424 
L 309.080455 239.72339 
L 309.3975 239.928407 
L 309.714545 239.313356 
L 310.031591 239.313356 
L 310.348636 239.108339 
L 310.665682 240.953492 
L 310.982727 239.313356 
L 311.299773 238.903322 
L 311.616818 238.903322 
L 311.933864 240.133424 
L 312.250909 239.313356 
L 312.567955 239.928407 
L 313.202045 238.493288 
L 313.519091 238.493288 
L 313.836136 241.158508 
L 314.153182 238.698305 
L 314.470227 238.288271 
L 314.787273 238.698305 
L 315.421364 237.878237 
L 315.738409 238.698305 
L 316.055455 238.903322 
L 316.3725 238.493288 
L 316.689545 238.698305 
L 317.006591 238.288271 
L 317.323636 238.288271 
L 317.640682 238.698305 
L 317.957727 237.263186 
L 318.591818 237.263186 
L 318.908864 238.698305 
L 319.225909 237.878237 
L 319.542955 238.288271 
L 319.86 236.238102 
L 320.177045 238.493288 
L 320.494091 237.67322 
L 320.811136 237.468203 
L 321.128182 237.878237 
L 321.445227 237.67322 
L 322.079318 237.67322 
L 322.396364 236.443119 
L 322.713409 237.058169 
L 323.030455 236.853153 
L 323.3475 236.443119 
L 323.664545 237.468203 
L 323.981591 237.058169 
L 324.298636 236.238102 
L 324.615682 237.058169 
L 324.932727 236.853153 
L 325.249773 237.058169 
L 325.566818 235.213017 
L 325.883864 236.648136 
L 326.200909 236.238102 
L 326.517955 237.058169 
L 327.152045 235.418034 
L 327.469091 237.878237 
L 327.786136 235.828068 
L 328.103182 236.033085 
L 328.420227 235.623051 
L 328.737273 235.008 
L 329.054318 235.828068 
L 329.371364 234.597966 
L 329.688409 235.623051 
L 330.005455 235.418034 
L 330.3225 237.058169 
L 330.639545 235.213017 
L 330.956591 236.238102 
L 331.273636 235.008 
L 331.590682 234.802983 
L 331.907727 235.623051 
L 332.224773 235.828068 
L 332.541818 235.418034 
L 332.858864 235.418034 
L 333.175909 236.033085 
L 333.492955 235.828068 
L 333.81 236.033085 
L 334.127045 234.802983 
L 334.444091 235.008 
L 334.761136 234.802983 
L 335.078182 234.802983 
L 335.395227 233.777898 
L 335.712273 234.597966 
L 336.029318 235.828068 
L 336.346364 235.418034 
L 336.663409 234.392949 
L 336.980455 234.392949 
L 337.614545 233.982915 
L 337.931591 233.982915 
L 338.248636 233.572881 
L 338.565682 233.982915 
L 338.882727 233.777898 
L 339.199773 234.187932 
L 340.150909 232.957831 
L 340.467955 232.752814 
L 340.785 233.572881 
L 341.102045 233.572881 
L 341.419091 233.777898 
L 341.736136 234.187932 
L 342.053182 232.957831 
L 342.370227 233.367864 
L 343.004318 232.137763 
L 343.321364 232.137763 
L 343.638409 231.317695 
L 343.955455 232.752814 
L 344.2725 231.727729 
L 344.589545 232.752814 
L 344.906591 232.752814 
L 345.223636 233.572881 
L 345.540682 231.317695 
L 345.857727 231.522712 
L 346.174773 230.907661 
L 346.808864 232.137763 
L 347.125909 233.162847 
L 347.442955 231.522712 
L 347.76 231.932746 
L 348.077045 230.497627 
L 348.711136 232.34278 
L 349.028182 230.087593 
L 349.345227 230.702644 
L 349.662273 231.727729 
L 350.296364 230.497627 
L 350.613409 231.522712 
L 350.930455 230.497627 
L 351.2475 231.727729 
L 351.564545 230.907661 
L 351.881591 230.702644 
L 352.198636 231.112678 
L 352.515682 231.317695 
L 352.832727 231.317695 
L 353.149773 231.727729 
L 353.466818 230.497627 
L 353.783864 230.907661 
L 354.100909 231.522712 
L 354.417955 230.702644 
L 354.735 230.702644 
L 355.052045 229.472542 
L 355.369091 229.472542 
L 355.686136 229.677559 
L 356.003182 230.087593 
L 356.320227 230.907661 
L 356.637273 230.087593 
L 356.954318 230.497627 
L 357.271364 230.497627 
L 357.588409 229.677559 
L 357.905455 229.267525 
L 358.2225 229.882576 
L 358.539545 229.267525 
L 358.856591 230.087593 
L 359.173636 228.652475 
L 359.490682 229.882576 
L 359.807727 229.472542 
L 360.124773 228.652475 
L 360.441818 228.242441 
L 360.758864 228.447458 
L 361.075909 229.062508 
L 361.392955 229.267525 
L 361.71 228.037424 
L 362.027045 229.677559 
L 362.344091 228.857492 
L 362.661136 229.267525 
L 362.978182 229.267525 
L 363.295227 228.857492 
L 363.612273 228.652475 
L 363.929318 227.832407 
L 364.246364 228.857492 
L 364.563409 228.242441 
L 364.880455 227.012339 
L 365.1975 228.857492 
L 365.514545 227.217356 
L 365.831591 228.242441 
L 366.148636 228.857492 
L 366.465682 227.62739 
L 367.099773 228.447458 
L 367.416818 227.62739 
L 367.733864 227.422373 
L 368.367955 227.832407 
L 368.685 226.807322 
L 369.002045 226.397288 
L 369.319091 227.832407 
L 369.636136 227.012339 
L 369.953182 226.807322 
L 370.270227 225.167186 
L 370.587273 225.987254 
L 370.904318 226.397288 
L 371.221364 226.602305 
L 371.538409 226.602305 
L 371.855455 227.012339 
L 372.1725 226.602305 
L 372.489545 226.397288 
L 373.123636 226.397288 
L 373.440682 227.422373 
L 373.757727 225.987254 
L 374.074773 226.602305 
L 374.391818 226.397288 
L 374.708864 225.167186 
L 375.342955 227.217356 
L 375.66 225.167186 
L 375.977045 225.782237 
L 376.611136 225.372203 
L 376.928182 224.757153 
L 377.245227 226.397288 
L 377.562273 225.167186 
L 377.879318 226.807322 
L 378.196364 225.167186 
L 378.513409 226.397288 
L 379.1475 223.937085 
L 379.464545 223.937085 
L 379.781591 225.782237 
L 380.098636 223.937085 
L 380.415682 225.167186 
L 380.732727 224.962169 
L 381.049773 225.372203 
L 381.366818 224.962169 
L 381.683864 223.732068 
L 382.000909 224.142102 
L 382.317955 225.57722 
L 382.952045 223.937085 
L 383.269091 223.732068 
L 383.586136 223.117017 
L 383.903182 223.322034 
L 384.220227 224.142102 
L 384.537273 224.347119 
L 384.854318 222.912 
L 385.171364 224.962169 
L 385.488409 223.937085 
L 385.805455 223.527051 
L 386.1225 222.706983 
L 386.439545 224.552136 
L 386.756591 221.681898 
L 387.073636 224.142102 
L 387.390682 223.117017 
L 387.707727 222.706983 
L 388.024773 222.912 
L 388.341818 223.322034 
L 388.658864 223.527051 
L 388.975909 222.501966 
L 389.292955 222.912 
L 389.61 222.706983 
L 389.927045 220.861831 
L 390.244091 222.912 
L 390.561136 223.322034 
L 390.878182 222.501966 
L 391.195227 222.912 
L 391.512273 223.527051 
L 391.829318 222.296949 
L 392.146364 222.706983 
L 392.463409 224.142102 
L 392.780455 222.706983 
L 393.0975 223.937085 
L 393.414545 221.476881 
L 393.731591 223.732068 
L 394.365682 221.681898 
L 394.682727 221.476881 
L 394.999773 222.091932 
L 395.316818 221.476881 
L 395.633864 221.886915 
L 395.950909 221.886915 
L 396.585 221.066847 
L 396.902045 220.24678 
L 397.219091 221.271864 
L 397.536136 220.24678 
L 398.170227 221.476881 
L 398.487273 220.656814 
L 398.487273 220.656814 
" clip-path="url(#p4c281df6cb)" style="fill: none; stroke: #9467bd; stroke-width: 1.5; stroke-linecap: square"/>
   </g>
   <g id="patch_3">
    <path d="M 57.6 307.584 
L 57.6 41.472 
" style="fill: none; stroke: #000000; stroke-width: 0.8; stroke-linejoin: miter; stroke-linecap: square"/>
   </g>
   <g id="patch_4">
    <path d="M 414.72 307.584 
L 414.72 41.472 
" style="fill: none; stroke: #000000; stroke-width: 0.8; stroke-linejoin: miter; stroke-linecap: square"/>
   </g>
   <g id="patch_5">
    <path d="M 57.6 307.584 
L 414.72 307.584 
" style="fill: none; stroke: #000000; stroke-width: 0.8; stroke-linejoin: miter; stroke-linecap: square"/>
   </g>
   <g id="patch_6">
    <path d="M 57.6 41.472 
L 414.72 41.472 
" style="fill: none; stroke: #000000; stroke-width: 0.8; stroke-linejoin: miter; stroke-linecap: square"/>
   </g>
   <g id="text_16">
    <!-- Memory Usage by Object Type -->
    <g transform="translate(144.75375 35.472) scale(0.12 -0.12)">
     <defs>
      <path id="DejaVuSans-4d" d="M 628 4666 
L 1569 4666 
L 2759 1491 
L 3956 4666 
L 4897 4666 
L 4897 0 
L 4281 0 
L 4281 4097 
L 3078 897 
L 2444 897 
L 1241 4097 
L 1241 0 
L 628 0 
L 628 4666 
z
" transform="scale(0.015625)"/>
      <path id="DejaVuSans-6d" d="M 3328 2828 
Q 3544 3216 3844 3400 
Q 4144 3584 4550 3584 
Q 5097 3584 5394 3201 
Q 5691 2819 5691 2113 
L 5691 0 
L 5113 0 
L 5113 2094 
Q 5113 2597 4934 2840 
Q 4756 3084 4391 3084 
Q 3944 3084 3684 2787 
Q 3425 2491 3425 1978 
L 3425 0 
L 2847 0 
L 2847 2094 
Q 2847 2600 2669 2842 
Q 2491 3084 2119 3084 
Q 1678 3084 1418 2786 
Q 1159 2488 1159 1978 
L 1159 0 
L 581 0 
L 581 3500 
L 1159 3500 
L 1159 2956 
Q 1356 3278 1631 3431 
Q 1906 3584 2284 3584 
Q 2666 3584 2933 3390 
Q 3200 3197 3328 2828 
z
" transform="scale(0.015625)"/>
      <path id="DejaVuSans-6f" d="M 1959 3097 
Q 1497 3097 1228 2736 
Q 959 2375 959 1747 
Q 959 1119 1226 758 
Q 1494 397 1959 397 
Q 2419 397 2687 759 
Q 2956 1122 2956 1747 
Q 2956 2369 2687 2733 
Q 2419 3097 1959 3097 
z
M 1959 3584 
Q 2709 3584 3137 3096 
Q 3566 2609 3566 1747 
Q 3566 888 3137 398 
Q 2709 -91 1959 -91 
Q 1206 -91 779 398 
Q 353 888 353 1747 
Q 353 2609 779 3096 
Q 1206 3584 1959 3584 
z
" transform="scale(0.015625)"/>
      <path id="DejaVuSans-72" d="M 2631 2963 
Q 2534 3019 2420 3045 
Q 2306 3072 2169 3072 
Q 1681 3072 1420 2755 
Q 1159 2438 1159 1844 
L 1159 0 
L 581 0 
L 581 3500 
L 1159 3500 
L 1159 2956 
Q 1341 3275 1631 3429 
Q 1922 3584 2338 3584 
Q 2397 3584 2469 3576 
Q 2541 3569 2628 3553 
L 2631 2963 
z
" transform="scale(0.015625)"/>
      <path id="DejaVuSans-55" d="M 556 4666 
L 1191 4666 
L 1191 1831 
Q 1191 1081 1462 751 
Q 1734 422 2344 422 
Q 2950 422 3222 751 
Q 3494 1081 3494 1831 
L 3494 4666 
L 4128 4666 
L 4128 1753 
Q 4128 841 3676 375 
Q 3225 -91 2344 -91 
Q 1459 -91 1007 375 
Q 556 841 556 1753 
L 556 4666 
z
" transform="scale(0.015625)"/>
      <path id="DejaVuSans-61" d="M 2194 1759 
Q 1497 1759 1228 1600 
Q 959 1441 959 1056 
Q 959 750 1161 570 
Q 1363 391 1709 391 
Q 2188 391 2477 730 
Q 2766 1069 2766 1631 
L 2766 1759 
L 2194 1759 
z
M 3341 1997 
L 3341 0 
L 2766 0 
L 2766 531 
Q 2569 213 2275 61 
Q 1981 -91 1556 -91 
Q 1019 -91 701 211 
Q 384 513 384 1019 
Q 384 1609 779 1909 
Q 1175 2209 1959 2209 
L 2766 2209 
L 2766 2266 
Q 2766 2663 2505 2880 
Q 2244 3097 1772 3097 
Q 1472 3097 1187 3025 
Q 903 2953 641 2809 
L 641 3341 
Q 956 3463 1253 3523 
Q 1550 3584 1831 3584 
Q 2591 3584 2966 3190 
Q 3341 2797 3341 1997 
z
" transform="scale(0.015625)"/>
      <path id="DejaVuSans-54" d="M -19 4666 
L 3928 4666 
L 3928 4134 
L 2272 4134 
L 2272 0 
L 1638 0 
L 1638 4134 
L -19 4134 
L -19 4666 
z
" transform="scale(0.015625)"/>
      <path id="DejaVuSans-70" d="M 1159 525 
L 1159 -1331 
L 581 -1331 
L 581 3500 
L 1159 3500 
L 1159 2969 
Q 1341 3281 1617 3432 
Q 1894 3584 2278 3584 
Q 2916 3584 3314 3078 
Q 3713 2572 3713 1747 
Q 3713 922 3314 415 
Q 2916 -91 2278 -91 
Q 1894 -91 1617 61 
Q 1341 213 1159 525 
z
M 3116 1747 
Q 3116 2381 2855 2742 
Q 2594 3103 2138 3103 
Q 1681 3103 1420 2742 
Q 1159 2381 1159 1747 
Q 1159 1113 1420 752 
Q 1681 391 2138 391 
Q 2594 391 2855 752 
Q 3116 1113 3116 1747 
z
" transform="scale(0.015625)"/>
     </defs>
     <use xlink:href="#DejaVuSans-4d"/>
     <use xlink:href="#DejaVuSans-65" x="86.279297"/>
     <use xlink:href="#DejaVuSans-6d" x="147.802734"/>
     <use xlink:href="#DejaVuSans-6f" x="245.214844"/>
     <use xlink:href="#DejaVuSans-72" x="306.396484"/>
     <use xlink:href="#DejaVuSans-79" x="347.509766"/>
     <use xlink:href="#DejaVuSans-20" x="406.689453"/>
     <use xlink:href="#DejaVuSans-55" x="438.476562"/>
     <use xlink:href="#DejaVuSans-73" x="511.669922"/>
     <use xlink:href="#DejaVuSans-61" x="563.769531"/>
     <use xlink:href="#DejaVuSans-67" x="625.048828"/>
     <use xlink:href="#DejaVuSans-65" x="688.525391"/>
     <use xlink:href="#DejaVuSans-20" x="750.048828"/>
     <use xlink:href="#DejaVuSans-62" x="781.835938"/>
     <use xlink:href="#DejaVuSans-79" x="845.3125"/>
     <use xlink:href="#DejaVuSans-20" x="904.492188"/>
     <use xlink:href="#DejaVuSans-4f" x="936.279297"/>
     <use xlink:href="#DejaVuSans-62" x="1014.990234"/>
     <use xlink:href="#DejaVuSans-6a" x="1078.466797"/>
     <use xlink:href="#DejaVuSans-65" x="1106.25"/>
     <use xlink:href="#DejaVuSans-63" x="1167.773438"/>
     <use xlink:href="#DejaVuSans-74" x="1222.753906"/>
     <use xlink:href="#DejaVuSans-20" x="1261.962891"/>
     <use xlink:href="#DejaVuSans-54" x="1293.75"/>
     <use xlink:href="#DejaVuSans-79" x="1339.208984"/>
     <use xlink:href="#DejaVuSans-70" x="1398.388672"/>
     <use xlink:href="#DejaVuSans-65" x="1461.865234"/>
    </g>
   </g>
   <g id="legend_1">
    <g id="patch_7">
     <path d="M 64.6 122.862625 
L 149.964063 122.862625 
Q 151.964063 122.862625 151.964063 120.862625 
L 151.964063 48.472 
Q 151.964063 46.472 149.964063 46.472 
L 64.6 46.472 
Q 62.6 46.472 62.6 48.472 
L 62.6 120.862625 
Q 62.6 122.862625 64.6 122.862625 
z
" style="fill: #ffffff; opacity: 0.8; stroke: #cccccc; stroke-linejoin: miter"/>
    </g>
    <g id="line2d_19">
     <path d="M 66.6 54.570438 
L 76.6 54.570438 
L 86.6 54.570438 
" style="fill: none; stroke: #1f77b4; stroke-width: 1.5; stroke-linecap: square"/>
    </g>
    <g id="text_17">
     <!-- ShortSeq -->
     <g transform="translate(94.6 58.070438) scale(0.1 -0.1)">
      <use xlink:href="#DejaVuSans-53"/>
      <use xlink:href="#DejaVuSans-68" x="63.476562"/>
      <use xlink:href="#DejaVuSans-6f" x="126.855469"/>
      <use xlink:href="#DejaVuSans-72" x="188.037109"/>
      <use xlink:href="#DejaVuSans-74" x="229.150391"/>
      <use xlink:href="#DejaVuSans-53" x="268.359375"/>
      <use xlink:href="#DejaVuSans-65" x="331.835938"/>
      <use xlink:href="#DejaVuSans-71" x="393.359375"/>
     </g>
    </g>
    <g id="line2d_20">
     <path d="M 66.6 69.248563 
L 76.6 69.248563 
L 86.6 69.248563 
" style="fill: none; stroke: #ff7f0e; stroke-width: 1.5; stroke-linecap: square"/>
    </g>
    <g id="text_18">
     <!-- NumPy -->
     <g transform="translate(94.6 72.748563) scale(0.1 -0.1)">
      <defs>
       <path id="DejaVuSans-4e" d="M 628 4666 
L 1478 4666 
L 3547 763 
L 3547 4666 
L 4159 4666 
L 4159 0 
L 3309 0 
L 1241 3903 
L 1241 0 
L 628 0 
L 628 4666 
z
" transform="scale(0.015625)"/>
       <path id="DejaVuSans-50" d="M 1259 4147 
L 1259 2394 
L 2053 2394 
Q 2494 2394 2734 2622 
Q 2975 2850 2975 3272 
Q 2975 3691 2734 3919 
Q 2494 4147 2053 4147 
L 1259 4147 
z
M 628 4666 
L 2053 4666 
Q 2838 4666 3239 4311 
Q 3641 3956 3641 3272 
Q 3641 2581 3239 2228 
Q 2838 1875 2053 1875 
L 1259 1875 
L 1259 0 
L 628 0 
L 628 4666 
z
" transform="scale(0.015625)"/>
      </defs>
      <use xlink:href="#DejaVuSans-4e"/>
      <use xlink:href="#DejaVuSans-75" x="74.804688"/>
      <use xlink:href="#DejaVuSans-6d" x="138.183594"/>
      <use xlink:href="#DejaVuSans-50" x="235.595703"/>
      <use xlink:href="#DejaVuSans-79" x="295.898438"/>
     </g>
    </g>
    <g id="line2d_21">
     <path d="M 66.6 83.926688 
L 76.6 83.926688 
L 86.6 83.926688 
" style="fill: none; stroke: #2ca02c; stroke-width: 1.5; stroke-linecap: square"/>
    </g>
    <g id="text_19">
     <!-- PyUnicode -->
     <g transform="translate(94.6 87.426688) scale(0.1 -0.1)">
      <defs>
       <path id="DejaVuSans-64" d="M 2906 2969 
L 2906 4863 
L 3481 4863 
L 3481 0 
L 2906 0 
L 2906 525 
Q 2725 213 2448 61 
Q 2172 -91 1784 -91 
Q 1150 -91 751 415 
Q 353 922 353 1747 
Q 353 2572 751 3078 
Q 1150 3584 1784 3584 
Q 2172 3584 2448 3432 
Q 2725 3281 2906 2969 
z
M 947 1747 
Q 947 1113 1208 752 
Q 1469 391 1925 391 
Q 2381 391 2643 752 
Q 2906 1113 2906 1747 
Q 2906 2381 2643 2742 
Q 2381 3103 1925 3103 
Q 1469 3103 1208 2742 
Q 947 2381 947 1747 
z
" transform="scale(0.015625)"/>
      </defs>
      <use xlink:href="#DejaVuSans-50"/>
      <use xlink:href="#DejaVuSans-79" x="60.302734"/>
      <use xlink:href="#DejaVuSans-55" x="119.482422"/>
      <use xlink:href="#DejaVuSans-6e" x="192.675781"/>
      <use xlink:href="#DejaVuSans-69" x="256.054688"/>
      <use xlink:href="#DejaVuSans-63" x="283.837891"/>
      <use xlink:href="#DejaVuSans-6f" x="338.818359"/>
      <use xlink:href="#DejaVuSans-64" x="400"/>
      <use xlink:href="#DejaVuSans-65" x="463.476562"/>
     </g>
    </g>
    <g id="line2d_22">
     <path d="M 66.6 98.604813 
L 76.6 98.604813 
L 86.6 98.604813 
" style="fill: none; stroke: #d62728; stroke-width: 1.5; stroke-linecap: square"/>
    </g>
    <g id="text_20">
     <!-- PyBytes -->
     <g transform="translate(94.6 102.104813) scale(0.1 -0.1)">
      <defs>
       <path id="DejaVuSans-42" d="M 1259 2228 
L 1259 519 
L 2272 519 
Q 2781 519 3026 730 
Q 3272 941 3272 1375 
Q 3272 1813 3026 2020 
Q 2781 2228 2272 2228 
L 1259 2228 
z
M 1259 4147 
L 1259 2741 
L 2194 2741 
Q 2656 2741 2882 2914 
Q 3109 3088 3109 3444 
Q 3109 3797 2882 3972 
Q 2656 4147 2194 4147 
L 1259 4147 
z
M 628 4666 
L 2241 4666 
Q 2963 4666 3353 4366 
Q 3744 4066 3744 3513 
Q 3744 3084 3544 2831 
Q 3344 2578 2956 2516 
Q 3422 2416 3680 2098 
Q 3938 1781 3938 1306 
Q 3938 681 3513 340 
Q 3088 0 2303 0 
L 628 0 
L 628 4666 
z
" transform="scale(0.015625)"/>
      </defs>
      <use xlink:href="#DejaVuSans-50"/>
      <use xlink:href="#DejaVuSans-79" x="60.302734"/>
      <use xlink:href="#DejaVuSans-42" x="119.482422"/>
      <use xlink:href="#DejaVuSans-79" x="188.085938"/>
      <use xlink:href="#DejaVuSans-74" x="247.265625"/>
      <use xlink:href="#DejaVuSans-65" x="286.474609"/>
      <use xlink:href="#DejaVuSans-73" x="347.998047"/>
     </g>
    </g>
    <g id="line2d_23">
     <path d="M 66.6 113.282938 
L 76.6 113.282938 
L 86.6 113.282938 
" style="fill: none; stroke: #9467bd; stroke-width: 1.5; stroke-linecap: square"/>
    </g>
    <g id="text_21">
     <!-- Gzip Bytes -->
     <g transform="translate(94.6 116.782938) scale(0.1 -0.1)">
      <defs>
       <path id="DejaVuSans-47" d="M 3809 666 
L 3809 1919 
L 2778 1919 
L 2778 2438 
L 4434 2438 
L 4434 434 
Q 4069 175 3628 42 
Q 3188 -91 2688 -91 
Q 1594 -91 976 548 
Q 359 1188 359 2328 
Q 359 3472 976 4111 
Q 1594 4750 2688 4750 
Q 3144 4750 3555 4637 
Q 3966 4525 4313 4306 
L 4313 3634 
Q 3963 3931 3569 4081 
Q 3175 4231 2741 4231 
Q 1884 4231 1454 3753 
Q 1025 3275 1025 2328 
Q 1025 1384 1454 906 
Q 1884 428 2741 428 
Q 3075 428 3337 486 
Q 3600 544 3809 666 
z
" transform="scale(0.015625)"/>
      </defs>
      <use xlink:href="#DejaVuSans-47"/>
      <use xlink:href="#DejaVuSans-7a" x="77.490234"/>
      <use xlink:href="#DejaVuSans-69" x="129.980469"/>
      <use xlink:href="#DejaVuSans-70" x="157.763672"/>
      <use xlink:href="#DejaVuSans-20" x="221.240234"/>
      <use xlink:href="#DejaVuSans-42" x="253.027344"/>
      <use xlink:href="#DejaVuSans-79" x="321.630859"/>
      <use xlink:href="#DejaVuSans-74" x="380.810547"/>
      <use xlink:href="#DejaVuSans-65" x="420.019531"/>
      <use xlink:href="#DejaVuSans-73" x="481.542969"/>
     </g>
    </g>
   </g>
  </g>
 </g>
 <defs>
  <clipPath id="p4c281df6cb">
   <rect x="57.6" y="41.472" width="357.12" height="266.112"/>
  </clipPath>
 </defs>
</svg>
