<?xml version="1.0" encoding="utf-8" standalone="no"?>
<!DOCTYPE svg PUBLIC "-//W3C//DTD SVG 1.1//EN"
  "http://www.w3.org/Graphics/SVG/1.1/DTD/svg11.dtd">
<svg xmlns:xlink="http://www.w3.org/1999/xlink" width="460.8pt" height="345.6pt" viewBox="0 0 460.8 345.6" xmlns="http://www.w3.org/2000/svg" version="1.1">
 <metadata>
  <rdf:RDF xmlns:dc="http://purl.org/dc/elements/1.1/" xmlns:cc="http://creativecommons.org/ns#" xmlns:rdf="http://www.w3.org/1999/02/22-rdf-syntax-ns#">
   <cc:Work>
    <dc:type rdf:resource="http://purl.org/dc/dcmitype/StillImage"/>
    <dc:date>2024-03-23T11:20:46.022385</dc:date>
    <dc:format>image/svg+xml</dc:format>
    <dc:creator>
     <cc:Agent>
      <dc:title>Matplotlib v3.7.2, https://matplotlib.org/</dc:title>
     </cc:Agent>
    </dc:creator>
   </cc:Work>
  </rdf:RDF>
 </metadata>
 <defs>
  <style type="text/css">*{stroke-linejoin: round; stroke-linecap: butt}</style>
 </defs>
 <g id="figure_1">
  <g id="patch_1">
   <path d="M 0 345.6 
L 460.8 345.6 
L 460.8 0 
L 0 0 
z
" style="fill: #ffffff"/>
  </g>
  <g id="axes_1">
   <g id="patch_2">
    <path d="M 57.6 307.584 
L 414.72 307.584 
L 414.72 41.472 
L 57.6 41.472 
z
" style="fill: #ffffff"/>
   </g>
   <g id="matplotlib.axis_1">
    <g id="xtick_1">
     <g id="line2d_1">
      <defs>
       <path id="m428342fc29" d="M 0 0 
L 0 3.5 
" style="stroke: #000000; stroke-width: 0.8"/>
      </defs>
      <g>
       <use xlink:href="#m428342fc29" x="73.832727" y="307.584" style="stroke: #000000; stroke-width: 0.8"/>
      </g>
     </g>
     <g id="text_1">
      <!-- 0 -->
      <g transform="translate(70.651477 322.182437) scale(0.1 -0.1)">
       <defs>
        <path id="DejaVuSans-30" d="M 2034 4250 
Q 1547 4250 1301 3770 
Q 1056 3291 1056 2328 
Q 1056 1369 1301 889 
Q 1547 409 2034 409 
Q 2525 409 2770 889 
Q 3016 1369 3016 2328 
Q 3016 3291 2770 3770 
Q 2525 4250 2034 4250 
z
M 2034 4750 
Q 2819 4750 3233 4129 
Q 3647 3509 3647 2328 
Q 3647 1150 3233 529 
Q 2819 -91 2034 -91 
Q 1250 -91 836 529 
Q 422 1150 422 2328 
Q 422 3509 836 4129 
Q 1250 4750 2034 4750 
z
" transform="scale(0.015625)"/>
       </defs>
       <use xlink:href="#DejaVuSans-30"/>
      </g>
     </g>
    </g>
    <g id="xtick_2">
     <g id="line2d_2">
      <g>
       <use xlink:href="#m428342fc29" x="137.241818" y="307.584" style="stroke: #000000; stroke-width: 0.8"/>
      </g>
     </g>
     <g id="text_2">
      <!-- 200 -->
      <g transform="translate(127.698068 322.182437) scale(0.1 -0.1)">
       <defs>
        <path id="DejaVuSans-32" d="M 1228 531 
L 3431 531 
L 3431 0 
L 469 0 
L 469 531 
Q 828 903 1448 1529 
Q 2069 2156 2228 2338 
Q 2531 2678 2651 2914 
Q 2772 3150 2772 3378 
Q 2772 3750 2511 3984 
Q 2250 4219 1831 4219 
Q 1534 4219 1204 4116 
Q 875 4013 500 3803 
L 500 4441 
Q 881 4594 1212 4672 
Q 1544 4750 1819 4750 
Q 2544 4750 2975 4387 
Q 3406 4025 3406 3419 
Q 3406 3131 3298 2873 
Q 3191 2616 2906 2266 
Q 2828 2175 2409 1742 
Q 1991 1309 1228 531 
z
" transform="scale(0.015625)"/>
       </defs>
       <use xlink:href="#DejaVuSans-32"/>
       <use xlink:href="#DejaVuSans-30" x="63.623047"/>
       <use xlink:href="#DejaVuSans-30" x="127.246094"/>
      </g>
     </g>
    </g>
    <g id="xtick_3">
     <g id="line2d_3">
      <g>
       <use xlink:href="#m428342fc29" x="200.650909" y="307.584" style="stroke: #000000; stroke-width: 0.8"/>
      </g>
     </g>
     <g id="text_3">
      <!-- 400 -->
      <g transform="translate(191.107159 322.182437) scale(0.1 -0.1)">
       <defs>
        <path id="DejaVuSans-34" d="M 2419 4116 
L 825 1625 
L 2419 1625 
L 2419 4116 
z
M 2253 4666 
L 3047 4666 
L 3047 1625 
L 3713 1625 
L 3713 1100 
L 3047 1100 
L 3047 0 
L 2419 0 
L 2419 1100 
L 313 1100 
L 313 1709 
L 2253 4666 
z
" transform="scale(0.015625)"/>
       </defs>
       <use xlink:href="#DejaVuSans-34"/>
       <use xlink:href="#DejaVuSans-30" x="63.623047"/>
       <use xlink:href="#DejaVuSans-30" x="127.246094"/>
      </g>
     </g>
    </g>
    <g id="xtick_4">
     <g id="line2d_4">
      <g>
       <use xlink:href="#m428342fc29" x="264.06" y="307.584" style="stroke: #000000; stroke-width: 0.8"/>
      </g>
     </g>
     <g id="text_4">
      <!-- 600 -->
      <g transform="translate(254.51625 322.182437) scale(0.1 -0.1)">
       <defs>
        <path id="DejaVuSans-36" d="M 2113 2584 
Q 1688 2584 1439 2293 
Q 1191 2003 1191 1497 
Q 1191 994 1439 701 
Q 1688 409 2113 409 
Q 2538 409 2786 701 
Q 3034 994 3034 1497 
Q 3034 2003 2786 2293 
Q 2538 2584 2113 2584 
z
M 3366 4563 
L 3366 3988 
Q 3128 4100 2886 4159 
Q 2644 4219 2406 4219 
Q 1781 4219 1451 3797 
Q 1122 3375 1075 2522 
Q 1259 2794 1537 2939 
Q 1816 3084 2150 3084 
Q 2853 3084 3261 2657 
Q 3669 2231 3669 1497 
Q 3669 778 3244 343 
Q 2819 -91 2113 -91 
Q 1303 -91 875 529 
Q 447 1150 447 2328 
Q 447 3434 972 4092 
Q 1497 4750 2381 4750 
Q 2619 4750 2861 4703 
Q 3103 4656 3366 4563 
z
" transform="scale(0.015625)"/>
       </defs>
       <use xlink:href="#DejaVuSans-36"/>
       <use xlink:href="#DejaVuSans-30" x="63.623047"/>
       <use xlink:href="#DejaVuSans-30" x="127.246094"/>
      </g>
     </g>
    </g>
    <g id="xtick_5">
     <g id="line2d_5">
      <g>
       <use xlink:href="#m428342fc29" x="327.469091" y="307.584" style="stroke: #000000; stroke-width: 0.8"/>
      </g>
     </g>
     <g id="text_5">
      <!-- 800 -->
      <g transform="translate(317.925341 322.182437) scale(0.1 -0.1)">
       <defs>
        <path id="DejaVuSans-38" d="M 2034 2216 
Q 1584 2216 1326 1975 
Q 1069 1734 1069 1313 
Q 1069 891 1326 650 
Q 1584 409 2034 409 
Q 2484 409 2743 651 
Q 3003 894 3003 1313 
Q 3003 1734 2745 1975 
Q 2488 2216 2034 2216 
z
M 1403 2484 
Q 997 2584 770 2862 
Q 544 3141 544 3541 
Q 544 4100 942 4425 
Q 1341 4750 2034 4750 
Q 2731 4750 3128 4425 
Q 3525 4100 3525 3541 
Q 3525 3141 3298 2862 
Q 3072 2584 2669 2484 
Q 3125 2378 3379 2068 
Q 3634 1759 3634 1313 
Q 3634 634 3220 271 
Q 2806 -91 2034 -91 
Q 1263 -91 848 271 
Q 434 634 434 1313 
Q 434 1759 690 2068 
Q 947 2378 1403 2484 
z
M 1172 3481 
Q 1172 3119 1398 2916 
Q 1625 2713 2034 2713 
Q 2441 2713 2670 2916 
Q 2900 3119 2900 3481 
Q 2900 3844 2670 4047 
Q 2441 4250 2034 4250 
Q 1625 4250 1398 4047 
Q 1172 3844 1172 3481 
z
" transform="scale(0.015625)"/>
       </defs>
       <use xlink:href="#DejaVuSans-38"/>
       <use xlink:href="#DejaVuSans-30" x="63.623047"/>
       <use xlink:href="#DejaVuSans-30" x="127.246094"/>
      </g>
     </g>
    </g>
    <g id="xtick_6">
     <g id="line2d_6">
      <g>
       <use xlink:href="#m428342fc29" x="390.878182" y="307.584" style="stroke: #000000; stroke-width: 0.8"/>
      </g>
     </g>
     <g id="text_6">
      <!-- 1000 -->
      <g transform="translate(378.153182 322.182437) scale(0.1 -0.1)">
       <defs>
        <path id="DejaVuSans-31" d="M 794 531 
L 1825 531 
L 1825 4091 
L 703 3866 
L 703 4441 
L 1819 4666 
L 2450 4666 
L 2450 531 
L 3481 531 
L 3481 0 
L 794 0 
L 794 531 
z
" transform="scale(0.015625)"/>
       </defs>
       <use xlink:href="#DejaVuSans-31"/>
       <use xlink:href="#DejaVuSans-30" x="63.623047"/>
       <use xlink:href="#DejaVuSans-30" x="127.246094"/>
       <use xlink:href="#DejaVuSans-30" x="190.869141"/>
      </g>
     </g>
    </g>
    <g id="text_7">
     <!-- Sequence Length -->
     <g transform="translate(192.659219 335.860562) scale(0.1 -0.1)">
      <defs>
       <path id="DejaVuSans-53" d="M 3425 4513 
L 3425 3897 
Q 3066 4069 2747 4153 
Q 2428 4238 2131 4238 
Q 1616 4238 1336 4038 
Q 1056 3838 1056 3469 
Q 1056 3159 1242 3001 
Q 1428 2844 1947 2747 
L 2328 2669 
Q 3034 2534 3370 2195 
Q 3706 1856 3706 1288 
Q 3706 609 3251 259 
Q 2797 -91 1919 -91 
Q 1588 -91 1214 -16 
Q 841 59 441 206 
L 441 856 
Q 825 641 1194 531 
Q 1563 422 1919 422 
Q 2459 422 2753 634 
Q 3047 847 3047 1241 
Q 3047 1584 2836 1778 
Q 2625 1972 2144 2069 
L 1759 2144 
Q 1053 2284 737 2584 
Q 422 2884 422 3419 
Q 422 4038 858 4394 
Q 1294 4750 2059 4750 
Q 2388 4750 2728 4690 
Q 3069 4631 3425 4513 
z
" transform="scale(0.015625)"/>
       <path id="DejaVuSans-65" d="M 3597 1894 
L 3597 1613 
L 953 1613 
Q 991 1019 1311 708 
Q 1631 397 2203 397 
Q 2534 397 2845 478 
Q 3156 559 3463 722 
L 3463 178 
Q 3153 47 2828 -22 
Q 2503 -91 2169 -91 
Q 1331 -91 842 396 
Q 353 884 353 1716 
Q 353 2575 817 3079 
Q 1281 3584 2069 3584 
Q 2775 3584 3186 3129 
Q 3597 2675 3597 1894 
z
M 3022 2063 
Q 3016 2534 2758 2815 
Q 2500 3097 2075 3097 
Q 1594 3097 1305 2825 
Q 1016 2553 972 2059 
L 3022 2063 
z
" transform="scale(0.015625)"/>
       <path id="DejaVuSans-71" d="M 947 1747 
Q 947 1113 1208 752 
Q 1469 391 1925 391 
Q 2381 391 2643 752 
Q 2906 1113 2906 1747 
Q 2906 2381 2643 2742 
Q 2381 3103 1925 3103 
Q 1469 3103 1208 2742 
Q 947 2381 947 1747 
z
M 2906 525 
Q 2725 213 2448 61 
Q 2172 -91 1784 -91 
Q 1150 -91 751 415 
Q 353 922 353 1747 
Q 353 2572 751 3078 
Q 1150 3584 1784 3584 
Q 2172 3584 2448 3432 
Q 2725 3281 2906 2969 
L 2906 3500 
L 3481 3500 
L 3481 -1331 
L 2906 -1331 
L 2906 525 
z
" transform="scale(0.015625)"/>
       <path id="DejaVuSans-75" d="M 544 1381 
L 544 3500 
L 1119 3500 
L 1119 1403 
Q 1119 906 1312 657 
Q 1506 409 1894 409 
Q 2359 409 2629 706 
Q 2900 1003 2900 1516 
L 2900 3500 
L 3475 3500 
L 3475 0 
L 2900 0 
L 2900 538 
Q 2691 219 2414 64 
Q 2138 -91 1772 -91 
Q 1169 -91 856 284 
Q 544 659 544 1381 
z
M 1991 3584 
L 1991 3584 
z
" transform="scale(0.015625)"/>
       <path id="DejaVuSans-6e" d="M 3513 2113 
L 3513 0 
L 2938 0 
L 2938 2094 
Q 2938 2591 2744 2837 
Q 2550 3084 2163 3084 
Q 1697 3084 1428 2787 
Q 1159 2491 1159 1978 
L 1159 0 
L 581 0 
L 581 3500 
L 1159 3500 
L 1159 2956 
Q 1366 3272 1645 3428 
Q 1925 3584 2291 3584 
Q 2894 3584 3203 3211 
Q 3513 2838 3513 2113 
z
" transform="scale(0.015625)"/>
       <path id="DejaVuSans-63" d="M 3122 3366 
L 3122 2828 
Q 2878 2963 2633 3030 
Q 2388 3097 2138 3097 
Q 1578 3097 1268 2742 
Q 959 2388 959 1747 
Q 959 1106 1268 751 
Q 1578 397 2138 397 
Q 2388 397 2633 464 
Q 2878 531 3122 666 
L 3122 134 
Q 2881 22 2623 -34 
Q 2366 -91 2075 -91 
Q 1284 -91 818 406 
Q 353 903 353 1747 
Q 353 2603 823 3093 
Q 1294 3584 2113 3584 
Q 2378 3584 2631 3529 
Q 2884 3475 3122 3366 
z
" transform="scale(0.015625)"/>
       <path id="DejaVuSans-20" transform="scale(0.015625)"/>
       <path id="DejaVuSans-4c" d="M 628 4666 
L 1259 4666 
L 1259 531 
L 3531 531 
L 3531 0 
L 628 0 
L 628 4666 
z
" transform="scale(0.015625)"/>
       <path id="DejaVuSans-67" d="M 2906 1791 
Q 2906 2416 2648 2759 
Q 2391 3103 1925 3103 
Q 1463 3103 1205 2759 
Q 947 2416 947 1791 
Q 947 1169 1205 825 
Q 1463 481 1925 481 
Q 2391 481 2648 825 
Q 2906 1169 2906 1791 
z
M 3481 434 
Q 3481 -459 3084 -895 
Q 2688 -1331 1869 -1331 
Q 1566 -1331 1297 -1286 
Q 1028 -1241 775 -1147 
L 775 -588 
Q 1028 -725 1275 -790 
Q 1522 -856 1778 -856 
Q 2344 -856 2625 -561 
Q 2906 -266 2906 331 
L 2906 616 
Q 2728 306 2450 153 
Q 2172 0 1784 0 
Q 1141 0 747 490 
Q 353 981 353 1791 
Q 353 2603 747 3093 
Q 1141 3584 1784 3584 
Q 2172 3584 2450 3431 
Q 2728 3278 2906 2969 
L 2906 3500 
L 3481 3500 
L 3481 434 
z
" transform="scale(0.015625)"/>
       <path id="DejaVuSans-74" d="M 1172 4494 
L 1172 3500 
L 2356 3500 
L 2356 3053 
L 1172 3053 
L 1172 1153 
Q 1172 725 1289 603 
Q 1406 481 1766 481 
L 2356 481 
L 2356 0 
L 1766 0 
Q 1100 0 847 248 
Q 594 497 594 1153 
L 594 3053 
L 172 3053 
L 172 3500 
L 594 3500 
L 594 4494 
L 1172 4494 
z
" transform="scale(0.015625)"/>
       <path id="DejaVuSans-68" d="M 3513 2113 
L 3513 0 
L 2938 0 
L 2938 2094 
Q 2938 2591 2744 2837 
Q 2550 3084 2163 3084 
Q 1697 3084 1428 2787 
Q 1159 2491 1159 1978 
L 1159 0 
L 581 0 
L 581 4863 
L 1159 4863 
L 1159 2956 
Q 1366 3272 1645 3428 
Q 1925 3584 2291 3584 
Q 2894 3584 3203 3211 
Q 3513 2838 3513 2113 
z
" transform="scale(0.015625)"/>
      </defs>
      <use xlink:href="#DejaVuSans-53"/>
      <use xlink:href="#DejaVuSans-65" x="63.476562"/>
      <use xlink:href="#DejaVuSans-71" x="125"/>
      <use xlink:href="#DejaVuSans-75" x="188.476562"/>
      <use xlink:href="#DejaVuSans-65" x="251.855469"/>
      <use xlink:href="#DejaVuSans-6e" x="313.378906"/>
      <use xlink:href="#DejaVuSans-63" x="376.757812"/>
      <use xlink:href="#DejaVuSans-65" x="431.738281"/>
      <use xlink:href="#DejaVuSans-20" x="493.261719"/>
      <use xlink:href="#DejaVuSans-4c" x="525.048828"/>
      <use xlink:href="#DejaVuSans-65" x="579.011719"/>
      <use xlink:href="#DejaVuSans-6e" x="640.535156"/>
      <use xlink:href="#DejaVuSans-67" x="703.914062"/>
      <use xlink:href="#DejaVuSans-74" x="767.390625"/>
      <use xlink:href="#DejaVuSans-68" x="806.599609"/>
     </g>
    </g>
   </g>
   <g id="matplotlib.axis_2">
    <g id="ytick_1">
     <g id="line2d_7">
      <defs>
       <path id="m18eaec9224" d="M 0 0 
L -3.5 0 
" style="stroke: #000000; stroke-width: 0.8"/>
      </defs>
      <g>
       <use xlink:href="#m18eaec9224" x="57.6" y="299.823484" style="stroke: #000000; stroke-width: 0.8"/>
      </g>
     </g>
     <g id="text_8">
      <!-- 0 -->
      <g transform="translate(44.2375 303.622703) scale(0.1 -0.1)">
       <use xlink:href="#DejaVuSans-30"/>
      </g>
     </g>
    </g>
    <g id="ytick_2">
     <g id="line2d_8">
      <g>
       <use xlink:href="#m18eaec9224" x="57.6" y="256.468645" style="stroke: #000000; stroke-width: 0.8"/>
      </g>
     </g>
     <g id="text_9">
      <!-- 200 -->
      <g transform="translate(31.5125 260.267864) scale(0.1 -0.1)">
       <use xlink:href="#DejaVuSans-32"/>
       <use xlink:href="#DejaVuSans-30" x="63.623047"/>
       <use xlink:href="#DejaVuSans-30" x="127.246094"/>
      </g>
     </g>
    </g>
    <g id="ytick_3">
     <g id="line2d_9">
      <g>
       <use xlink:href="#m18eaec9224" x="57.6" y="213.113806" style="stroke: #000000; stroke-width: 0.8"/>
      </g>
     </g>
     <g id="text_10">
      <!-- 400 -->
      <g transform="translate(31.5125 216.913025) scale(0.1 -0.1)">
       <use xlink:href="#DejaVuSans-34"/>
       <use xlink:href="#DejaVuSans-30" x="63.623047"/>
       <use xlink:href="#DejaVuSans-30" x="127.246094"/>
      </g>
     </g>
    </g>
    <g id="ytick_4">
     <g id="line2d_10">
      <g>
       <use xlink:href="#m18eaec9224" x="57.6" y="169.758968" style="stroke: #000000; stroke-width: 0.8"/>
      </g>
     </g>
     <g id="text_11">
      <!-- 600 -->
      <g transform="translate(31.5125 173.558186) scale(0.1 -0.1)">
       <use xlink:href="#DejaVuSans-36"/>
       <use xlink:href="#DejaVuSans-30" x="63.623047"/>
       <use xlink:href="#DejaVuSans-30" x="127.246094"/>
      </g>
     </g>
    </g>
    <g id="ytick_5">
     <g id="line2d_11">
      <g>
       <use xlink:href="#m18eaec9224" x="57.6" y="126.404129" style="stroke: #000000; stroke-width: 0.8"/>
      </g>
     </g>
     <g id="text_12">
      <!-- 800 -->
      <g transform="translate(31.5125 130.203348) scale(0.1 -0.1)">
       <use xlink:href="#DejaVuSans-38"/>
       <use xlink:href="#DejaVuSans-30" x="63.623047"/>
       <use xlink:href="#DejaVuSans-30" x="127.246094"/>
      </g>
     </g>
    </g>
    <g id="ytick_6">
     <g id="line2d_12">
      <g>
       <use xlink:href="#m18eaec9224" x="57.6" y="83.04929" style="stroke: #000000; stroke-width: 0.8"/>
      </g>
     </g>
     <g id="text_13">
      <!-- 1000 -->
      <g transform="translate(25.15 86.848509) scale(0.1 -0.1)">
       <use xlink:href="#DejaVuSans-31"/>
       <use xlink:href="#DejaVuSans-30" x="63.623047"/>
       <use xlink:href="#DejaVuSans-30" x="127.246094"/>
       <use xlink:href="#DejaVuSans-30" x="190.869141"/>
      </g>
     </g>
    </g>
    <g id="text_14">
     <!-- Object Size (bytes) -->
     <g transform="translate(19.070312 221.931906) rotate(-90) scale(0.1 -0.1)">
      <defs>
       <path id="DejaVuSans-4f" d="M 2522 4238 
Q 1834 4238 1429 3725 
Q 1025 3213 1025 2328 
Q 1025 1447 1429 934 
Q 1834 422 2522 422 
Q 3209 422 3611 934 
Q 4013 1447 4013 2328 
Q 4013 3213 3611 3725 
Q 3209 4238 2522 4238 
z
M 2522 4750 
Q 3503 4750 4090 4092 
Q 4678 3434 4678 2328 
Q 4678 1225 4090 567 
Q 3503 -91 2522 -91 
Q 1538 -91 948 565 
Q 359 1222 359 2328 
Q 359 3434 948 4092 
Q 1538 4750 2522 4750 
z
" transform="scale(0.015625)"/>
       <path id="DejaVuSans-62" d="M 3116 1747 
Q 3116 2381 2855 2742 
Q 2594 3103 2138 3103 
Q 1681 3103 1420 2742 
Q 1159 2381 1159 1747 
Q 1159 1113 1420 752 
Q 1681 391 2138 391 
Q 2594 391 2855 752 
Q 3116 1113 3116 1747 
z
M 1159 2969 
Q 1341 3281 1617 3432 
Q 1894 3584 2278 3584 
Q 2916 3584 3314 3078 
Q 3713 2572 3713 1747 
Q 3713 922 3314 415 
Q 2916 -91 2278 -91 
Q 1894 -91 1617 61 
Q 1341 213 1159 525 
L 1159 0 
L 581 0 
L 581 4863 
L 1159 4863 
L 1159 2969 
z
" transform="scale(0.015625)"/>
       <path id="DejaVuSans-6a" d="M 603 3500 
L 1178 3500 
L 1178 -63 
Q 1178 -731 923 -1031 
Q 669 -1331 103 -1331 
L -116 -1331 
L -116 -844 
L 38 -844 
Q 366 -844 484 -692 
Q 603 -541 603 -63 
L 603 3500 
z
M 603 4863 
L 1178 4863 
L 1178 4134 
L 603 4134 
L 603 4863 
z
" transform="scale(0.015625)"/>
       <path id="DejaVuSans-69" d="M 603 3500 
L 1178 3500 
L 1178 0 
L 603 0 
L 603 3500 
z
M 603 4863 
L 1178 4863 
L 1178 4134 
L 603 4134 
L 603 4863 
z
" transform="scale(0.015625)"/>
       <path id="DejaVuSans-7a" d="M 353 3500 
L 3084 3500 
L 3084 2975 
L 922 459 
L 3084 459 
L 3084 0 
L 275 0 
L 275 525 
L 2438 3041 
L 353 3041 
L 353 3500 
z
" transform="scale(0.015625)"/>
       <path id="DejaVuSans-28" d="M 1984 4856 
Q 1566 4138 1362 3434 
Q 1159 2731 1159 2009 
Q 1159 1288 1364 580 
Q 1569 -128 1984 -844 
L 1484 -844 
Q 1016 -109 783 600 
Q 550 1309 550 2009 
Q 550 2706 781 3412 
Q 1013 4119 1484 4856 
L 1984 4856 
z
" transform="scale(0.015625)"/>
       <path id="DejaVuSans-79" d="M 2059 -325 
Q 1816 -950 1584 -1140 
Q 1353 -1331 966 -1331 
L 506 -1331 
L 506 -850 
L 844 -850 
Q 1081 -850 1212 -737 
Q 1344 -625 1503 -206 
L 1606 56 
L 191 3500 
L 800 3500 
L 1894 763 
L 2988 3500 
L 3597 3500 
L 2059 -325 
z
" transform="scale(0.015625)"/>
       <path id="DejaVuSans-73" d="M 2834 3397 
L 2834 2853 
Q 2591 2978 2328 3040 
Q 2066 3103 1784 3103 
Q 1356 3103 1142 2972 
Q 928 2841 928 2578 
Q 928 2378 1081 2264 
Q 1234 2150 1697 2047 
L 1894 2003 
Q 2506 1872 2764 1633 
Q 3022 1394 3022 966 
Q 3022 478 2636 193 
Q 2250 -91 1575 -91 
Q 1294 -91 989 -36 
Q 684 19 347 128 
L 347 722 
Q 666 556 975 473 
Q 1284 391 1588 391 
Q 1994 391 2212 530 
Q 2431 669 2431 922 
Q 2431 1156 2273 1281 
Q 2116 1406 1581 1522 
L 1381 1569 
Q 847 1681 609 1914 
Q 372 2147 372 2553 
Q 372 3047 722 3315 
Q 1072 3584 1716 3584 
Q 2034 3584 2315 3537 
Q 2597 3491 2834 3397 
z
" transform="scale(0.015625)"/>
       <path id="DejaVuSans-29" d="M 513 4856 
L 1013 4856 
Q 1481 4119 1714 3412 
Q 1947 2706 1947 2009 
Q 1947 1309 1714 600 
Q 1481 -109 1013 -844 
L 513 -844 
Q 928 -128 1133 580 
Q 1338 1288 1338 2009 
Q 1338 2731 1133 3434 
Q 928 4138 513 4856 
z
" transform="scale(0.015625)"/>
      </defs>
      <use xlink:href="#DejaVuSans-4f"/>
      <use xlink:href="#DejaVuSans-62" x="78.710938"/>
      <use xlink:href="#DejaVuSans-6a" x="142.1875"/>
      <use xlink:href="#DejaVuSans-65" x="169.970703"/>
      <use xlink:href="#DejaVuSans-63" x="231.494141"/>
      <use xlink:href="#DejaVuSans-74" x="286.474609"/>
      <use xlink:href="#DejaVuSans-20" x="325.683594"/>
      <use xlink:href="#DejaVuSans-53" x="357.470703"/>
      <use xlink:href="#DejaVuSans-69" x="420.947266"/>
      <use xlink:href="#DejaVuSans-7a" x="448.730469"/>
      <use xlink:href="#DejaVuSans-65" x="501.220703"/>
      <use xlink:href="#DejaVuSans-20" x="562.744141"/>
      <use xlink:href="#DejaVuSans-28" x="594.53125"/>
      <use xlink:href="#DejaVuSans-62" x="633.544922"/>
      <use xlink:href="#DejaVuSans-79" x="697.021484"/>
      <use xlink:href="#DejaVuSans-74" x="756.201172"/>
      <use xlink:href="#DejaVuSans-65" x="795.410156"/>
      <use xlink:href="#DejaVuSans-73" x="856.933594"/>
      <use xlink:href="#DejaVuSans-29" x="909.033203"/>
     </g>
    </g>
   </g>
   <g id="line2d_13">
    <path d="M 73.832727 292.88671 
L 83.978182 292.88671 
L 84.295227 289.418323 
L 104.269091 289.418323 
L 104.586136 285.949935 
L 114.414545 285.949935 
L 114.731591 284.215742 
L 124.56 284.215742 
L 124.877045 282.481548 
L 134.705455 282.481548 
L 135.0225 280.747355 
L 144.850909 280.747355 
L 145.167955 279.013161 
L 154.996364 279.013161 
L 155.313409 277.278968 
L 165.141818 277.278968 
L 165.458864 275.544774 
L 175.287273 275.544774 
L 175.604318 273.810581 
L 185.432727 273.810581 
L 185.749773 272.076387 
L 195.578182 272.076387 
L 195.895227 270.342194 
L 205.723636 270.342194 
L 206.040682 268.608 
L 215.869091 268.608 
L 216.186136 266.873806 
L 226.014545 266.873806 
L 226.331591 265.139613 
L 236.16 265.139613 
L 236.477045 263.405419 
L 246.305455 263.405419 
L 246.6225 261.671226 
L 256.450909 261.671226 
L 256.767955 259.937032 
L 266.596364 259.937032 
L 266.913409 258.202839 
L 276.741818 258.202839 
L 277.058864 256.468645 
L 286.887273 256.468645 
L 287.204318 254.734452 
L 297.032727 254.734452 
L 297.349773 253.000258 
L 307.178182 253.000258 
L 307.495227 251.266065 
L 317.323636 251.266065 
L 317.640682 249.531871 
L 327.469091 249.531871 
L 327.786136 247.797677 
L 337.614545 247.797677 
L 337.931591 246.063484 
L 347.76 246.063484 
L 348.077045 244.32929 
L 357.905455 244.32929 
L 358.2225 242.595097 
L 368.050909 242.595097 
L 368.367955 240.860903 
L 378.196364 240.860903 
L 378.513409 239.12671 
L 388.341818 239.12671 
L 388.658864 237.392516 
L 398.487273 237.392516 
L 398.487273 237.392516 
" clip-path="url(#pbba9286c37)" style="fill: none; stroke: #1f77b4; stroke-width: 1.5; stroke-linecap: square"/>
   </g>
   <g id="line2d_14">
    <path d="M 73.832727 273.810581 
L 76.369091 273.810581 
L 76.686136 272.076387 
L 78.905455 272.076387 
L 79.2225 270.342194 
L 81.441818 270.342194 
L 81.758864 268.608 
L 83.978182 268.608 
L 84.295227 266.873806 
L 86.514545 266.873806 
L 86.831591 265.139613 
L 89.050909 265.139613 
L 89.367955 263.405419 
L 91.587273 263.405419 
L 91.904318 261.671226 
L 94.123636 261.671226 
L 94.440682 259.937032 
L 96.66 259.937032 
L 96.977045 258.202839 
L 99.196364 258.202839 
L 99.513409 256.468645 
L 101.732727 256.468645 
L 102.049773 254.734452 
L 104.269091 254.734452 
L 104.586136 253.000258 
L 106.805455 253.000258 
L 107.1225 251.266065 
L 109.341818 251.266065 
L 109.658864 249.531871 
L 111.878182 249.531871 
L 112.195227 247.797677 
L 114.414545 247.797677 
L 114.731591 246.063484 
L 116.950909 246.063484 
L 117.267955 244.32929 
L 119.487273 244.32929 
L 119.804318 242.595097 
L 122.023636 242.595097 
L 122.340682 240.860903 
L 124.56 240.860903 
L 124.877045 239.12671 
L 127.096364 239.12671 
L 127.413409 237.392516 
L 129.632727 237.392516 
L 129.949773 235.658323 
L 132.169091 235.658323 
L 132.486136 233.924129 
L 134.705455 233.924129 
L 135.0225 232.189935 
L 137.241818 232.189935 
L 137.558864 230.455742 
L 139.778182 230.455742 
L 140.095227 228.721548 
L 142.314545 228.721548 
L 142.631591 226.987355 
L 144.850909 226.987355 
L 145.167955 225.253161 
L 147.387273 225.253161 
L 147.704318 223.518968 
L 149.923636 223.518968 
L 150.240682 221.784774 
L 152.46 221.784774 
L 152.777045 220.050581 
L 154.996364 220.050581 
L 155.313409 218.316387 
L 157.532727 218.316387 
L 157.849773 216.582194 
L 160.069091 216.582194 
L 160.386136 214.848 
L 162.605455 214.848 
L 162.9225 213.113806 
L 165.141818 213.113806 
L 165.458864 211.379613 
L 167.678182 211.379613 
L 167.995227 209.645419 
L 170.214545 209.645419 
L 170.531591 207.911226 
L 172.750909 207.911226 
L 173.067955 206.177032 
L 175.287273 206.177032 
L 175.604318 204.442839 
L 177.823636 204.442839 
L 178.140682 202.708645 
L 180.36 202.708645 
L 180.677045 200.974452 
L 182.896364 200.974452 
L 183.213409 199.240258 
L 185.432727 199.240258 
L 185.749773 197.506065 
L 187.969091 197.506065 
L 188.286136 195.771871 
L 190.505455 195.771871 
L 190.8225 194.037677 
L 193.041818 194.037677 
L 193.358864 192.303484 
L 195.578182 192.303484 
L 195.895227 190.56929 
L 198.114545 190.56929 
L 198.431591 188.835097 
L 200.650909 188.835097 
L 200.967955 187.100903 
L 203.187273 187.100903 
L 203.504318 185.36671 
L 205.723636 185.36671 
L 206.040682 183.632516 
L 208.26 183.632516 
L 208.577045 181.898323 
L 210.796364 181.898323 
L 211.113409 180.164129 
L 213.332727 180.164129 
L 213.649773 178.429935 
L 215.869091 178.429935 
L 216.186136 176.695742 
L 218.405455 176.695742 
L 218.7225 174.961548 
L 220.941818 174.961548 
L 221.258864 173.227355 
L 223.478182 173.227355 
L 223.795227 171.493161 
L 226.014545 171.493161 
L 226.331591 169.758968 
L 228.550909 169.758968 
L 228.867955 168.024774 
L 231.087273 168.024774 
L 231.404318 166.290581 
L 233.623636 166.290581 
L 233.940682 164.556387 
L 236.16 164.556387 
L 236.477045 162.822194 
L 238.696364 162.822194 
L 239.013409 161.088 
L 241.232727 161.088 
L 241.549773 159.353806 
L 243.769091 159.353806 
L 244.086136 157.619613 
L 246.305455 157.619613 
L 246.6225 155.885419 
L 248.841818 155.885419 
L 249.158864 154.151226 
L 251.378182 154.151226 
L 251.695227 152.417032 
L 253.914545 152.417032 
L 254.231591 150.682839 
L 256.450909 150.682839 
L 256.767955 148.948645 
L 258.987273 148.948645 
L 259.304318 147.214452 
L 261.523636 147.214452 
L 261.840682 145.480258 
L 264.06 145.480258 
L 264.377045 143.746065 
L 266.596364 143.746065 
L 266.913409 142.011871 
L 269.132727 142.011871 
L 269.449773 140.277677 
L 271.669091 140.277677 
L 271.986136 138.543484 
L 274.205455 138.543484 
L 274.5225 136.80929 
L 276.741818 136.80929 
L 277.058864 135.075097 
L 279.278182 135.075097 
L 279.595227 133.340903 
L 281.814545 133.340903 
L 282.131591 131.60671 
L 284.350909 131.60671 
L 284.667955 129.872516 
L 286.887273 129.872516 
L 287.204318 128.138323 
L 289.423636 128.138323 
L 289.740682 126.404129 
L 291.96 126.404129 
L 292.277045 124.669935 
L 294.496364 124.669935 
L 294.813409 122.935742 
L 297.032727 122.935742 
L 297.349773 121.201548 
L 299.569091 121.201548 
L 299.886136 119.467355 
L 302.105455 119.467355 
L 302.4225 117.733161 
L 304.641818 117.733161 
L 304.958864 115.998968 
L 307.178182 115.998968 
L 307.495227 114.264774 
L 309.714545 114.264774 
L 310.031591 112.530581 
L 312.250909 112.530581 
L 312.567955 110.796387 
L 314.787273 110.796387 
L 315.104318 109.062194 
L 317.323636 109.062194 
L 317.640682 107.328 
L 319.86 107.328 
L 320.177045 105.593806 
L 322.396364 105.593806 
L 322.713409 103.859613 
L 324.932727 103.859613 
L 325.249773 102.125419 
L 327.469091 102.125419 
L 327.786136 100.391226 
L 330.005455 100.391226 
L 330.3225 98.657032 
L 332.541818 98.657032 
L 332.858864 96.922839 
L 335.078182 96.922839 
L 335.395227 95.188645 
L 337.614545 95.188645 
L 337.931591 93.454452 
L 340.150909 93.454452 
L 340.467955 91.720258 
L 342.687273 91.720258 
L 343.004318 89.986065 
L 345.223636 89.986065 
L 345.540682 88.251871 
L 347.76 88.251871 
L 348.077045 86.517677 
L 350.296364 86.517677 
L 350.613409 84.783484 
L 352.832727 84.783484 
L 353.149773 83.04929 
L 355.369091 83.04929 
L 355.686136 81.315097 
L 357.905455 81.315097 
L 358.2225 79.580903 
L 360.441818 79.580903 
L 360.758864 77.84671 
L 362.978182 77.84671 
L 363.295227 76.112516 
L 365.514545 76.112516 
L 365.831591 74.378323 
L 368.050909 74.378323 
L 368.367955 72.644129 
L 370.587273 72.644129 
L 370.904318 70.909935 
L 373.123636 70.909935 
L 373.440682 69.175742 
L 375.66 69.175742 
L 375.977045 67.441548 
L 378.196364 67.441548 
L 378.513409 65.707355 
L 380.732727 65.707355 
L 381.049773 63.973161 
L 383.269091 63.973161 
L 383.586136 62.238968 
L 385.805455 62.238968 
L 386.1225 60.504774 
L 388.341818 60.504774 
L 388.658864 58.770581 
L 390.878182 58.770581 
L 391.195227 57.036387 
L 393.414545 57.036387 
L 393.731591 55.302194 
L 395.950909 55.302194 
L 396.267955 53.568 
L 398.487273 53.568 
L 398.487273 53.568 
" clip-path="url(#pbba9286c37)" style="fill: none; stroke: #ff7f0e; stroke-width: 1.5; stroke-linecap: square"/>
   </g>
   <g id="line2d_15">
    <path d="M 73.832727 287.684129 
L 75.100909 287.684129 
L 75.417955 285.949935 
L 77.637273 285.949935 
L 77.954318 284.215742 
L 80.173636 284.215742 
L 80.490682 282.481548 
L 82.71 282.481548 
L 83.027045 280.747355 
L 85.246364 280.747355 
L 85.563409 279.013161 
L 87.782727 279.013161 
L 88.099773 277.278968 
L 90.319091 277.278968 
L 90.636136 275.544774 
L 92.855455 275.544774 
L 93.1725 273.810581 
L 95.391818 273.810581 
L 95.708864 272.076387 
L 97.928182 272.076387 
L 98.245227 270.342194 
L 100.464545 270.342194 
L 100.781591 268.608 
L 103.000909 268.608 
L 103.317955 266.873806 
L 105.537273 266.873806 
L 105.854318 265.139613 
L 108.073636 265.139613 
L 108.390682 263.405419 
L 110.61 263.405419 
L 110.927045 261.671226 
L 113.146364 261.671226 
L 113.463409 259.937032 
L 115.682727 259.937032 
L 115.999773 258.202839 
L 118.219091 258.202839 
L 118.536136 256.468645 
L 120.755455 256.468645 
L 121.0725 254.734452 
L 123.291818 254.734452 
L 123.608864 253.000258 
L 125.828182 253.000258 
L 126.145227 251.266065 
L 128.364545 251.266065 
L 128.681591 249.531871 
L 130.900909 249.531871 
L 131.217955 247.797677 
L 133.437273 247.797677 
L 133.754318 246.063484 
L 135.973636 246.063484 
L 136.290682 244.32929 
L 138.51 244.32929 
L 138.827045 242.595097 
L 141.046364 242.595097 
L 141.363409 240.860903 
L 143.582727 240.860903 
L 143.899773 239.12671 
L 146.119091 239.12671 
L 146.436136 237.392516 
L 148.655455 237.392516 
L 148.9725 235.658323 
L 151.191818 235.658323 
L 151.508864 233.924129 
L 153.728182 233.924129 
L 154.045227 232.189935 
L 156.264545 232.189935 
L 156.581591 230.455742 
L 158.800909 230.455742 
L 159.117955 228.721548 
L 161.337273 228.721548 
L 161.654318 226.987355 
L 163.873636 226.987355 
L 164.190682 225.253161 
L 166.41 225.253161 
L 166.727045 223.518968 
L 168.946364 223.518968 
L 169.263409 221.784774 
L 171.482727 221.784774 
L 171.799773 220.050581 
L 174.019091 220.050581 
L 174.336136 218.316387 
L 176.555455 218.316387 
L 176.8725 216.582194 
L 179.091818 216.582194 
L 179.408864 214.848 
L 181.628182 214.848 
L 181.945227 213.113806 
L 184.164545 213.113806 
L 184.481591 211.379613 
L 186.700909 211.379613 
L 187.017955 209.645419 
L 189.237273 209.645419 
L 189.554318 207.911226 
L 191.773636 207.911226 
L 192.090682 206.177032 
L 194.31 206.177032 
L 194.627045 204.442839 
L 196.846364 204.442839 
L 197.163409 202.708645 
L 199.382727 202.708645 
L 199.699773 200.974452 
L 201.919091 200.974452 
L 202.236136 199.240258 
L 204.455455 199.240258 
L 204.7725 197.506065 
L 206.991818 197.506065 
L 207.308864 195.771871 
L 209.528182 195.771871 
L 209.845227 194.037677 
L 212.064545 194.037677 
L 212.381591 192.303484 
L 214.600909 192.303484 
L 214.917955 190.56929 
L 217.137273 190.56929 
L 217.454318 188.835097 
L 219.673636 188.835097 
L 219.990682 187.100903 
L 222.21 187.100903 
L 222.527045 185.36671 
L 224.746364 185.36671 
L 225.063409 183.632516 
L 227.282727 183.632516 
L 227.599773 181.898323 
L 229.819091 181.898323 
L 230.136136 180.164129 
L 232.355455 180.164129 
L 232.6725 178.429935 
L 234.891818 178.429935 
L 235.208864 176.695742 
L 237.428182 176.695742 
L 237.745227 174.961548 
L 239.964545 174.961548 
L 240.281591 173.227355 
L 242.500909 173.227355 
L 242.817955 171.493161 
L 245.037273 171.493161 
L 245.354318 169.758968 
L 247.573636 169.758968 
L 247.890682 168.024774 
L 250.11 168.024774 
L 250.427045 166.290581 
L 252.646364 166.290581 
L 252.963409 164.556387 
L 255.182727 164.556387 
L 255.499773 162.822194 
L 257.719091 162.822194 
L 258.036136 161.088 
L 260.255455 161.088 
L 260.5725 159.353806 
L 262.791818 159.353806 
L 263.108864 157.619613 
L 265.328182 157.619613 
L 265.645227 155.885419 
L 267.864545 155.885419 
L 268.181591 154.151226 
L 270.400909 154.151226 
L 270.717955 152.417032 
L 272.937273 152.417032 
L 273.254318 150.682839 
L 275.473636 150.682839 
L 275.790682 148.948645 
L 278.01 148.948645 
L 278.327045 147.214452 
L 280.546364 147.214452 
L 280.863409 145.480258 
L 283.082727 145.480258 
L 283.399773 143.746065 
L 285.619091 143.746065 
L 285.936136 142.011871 
L 288.155455 142.011871 
L 288.4725 140.277677 
L 290.691818 140.277677 
L 291.008864 138.543484 
L 293.228182 138.543484 
L 293.545227 136.80929 
L 295.764545 136.80929 
L 296.081591 135.075097 
L 298.300909 135.075097 
L 298.617955 133.340903 
L 300.837273 133.340903 
L 301.154318 131.60671 
L 303.373636 131.60671 
L 303.690682 129.872516 
L 305.91 129.872516 
L 306.227045 128.138323 
L 308.446364 128.138323 
L 308.763409 126.404129 
L 310.982727 126.404129 
L 311.299773 124.669935 
L 313.519091 124.669935 
L 313.836136 122.935742 
L 316.055455 122.935742 
L 316.3725 121.201548 
L 318.591818 121.201548 
L 318.908864 119.467355 
L 321.128182 119.467355 
L 321.445227 117.733161 
L 323.664545 117.733161 
L 323.981591 115.998968 
L 326.200909 115.998968 
L 326.517955 114.264774 
L 328.737273 114.264774 
L 329.054318 112.530581 
L 331.273636 112.530581 
L 331.590682 110.796387 
L 333.81 110.796387 
L 334.127045 109.062194 
L 336.346364 109.062194 
L 336.663409 107.328 
L 338.882727 107.328 
L 339.199773 105.593806 
L 341.419091 105.593806 
L 341.736136 103.859613 
L 343.955455 103.859613 
L 344.2725 102.125419 
L 346.491818 102.125419 
L 346.808864 100.391226 
L 349.028182 100.391226 
L 349.345227 98.657032 
L 351.564545 98.657032 
L 351.881591 96.922839 
L 354.100909 96.922839 
L 354.417955 95.188645 
L 356.637273 95.188645 
L 356.954318 93.454452 
L 359.173636 93.454452 
L 359.490682 91.720258 
L 361.71 91.720258 
L 362.027045 89.986065 
L 364.246364 89.986065 
L 364.563409 88.251871 
L 366.782727 88.251871 
L 367.099773 86.517677 
L 369.319091 86.517677 
L 369.636136 84.783484 
L 371.855455 84.783484 
L 372.1725 83.04929 
L 374.391818 83.04929 
L 374.708864 81.315097 
L 376.928182 81.315097 
L 377.245227 79.580903 
L 379.464545 79.580903 
L 379.781591 77.84671 
L 382.000909 77.84671 
L 382.317955 76.112516 
L 384.537273 76.112516 
L 384.854318 74.378323 
L 387.073636 74.378323 
L 387.390682 72.644129 
L 389.61 72.644129 
L 389.927045 70.909935 
L 392.146364 70.909935 
L 392.463409 69.175742 
L 394.682727 69.175742 
L 394.999773 67.441548 
L 397.219091 67.441548 
L 397.536136 65.707355 
L 398.487273 65.707355 
L 398.487273 65.707355 
" clip-path="url(#pbba9286c37)" style="fill: none; stroke: #2ca02c; stroke-width: 1.5; stroke-linecap: square"/>
   </g>
   <g id="line2d_16">
    <path d="M 73.832727 291.152516 
L 76.052045 291.152516 
L 76.369091 289.418323 
L 78.588409 289.418323 
L 78.905455 287.684129 
L 81.124773 287.684129 
L 81.441818 285.949935 
L 83.661136 285.949935 
L 83.978182 284.215742 
L 86.1975 284.215742 
L 86.514545 282.481548 
L 88.733864 282.481548 
L 89.050909 280.747355 
L 91.270227 280.747355 
L 91.587273 279.013161 
L 93.806591 279.013161 
L 94.123636 277.278968 
L 96.342955 277.278968 
L 96.66 275.544774 
L 98.879318 275.544774 
L 99.196364 273.810581 
L 101.415682 273.810581 
L 101.732727 272.076387 
L 103.952045 272.076387 
L 104.269091 270.342194 
L 106.488409 270.342194 
L 106.805455 268.608 
L 109.024773 268.608 
L 109.341818 266.873806 
L 111.561136 266.873806 
L 111.878182 265.139613 
L 114.0975 265.139613 
L 114.414545 263.405419 
L 116.633864 263.405419 
L 116.950909 261.671226 
L 119.170227 261.671226 
L 119.487273 259.937032 
L 121.706591 259.937032 
L 122.023636 258.202839 
L 124.242955 258.202839 
L 124.56 256.468645 
L 126.779318 256.468645 
L 127.096364 254.734452 
L 129.315682 254.734452 
L 129.632727 253.000258 
L 131.852045 253.000258 
L 132.169091 251.266065 
L 134.388409 251.266065 
L 134.705455 249.531871 
L 136.924773 249.531871 
L 137.241818 247.797677 
L 139.461136 247.797677 
L 139.778182 246.063484 
L 141.9975 246.063484 
L 142.314545 244.32929 
L 144.533864 244.32929 
L 144.850909 242.595097 
L 147.070227 242.595097 
L 147.387273 240.860903 
L 149.606591 240.860903 
L 149.923636 239.12671 
L 152.142955 239.12671 
L 152.46 237.392516 
L 154.679318 237.392516 
L 154.996364 235.658323 
L 157.215682 235.658323 
L 157.532727 233.924129 
L 159.752045 233.924129 
L 160.069091 232.189935 
L 162.288409 232.189935 
L 162.605455 230.455742 
L 164.824773 230.455742 
L 165.141818 228.721548 
L 167.361136 228.721548 
L 167.678182 226.987355 
L 169.8975 226.987355 
L 170.214545 225.253161 
L 172.433864 225.253161 
L 172.750909 223.518968 
L 174.970227 223.518968 
L 175.287273 221.784774 
L 177.506591 221.784774 
L 177.823636 220.050581 
L 180.042955 220.050581 
L 180.36 218.316387 
L 182.579318 218.316387 
L 182.896364 216.582194 
L 185.115682 216.582194 
L 185.432727 214.848 
L 187.652045 214.848 
L 187.969091 213.113806 
L 190.188409 213.113806 
L 190.505455 211.379613 
L 192.724773 211.379613 
L 193.041818 209.645419 
L 195.261136 209.645419 
L 195.578182 207.911226 
L 197.7975 207.911226 
L 198.114545 206.177032 
L 200.333864 206.177032 
L 200.650909 204.442839 
L 202.870227 204.442839 
L 203.187273 202.708645 
L 205.406591 202.708645 
L 205.723636 200.974452 
L 207.942955 200.974452 
L 208.26 199.240258 
L 210.479318 199.240258 
L 210.796364 197.506065 
L 213.015682 197.506065 
L 213.332727 195.771871 
L 215.552045 195.771871 
L 215.869091 194.037677 
L 218.088409 194.037677 
L 218.405455 192.303484 
L 220.624773 192.303484 
L 220.941818 190.56929 
L 223.161136 190.56929 
L 223.478182 188.835097 
L 225.6975 188.835097 
L 226.014545 187.100903 
L 228.233864 187.100903 
L 228.550909 185.36671 
L 230.770227 185.36671 
L 231.087273 183.632516 
L 233.306591 183.632516 
L 233.623636 181.898323 
L 235.842955 181.898323 
L 236.16 180.164129 
L 238.379318 180.164129 
L 238.696364 178.429935 
L 240.915682 178.429935 
L 241.232727 176.695742 
L 243.452045 176.695742 
L 243.769091 174.961548 
L 245.988409 174.961548 
L 246.305455 173.227355 
L 248.524773 173.227355 
L 248.841818 171.493161 
L 251.061136 171.493161 
L 251.378182 169.758968 
L 253.5975 169.758968 
L 253.914545 168.024774 
L 256.133864 168.024774 
L 256.450909 166.290581 
L 258.670227 166.290581 
L 258.987273 164.556387 
L 261.206591 164.556387 
L 261.523636 162.822194 
L 263.742955 162.822194 
L 264.06 161.088 
L 266.279318 161.088 
L 266.596364 159.353806 
L 268.815682 159.353806 
L 269.132727 157.619613 
L 271.352045 157.619613 
L 271.669091 155.885419 
L 273.888409 155.885419 
L 274.205455 154.151226 
L 276.424773 154.151226 
L 276.741818 152.417032 
L 278.961136 152.417032 
L 279.278182 150.682839 
L 281.4975 150.682839 
L 281.814545 148.948645 
L 284.033864 148.948645 
L 284.350909 147.214452 
L 286.570227 147.214452 
L 286.887273 145.480258 
L 289.106591 145.480258 
L 289.423636 143.746065 
L 291.642955 143.746065 
L 291.96 142.011871 
L 294.179318 142.011871 
L 294.496364 140.277677 
L 296.715682 140.277677 
L 297.032727 138.543484 
L 299.252045 138.543484 
L 299.569091 136.80929 
L 301.788409 136.80929 
L 302.105455 135.075097 
L 304.324773 135.075097 
L 304.641818 133.340903 
L 306.861136 133.340903 
L 307.178182 131.60671 
L 309.3975 131.60671 
L 309.714545 129.872516 
L 311.933864 129.872516 
L 312.250909 128.138323 
L 314.470227 128.138323 
L 314.787273 126.404129 
L 317.006591 126.404129 
L 317.323636 124.669935 
L 319.542955 124.669935 
L 319.86 122.935742 
L 322.079318 122.935742 
L 322.396364 121.201548 
L 324.615682 121.201548 
L 324.932727 119.467355 
L 327.152045 119.467355 
L 327.469091 117.733161 
L 329.688409 117.733161 
L 330.005455 115.998968 
L 332.224773 115.998968 
L 332.541818 114.264774 
L 334.761136 114.264774 
L 335.078182 112.530581 
L 337.2975 112.530581 
L 337.614545 110.796387 
L 339.833864 110.796387 
L 340.150909 109.062194 
L 342.370227 109.062194 
L 342.687273 107.328 
L 344.906591 107.328 
L 345.223636 105.593806 
L 347.442955 105.593806 
L 347.76 103.859613 
L 349.979318 103.859613 
L 350.296364 102.125419 
L 352.515682 102.125419 
L 352.832727 100.391226 
L 355.052045 100.391226 
L 355.369091 98.657032 
L 357.588409 98.657032 
L 357.905455 96.922839 
L 360.124773 96.922839 
L 360.441818 95.188645 
L 362.661136 95.188645 
L 362.978182 93.454452 
L 365.1975 93.454452 
L 365.514545 91.720258 
L 367.733864 91.720258 
L 368.050909 89.986065 
L 370.270227 89.986065 
L 370.587273 88.251871 
L 372.806591 88.251871 
L 373.123636 86.517677 
L 375.342955 86.517677 
L 375.66 84.783484 
L 377.879318 84.783484 
L 378.196364 83.04929 
L 380.415682 83.04929 
L 380.732727 81.315097 
L 382.952045 81.315097 
L 383.269091 79.580903 
L 385.488409 79.580903 
L 385.805455 77.84671 
L 388.024773 77.84671 
L 388.341818 76.112516 
L 390.561136 76.112516 
L 390.878182 74.378323 
L 393.0975 74.378323 
L 393.414545 72.644129 
L 395.633864 72.644129 
L 395.950909 70.909935 
L 398.170227 70.909935 
L 398.487273 69.175742 
L 398.487273 69.175742 
" clip-path="url(#pbba9286c37)" style="fill: none; stroke: #d62728; stroke-width: 1.5; stroke-linecap: square"/>
   </g>
   <g id="line2d_17">
    <path d="M 73.832727 295.488 
L 77.954318 292.669935 
L 78.271364 293.103484 
L 78.588409 292.236387 
L 78.905455 292.453161 
L 79.2225 291.802839 
L 79.539545 292.236387 
L 79.856591 292.019613 
L 80.173636 292.019613 
L 80.490682 291.586065 
L 80.807727 291.36929 
L 81.124773 290.935742 
L 81.441818 291.36929 
L 81.758864 290.502194 
L 82.075909 290.935742 
L 82.392955 290.718968 
L 82.71 290.935742 
L 83.027045 290.068645 
L 83.344091 289.851871 
L 83.661136 289.851871 
L 83.978182 290.285419 
L 84.295227 289.851871 
L 84.612273 290.285419 
L 84.929318 289.635097 
L 85.246364 289.418323 
L 85.880455 289.418323 
L 86.1975 289.851871 
L 86.514545 288.984774 
L 86.831591 288.984774 
L 87.148636 289.201548 
L 87.782727 288.768 
L 88.099773 288.984774 
L 88.416818 288.551226 
L 88.733864 288.768 
L 89.050909 288.334452 
L 89.367955 288.551226 
L 89.685 288.334452 
L 90.319091 288.334452 
L 90.636136 288.117677 
L 91.270227 288.117677 
L 91.587273 287.684129 
L 91.904318 287.900903 
L 92.538409 287.467355 
L 92.855455 287.467355 
L 93.1725 287.684129 
L 93.489545 287.467355 
L 93.806591 287.467355 
L 94.123636 287.250581 
L 94.757727 287.250581 
L 95.074773 286.817032 
L 95.708864 286.817032 
L 96.025909 286.600258 
L 96.342955 286.817032 
L 96.977045 286.383484 
L 97.294091 286.383484 
L 97.611136 286.16671 
L 97.928182 286.16671 
L 98.245227 286.383484 
L 98.562273 286.16671 
L 98.879318 286.16671 
L 99.196364 285.733161 
L 99.830455 286.16671 
L 100.1475 286.16671 
L 100.464545 285.516387 
L 101.098636 285.516387 
L 101.415682 285.299613 
L 101.732727 285.516387 
L 102.049773 285.299613 
L 102.366818 284.866065 
L 102.683864 285.082839 
L 103.000909 284.64929 
L 103.635 285.082839 
L 103.952045 284.866065 
L 104.269091 284.866065 
L 104.903182 284.432516 
L 105.220227 284.866065 
L 105.537273 284.866065 
L 105.854318 284.64929 
L 106.171364 283.782194 
L 106.488409 284.432516 
L 106.805455 284.215742 
L 107.1225 284.432516 
L 107.439545 283.782194 
L 107.756591 283.782194 
L 108.390682 284.215742 
L 108.707727 283.565419 
L 109.024773 283.998968 
L 109.341818 283.565419 
L 110.292955 282.915097 
L 110.61 283.348645 
L 110.927045 282.915097 
L 111.244091 282.915097 
L 111.561136 283.348645 
L 111.878182 283.131871 
L 112.195227 282.698323 
L 112.512273 282.915097 
L 112.829318 282.264774 
L 113.146364 282.698323 
L 113.463409 282.698323 
L 114.0975 282.264774 
L 114.414545 282.481548 
L 114.731591 281.831226 
L 115.048636 282.264774 
L 115.365682 282.264774 
L 115.682727 281.831226 
L 115.999773 282.048 
L 116.316818 281.397677 
L 116.633864 281.614452 
L 116.950909 281.614452 
L 117.267955 281.831226 
L 117.585 281.397677 
L 117.902045 282.048 
L 118.219091 281.397677 
L 118.536136 281.397677 
L 118.853182 280.747355 
L 119.170227 281.180903 
L 119.487273 281.180903 
L 119.804318 280.747355 
L 120.121364 280.964129 
L 120.438409 280.097032 
L 120.755455 281.614452 
L 121.0725 280.313806 
L 121.389545 280.747355 
L 121.706591 280.530581 
L 122.023636 280.097032 
L 122.657727 280.530581 
L 122.974773 280.097032 
L 123.608864 280.097032 
L 123.925909 280.313806 
L 124.56 279.880258 
L 124.877045 279.880258 
L 125.511136 279.013161 
L 125.828182 279.44671 
L 126.462273 279.013161 
L 126.779318 279.44671 
L 127.096364 278.796387 
L 127.413409 279.013161 
L 127.730455 279.44671 
L 128.0475 278.579613 
L 128.364545 279.013161 
L 128.681591 278.579613 
L 128.998636 278.796387 
L 129.315682 279.229935 
L 129.949773 278.146065 
L 130.583864 278.579613 
L 130.900909 278.146065 
L 131.217955 279.013161 
L 131.535 277.92929 
L 131.852045 277.712516 
L 132.169091 278.146065 
L 132.486136 277.712516 
L 132.803182 277.712516 
L 133.120227 278.362839 
L 133.437273 277.92929 
L 133.754318 277.712516 
L 134.071364 277.92929 
L 134.705455 276.845419 
L 135.339545 277.712516 
L 135.656591 276.628645 
L 135.973636 277.495742 
L 136.290682 277.062194 
L 136.924773 277.062194 
L 137.241818 276.845419 
L 137.558864 276.411871 
L 137.875909 276.628645 
L 138.192955 276.628645 
L 138.51 277.062194 
L 138.827045 276.195097 
L 139.144091 275.978323 
L 139.461136 276.411871 
L 139.778182 276.411871 
L 140.095227 275.761548 
L 140.412273 275.978323 
L 140.729318 275.761548 
L 141.046364 275.761548 
L 141.680455 275.328 
L 141.9975 275.761548 
L 142.314545 275.328 
L 142.631591 275.544774 
L 142.948636 275.978323 
L 143.265682 275.978323 
L 143.582727 275.544774 
L 143.899773 274.894452 
L 144.533864 274.460903 
L 144.850909 275.111226 
L 145.167955 274.677677 
L 145.485 274.677677 
L 146.119091 275.111226 
L 146.436136 275.111226 
L 146.753182 274.244129 
L 147.070227 274.244129 
L 147.387273 274.027355 
L 147.704318 274.460903 
L 148.021364 274.244129 
L 148.338409 273.810581 
L 148.9725 274.244129 
L 149.289545 274.027355 
L 149.606591 273.377032 
L 149.923636 274.244129 
L 150.240682 274.027355 
L 150.557727 273.160258 
L 150.874773 273.160258 
L 151.508864 273.593806 
L 151.825909 273.160258 
L 152.142955 273.377032 
L 152.46 272.509935 
L 152.777045 272.943484 
L 153.094091 272.509935 
L 153.411136 272.509935 
L 153.728182 272.72671 
L 154.045227 272.509935 
L 154.362273 272.076387 
L 154.996364 273.160258 
L 155.313409 272.293161 
L 155.630455 272.076387 
L 155.9475 272.076387 
L 156.264545 272.943484 
L 156.581591 272.076387 
L 156.898636 272.293161 
L 157.215682 271.859613 
L 157.532727 272.72671 
L 157.849773 271.859613 
L 158.166818 272.509935 
L 158.483864 271.859613 
L 158.800909 271.642839 
L 159.117955 271.642839 
L 159.752045 271.20929 
L 160.069091 270.775742 
L 160.386136 270.775742 
L 160.703182 270.992516 
L 161.020227 270.992516 
L 161.337273 270.775742 
L 161.654318 270.992516 
L 161.971364 270.775742 
L 162.288409 270.992516 
L 162.605455 270.558968 
L 162.9225 270.775742 
L 163.239545 270.125419 
L 163.556591 270.558968 
L 163.873636 270.342194 
L 164.190682 270.775742 
L 164.507727 269.908645 
L 165.141818 269.475097 
L 165.458864 270.342194 
L 165.775909 270.342194 
L 166.092955 270.125419 
L 166.41 269.691871 
L 166.727045 269.908645 
L 167.044091 269.908645 
L 167.361136 269.258323 
L 167.678182 269.908645 
L 167.995227 269.475097 
L 168.312273 269.475097 
L 168.629318 269.041548 
L 169.263409 269.475097 
L 169.580455 270.125419 
L 170.214545 268.608 
L 170.531591 268.824774 
L 170.848636 269.475097 
L 171.165682 269.475097 
L 171.799773 268.174452 
L 172.116818 268.391226 
L 172.433864 267.957677 
L 173.067955 268.824774 
L 173.385 267.740903 
L 173.702045 268.608 
L 174.019091 267.524129 
L 174.336136 267.957677 
L 174.970227 267.957677 
L 175.287273 267.307355 
L 175.604318 268.174452 
L 175.921364 267.090581 
L 176.8725 267.090581 
L 177.189545 267.740903 
L 177.506591 267.957677 
L 177.823636 267.090581 
L 178.457727 267.090581 
L 178.774773 266.873806 
L 179.091818 266.223484 
L 179.408864 267.307355 
L 179.725909 266.00671 
L 180.042955 266.657032 
L 180.36 266.440258 
L 180.677045 266.657032 
L 180.994091 265.789935 
L 181.628182 266.223484 
L 181.945227 266.00671 
L 182.262273 266.440258 
L 182.579318 265.139613 
L 182.896364 265.789935 
L 183.213409 264.922839 
L 183.530455 265.139613 
L 183.8475 266.00671 
L 184.164545 265.573161 
L 184.481591 266.00671 
L 184.798636 265.139613 
L 185.432727 265.139613 
L 185.749773 265.356387 
L 186.066818 264.706065 
L 186.383864 265.789935 
L 186.700909 265.573161 
L 187.017955 265.139613 
L 187.335 264.055742 
L 187.652045 264.48929 
L 187.969091 265.139613 
L 188.603182 264.706065 
L 188.920227 265.573161 
L 189.237273 264.48929 
L 189.554318 264.055742 
L 189.871364 264.48929 
L 190.188409 263.622194 
L 190.505455 264.055742 
L 190.8225 263.838968 
L 191.139545 263.838968 
L 191.456591 264.48929 
L 191.773636 263.405419 
L 192.090682 263.838968 
L 192.407727 263.622194 
L 192.724773 262.755097 
L 193.041818 262.971871 
L 193.358864 263.622194 
L 193.675909 262.971871 
L 193.992955 263.622194 
L 194.31 262.971871 
L 194.627045 263.188645 
L 194.944091 263.188645 
L 195.261136 263.622194 
L 195.578182 262.538323 
L 195.895227 262.538323 
L 196.529318 263.405419 
L 196.846364 262.321548 
L 197.163409 262.538323 
L 197.480455 263.405419 
L 197.7975 262.971871 
L 198.114545 262.321548 
L 198.431591 262.755097 
L 198.748636 262.321548 
L 199.065682 261.671226 
L 199.382727 261.888 
L 199.699773 261.671226 
L 200.016818 262.321548 
L 200.333864 261.020903 
L 200.650909 261.888 
L 200.967955 261.454452 
L 201.285 262.104774 
L 201.602045 261.888 
L 201.919091 261.454452 
L 202.236136 262.755097 
L 202.553182 262.538323 
L 203.187273 260.370581 
L 203.504318 260.804129 
L 203.821364 261.888 
L 204.455455 259.937032 
L 204.7725 259.720258 
L 205.089545 261.020903 
L 205.406591 260.153806 
L 205.723636 260.804129 
L 206.040682 260.804129 
L 206.357727 260.370581 
L 206.674773 260.153806 
L 206.991818 261.454452 
L 207.308864 259.720258 
L 207.625909 261.454452 
L 207.942955 260.153806 
L 208.26 259.937032 
L 208.577045 260.153806 
L 208.894091 259.069935 
L 209.211136 259.937032 
L 209.528182 259.720258 
L 209.845227 259.937032 
L 210.162273 259.503484 
L 210.479318 259.28671 
L 210.796364 259.937032 
L 211.113409 257.986065 
L 211.430455 258.636387 
L 212.381591 258.636387 
L 212.698636 259.720258 
L 213.015682 258.419613 
L 213.332727 258.636387 
L 213.649773 259.720258 
L 213.966818 259.28671 
L 214.283864 259.069935 
L 214.600909 258.419613 
L 214.917955 258.636387 
L 215.235 258.202839 
L 215.552045 258.853161 
L 215.869091 258.853161 
L 216.186136 257.552516 
L 216.503182 258.202839 
L 217.137273 256.902194 
L 217.454318 257.335742 
L 217.771364 257.335742 
L 218.088409 258.202839 
L 218.405455 257.986065 
L 218.7225 257.118968 
L 219.356591 257.118968 
L 219.673636 258.202839 
L 219.990682 256.902194 
L 220.307727 257.335742 
L 220.624773 256.685419 
L 220.941818 257.118968 
L 221.258864 257.335742 
L 221.575909 256.035097 
L 221.892955 257.335742 
L 222.21 257.335742 
L 222.527045 256.035097 
L 222.844091 257.552516 
L 223.161136 256.251871 
L 223.478182 256.685419 
L 223.795227 255.818323 
L 224.112273 256.902194 
L 224.429318 255.818323 
L 224.746364 256.035097 
L 225.063409 255.601548 
L 225.380455 256.251871 
L 225.6975 255.818323 
L 226.014545 255.818323 
L 226.331591 255.384774 
L 226.648636 256.902194 
L 226.965682 254.734452 
L 227.282727 256.251871 
L 227.599773 255.818323 
L 227.916818 254.951226 
L 228.233864 256.035097 
L 228.550909 254.734452 
L 228.867955 256.251871 
L 229.185 254.517677 
L 229.502045 255.818323 
L 229.819091 254.951226 
L 230.136136 255.384774 
L 230.453182 254.951226 
L 230.770227 253.650581 
L 231.087273 255.384774 
L 231.404318 254.300903 
L 231.721364 254.300903 
L 232.038409 253.650581 
L 232.355455 254.084129 
L 232.6725 254.084129 
L 232.989545 254.300903 
L 233.306591 253.650581 
L 233.623636 253.650581 
L 233.940682 254.517677 
L 234.257727 253.217032 
L 234.574773 253.217032 
L 234.891818 253.650581 
L 235.208864 254.517677 
L 235.525909 253.650581 
L 235.842955 254.300903 
L 236.477045 252.783484 
L 236.794091 253.650581 
L 237.428182 252.783484 
L 237.745227 252.783484 
L 238.062273 253.217032 
L 238.696364 252.783484 
L 239.013409 251.916387 
L 239.330455 252.349935 
L 239.6475 252.349935 
L 239.964545 251.699613 
L 240.598636 253.000258 
L 240.915682 252.349935 
L 241.232727 252.133161 
L 241.549773 252.349935 
L 241.866818 251.482839 
L 242.183864 251.482839 
L 242.500909 252.783484 
L 242.817955 251.916387 
L 243.135 252.349935 
L 243.452045 251.699613 
L 243.769091 251.482839 
L 244.403182 252.349935 
L 244.720227 253.000258 
L 245.037273 251.482839 
L 245.354318 251.266065 
L 245.671364 253.000258 
L 245.988409 250.398968 
L 246.305455 251.04929 
L 246.6225 250.832516 
L 246.939545 251.04929 
L 247.256591 251.916387 
L 247.573636 250.832516 
L 247.890682 251.699613 
L 248.207727 250.615742 
L 248.524773 251.266065 
L 248.841818 250.182194 
L 249.158864 250.615742 
L 249.475909 249.748645 
L 249.792955 251.04929 
L 250.11 251.04929 
L 250.427045 250.832516 
L 251.061136 249.531871 
L 251.378182 250.832516 
L 252.012273 248.881548 
L 252.329318 250.182194 
L 252.963409 248.448 
L 253.280455 248.664774 
L 253.5975 249.531871 
L 253.914545 249.098323 
L 254.231591 249.098323 
L 254.548636 249.748645 
L 254.865682 248.664774 
L 255.182727 248.881548 
L 255.499773 247.580903 
L 255.816818 249.531871 
L 256.133864 248.231226 
L 256.450909 248.664774 
L 256.767955 250.182194 
L 257.085 248.448 
L 257.402045 249.098323 
L 257.719091 247.147355 
L 258.036136 248.664774 
L 258.353182 248.664774 
L 258.670227 248.014452 
L 258.987273 247.797677 
L 259.304318 248.881548 
L 259.621364 247.364129 
L 259.938409 248.231226 
L 260.255455 246.713806 
L 260.5725 248.231226 
L 260.889545 248.231226 
L 261.206591 248.014452 
L 261.523636 247.580903 
L 261.840682 246.713806 
L 262.157727 248.014452 
L 262.474773 246.930581 
L 262.791818 247.364129 
L 263.425909 246.497032 
L 263.742955 247.580903 
L 264.06 247.364129 
L 264.377045 247.580903 
L 264.694091 246.930581 
L 265.011136 247.364129 
L 265.328182 246.930581 
L 265.645227 247.797677 
L 265.962273 247.580903 
L 266.279318 246.063484 
L 266.596364 246.497032 
L 266.913409 245.413161 
L 267.230455 246.497032 
L 267.5475 246.497032 
L 267.864545 245.84671 
L 268.181591 246.063484 
L 268.498636 246.930581 
L 268.815682 246.497032 
L 269.132727 246.930581 
L 269.449773 244.762839 
L 269.766818 246.497032 
L 270.083864 245.413161 
L 270.400909 245.629935 
L 270.717955 246.063484 
L 271.035 246.063484 
L 271.352045 246.280258 
L 271.669091 243.678968 
L 271.986136 245.413161 
L 272.303182 244.546065 
L 272.620227 244.762839 
L 272.937273 244.762839 
L 273.254318 244.546065 
L 273.571364 244.979613 
L 273.888409 244.979613 
L 274.205455 245.413161 
L 274.5225 244.546065 
L 274.839545 244.979613 
L 275.156591 243.462194 
L 275.473636 244.32929 
L 275.790682 244.32929 
L 276.107727 243.895742 
L 276.424773 245.413161 
L 276.741818 243.462194 
L 277.058864 243.462194 
L 277.375909 244.546065 
L 277.692955 244.546065 
L 278.01 244.112516 
L 278.327045 243.895742 
L 278.644091 243.895742 
L 278.961136 244.546065 
L 279.278182 244.112516 
L 279.912273 243.028645 
L 280.229318 242.811871 
L 280.546364 243.678968 
L 280.863409 242.378323 
L 281.4975 243.678968 
L 281.814545 243.678968 
L 282.131591 242.595097 
L 282.448636 244.112516 
L 283.082727 243.245419 
L 283.399773 241.944774 
L 283.716818 242.595097 
L 284.033864 242.595097 
L 284.350909 243.462194 
L 284.667955 242.378323 
L 285.619091 241.728 
L 285.936136 242.378323 
L 286.253182 242.595097 
L 286.570227 241.511226 
L 286.887273 241.077677 
L 287.204318 241.294452 
L 287.521364 241.294452 
L 287.838409 243.028645 
L 288.155455 242.378323 
L 288.4725 241.077677 
L 288.789545 241.728 
L 289.423636 240.210581 
L 289.740682 241.728 
L 290.057727 241.077677 
L 290.374773 241.511226 
L 290.691818 240.860903 
L 291.008864 240.644129 
L 291.325909 239.993806 
L 291.642955 239.777032 
L 291.96 240.644129 
L 292.277045 240.860903 
L 292.594091 240.860903 
L 292.911136 240.644129 
L 293.228182 241.077677 
L 293.545227 240.644129 
L 293.862273 240.860903 
L 294.179318 239.560258 
L 294.813409 240.427355 
L 295.130455 239.993806 
L 295.4475 241.294452 
L 295.764545 239.777032 
L 296.081591 239.12671 
L 296.398636 239.993806 
L 296.715682 239.560258 
L 297.032727 239.993806 
L 297.666818 239.12671 
L 298.300909 239.993806 
L 298.617955 239.993806 
L 299.569091 239.343484 
L 299.886136 238.259613 
L 300.203182 238.909935 
L 300.520227 237.60929 
L 300.837273 238.693161 
L 301.154318 237.60929 
L 301.471364 239.560258 
L 301.788409 238.259613 
L 302.105455 237.826065 
L 302.4225 238.909935 
L 302.739545 236.958968 
L 303.056591 238.909935 
L 303.373636 238.909935 
L 303.690682 237.826065 
L 304.007727 237.60929 
L 304.641818 238.476387 
L 304.958864 238.476387 
L 305.275909 238.693161 
L 305.592955 236.525419 
L 305.91 237.175742 
L 306.227045 237.175742 
L 306.544091 236.958968 
L 306.861136 237.826065 
L 307.178182 236.525419 
L 307.495227 237.175742 
L 307.812273 237.175742 
L 308.129318 237.392516 
L 308.446364 237.826065 
L 308.763409 237.60929 
L 309.080455 236.958968 
L 309.3975 237.60929 
L 309.714545 237.175742 
L 310.031591 237.392516 
L 310.348636 235.658323 
L 310.665682 235.875097 
L 311.299773 235.875097 
L 311.616818 236.742194 
L 311.933864 236.308645 
L 312.250909 236.958968 
L 312.567955 235.658323 
L 312.885 236.308645 
L 313.202045 235.441548 
L 313.519091 236.525419 
L 313.836136 235.441548 
L 314.153182 236.091871 
L 314.470227 235.224774 
L 314.787273 235.875097 
L 315.104318 235.441548 
L 315.421364 234.574452 
L 315.738409 235.008 
L 316.055455 234.791226 
L 316.3725 235.441548 
L 316.689545 235.008 
L 317.006591 234.791226 
L 317.323636 234.357677 
L 317.640682 235.224774 
L 317.957727 236.525419 
L 318.274773 233.273806 
L 318.591818 235.008 
L 318.908864 234.140903 
L 319.225909 234.574452 
L 320.177045 234.574452 
L 320.494091 235.224774 
L 320.811136 233.057032 
L 321.128182 233.707355 
L 321.445227 235.224774 
L 321.762273 234.791226 
L 322.079318 233.924129 
L 322.396364 233.707355 
L 322.713409 233.057032 
L 323.030455 234.140903 
L 323.3475 233.490581 
L 323.981591 233.490581 
L 324.298636 234.140903 
L 324.615682 233.707355 
L 324.932727 233.924129 
L 325.566818 233.057032 
L 325.883864 234.574452 
L 326.200909 232.840258 
L 326.517955 232.40671 
L 326.835 233.273806 
L 327.152045 232.189935 
L 327.469091 232.840258 
L 327.786136 234.791226 
L 328.420227 231.756387 
L 328.737273 232.189935 
L 329.054318 230.672516 
L 329.688409 232.189935 
L 330.005455 231.973161 
L 330.639545 232.40671 
L 330.956591 232.840258 
L 331.273636 231.539613 
L 331.590682 232.840258 
L 331.907727 231.539613 
L 332.224773 231.322839 
L 332.858864 231.756387 
L 333.175909 231.322839 
L 333.492955 230.672516 
L 334.127045 230.238968 
L 334.444091 231.106065 
L 334.761136 232.623484 
L 335.078182 230.022194 
L 335.395227 230.88929 
L 335.712273 229.588645 
L 336.029318 231.106065 
L 336.346364 230.672516 
L 336.663409 230.88929 
L 336.980455 229.805419 
L 337.2975 232.189935 
L 337.614545 231.322839 
L 337.931591 229.588645 
L 338.248636 230.88929 
L 338.565682 230.455742 
L 338.882727 230.455742 
L 339.199773 230.88929 
L 339.516818 229.588645 
L 339.833864 230.88929 
L 340.150909 229.371871 
L 340.467955 230.238968 
L 341.102045 228.938323 
L 341.419091 230.88929 
L 342.053182 229.371871 
L 342.370227 229.805419 
L 342.687273 229.588645 
L 343.004318 230.238968 
L 343.321364 228.721548 
L 343.638409 228.721548 
L 343.955455 227.420903 
L 344.2725 229.371871 
L 344.589545 228.721548 
L 344.906591 228.721548 
L 345.223636 228.504774 
L 345.540682 228.071226 
L 345.857727 228.071226 
L 346.174773 228.504774 
L 346.491818 227.854452 
L 346.808864 227.854452 
L 347.125909 228.504774 
L 347.442955 228.071226 
L 347.76 228.504774 
L 348.077045 227.637677 
L 348.394091 227.854452 
L 349.028182 227.854452 
L 349.345227 228.071226 
L 349.662273 226.987355 
L 349.979318 227.204129 
L 350.613409 228.288 
L 350.930455 226.553806 
L 351.2475 227.420903 
L 351.564545 227.204129 
L 351.881591 226.337032 
L 352.198636 227.637677 
L 352.515682 227.204129 
L 352.832727 226.553806 
L 353.149773 225.036387 
L 353.466818 225.68671 
L 353.783864 225.68671 
L 354.100909 226.770581 
L 354.417955 224.819613 
L 354.735 226.987355 
L 355.052045 225.903484 
L 355.369091 225.68671 
L 355.686136 225.68671 
L 356.003182 226.553806 
L 356.320227 225.903484 
L 356.637273 226.553806 
L 356.954318 226.120258 
L 357.271364 226.337032 
L 357.588409 225.469935 
L 357.905455 226.120258 
L 358.2225 225.903484 
L 358.856591 224.819613 
L 359.173636 225.68671 
L 359.490682 225.469935 
L 359.807727 226.120258 
L 360.124773 225.253161 
L 360.441818 226.120258 
L 360.758864 225.036387 
L 361.075909 225.903484 
L 361.392955 225.036387 
L 361.71 224.819613 
L 362.027045 224.16929 
L 362.344091 225.68671 
L 362.661136 225.469935 
L 362.978182 224.819613 
L 363.612273 224.386065 
L 363.929318 224.819613 
L 364.246364 225.036387 
L 365.1975 223.302194 
L 365.514545 223.952516 
L 365.831591 225.253161 
L 366.148636 223.952516 
L 366.465682 223.735742 
L 366.782727 224.602839 
L 367.099773 224.16929 
L 367.416818 224.602839 
L 367.733864 223.735742 
L 368.367955 223.302194 
L 368.685 223.735742 
L 369.002045 223.302194 
L 369.319091 225.036387 
L 369.636136 222.868645 
L 369.953182 223.735742 
L 370.587273 222.218323 
L 370.904318 223.302194 
L 371.538409 222.001548 
L 371.855455 221.784774 
L 372.1725 221.134452 
L 372.489545 223.302194 
L 372.806591 222.435097 
L 373.123636 222.868645 
L 373.440682 223.518968 
L 373.757727 222.651871 
L 374.074773 222.868645 
L 374.391818 222.001548 
L 374.708864 222.001548 
L 375.025909 223.518968 
L 375.342955 221.784774 
L 375.66 222.651871 
L 375.977045 222.435097 
L 376.294091 220.484129 
L 376.611136 221.568 
L 376.928182 221.568 
L 377.562273 220.484129 
L 377.879318 223.518968 
L 378.196364 221.568 
L 378.513409 221.784774 
L 378.830455 221.134452 
L 379.1475 221.351226 
L 379.464545 221.351226 
L 379.781591 221.134452 
L 380.098636 222.218323 
L 380.415682 219.617032 
L 380.732727 221.568 
L 381.049773 220.267355 
L 381.366818 220.484129 
L 381.683864 221.568 
L 382.000909 220.267355 
L 382.317955 220.700903 
L 382.635 219.183484 
L 382.952045 219.833806 
L 383.269091 221.134452 
L 383.586136 218.749935 
L 383.903182 219.400258 
L 384.220227 220.484129 
L 384.537273 219.833806 
L 384.854318 220.050581 
L 385.171364 220.700903 
L 385.805455 219.617032 
L 386.1225 219.183484 
L 386.439545 220.050581 
L 386.756591 218.749935 
L 387.073636 219.617032 
L 387.390682 218.533161 
L 387.707727 220.050581 
L 388.024773 220.267355 
L 388.341818 218.533161 
L 388.658864 218.749935 
L 388.975909 218.316387 
L 389.292955 219.617032 
L 389.61 219.617032 
L 390.244091 217.666065 
L 390.561136 218.96671 
L 390.878182 219.400258 
L 391.195227 219.400258 
L 391.512273 217.666065 
L 391.829318 217.015742 
L 392.463409 219.400258 
L 392.780455 217.882839 
L 393.0975 218.099613 
L 393.731591 217.232516 
L 394.048636 218.099613 
L 394.365682 217.882839 
L 394.682727 216.798968 
L 394.999773 217.232516 
L 395.316818 217.44929 
L 395.633864 218.316387 
L 395.950909 216.148645 
L 396.267955 216.148645 
L 396.585 217.44929 
L 396.902045 217.44929 
L 397.219091 217.882839 
L 397.536136 216.798968 
L 397.853182 217.44929 
L 398.170227 216.365419 
L 398.487273 217.232516 
L 398.487273 217.232516 
" clip-path="url(#pbba9286c37)" style="fill: none; stroke: #9467bd; stroke-width: 1.5; stroke-linecap: square"/>
   </g>
   <g id="patch_3">
    <path d="M 57.6 307.584 
L 57.6 41.472 
" style="fill: none; stroke: #000000; stroke-width: 0.8; stroke-linejoin: miter; stroke-linecap: square"/>
   </g>
   <g id="patch_4">
    <path d="M 414.72 307.584 
L 414.72 41.472 
" style="fill: none; stroke: #000000; stroke-width: 0.8; stroke-linejoin: miter; stroke-linecap: square"/>
   </g>
   <g id="patch_5">
    <path d="M 57.6 307.584 
L 414.72 307.584 
" style="fill: none; stroke: #000000; stroke-width: 0.8; stroke-linejoin: miter; stroke-linecap: square"/>
   </g>
   <g id="patch_6">
    <path d="M 57.6 41.472 
L 414.72 41.472 
" style="fill: none; stroke: #000000; stroke-width: 0.8; stroke-linejoin: miter; stroke-linecap: square"/>
   </g>
   <g id="text_15">
    <!-- Memory Usage by Object Type -->
    <g transform="translate(144.75375 35.472) scale(0.12 -0.12)">
     <defs>
      <path id="DejaVuSans-4d" d="M 628 4666 
L 1569 4666 
L 2759 1491 
L 3956 4666 
L 4897 4666 
L 4897 0 
L 4281 0 
L 4281 4097 
L 3078 897 
L 2444 897 
L 1241 4097 
L 1241 0 
L 628 0 
L 628 4666 
z
" transform="scale(0.015625)"/>
      <path id="DejaVuSans-6d" d="M 3328 2828 
Q 3544 3216 3844 3400 
Q 4144 3584 4550 3584 
Q 5097 3584 5394 3201 
Q 5691 2819 5691 2113 
L 5691 0 
L 5113 0 
L 5113 2094 
Q 5113 2597 4934 2840 
Q 4756 3084 4391 3084 
Q 3944 3084 3684 2787 
Q 3425 2491 3425 1978 
L 3425 0 
L 2847 0 
L 2847 2094 
Q 2847 2600 2669 2842 
Q 2491 3084 2119 3084 
Q 1678 3084 1418 2786 
Q 1159 2488 1159 1978 
L 1159 0 
L 581 0 
L 581 3500 
L 1159 3500 
L 1159 2956 
Q 1356 3278 1631 3431 
Q 1906 3584 2284 3584 
Q 2666 3584 2933 3390 
Q 3200 3197 3328 2828 
z
" transform="scale(0.015625)"/>
      <path id="DejaVuSans-6f" d="M 1959 3097 
Q 1497 3097 1228 2736 
Q 959 2375 959 1747 
Q 959 1119 1226 758 
Q 1494 397 1959 397 
Q 2419 397 2687 759 
Q 2956 1122 2956 1747 
Q 2956 2369 2687 2733 
Q 2419 3097 1959 3097 
z
M 1959 3584 
Q 2709 3584 3137 3096 
Q 3566 2609 3566 1747 
Q 3566 888 3137 398 
Q 2709 -91 1959 -91 
Q 1206 -91 779 398 
Q 353 888 353 1747 
Q 353 2609 779 3096 
Q 1206 3584 1959 3584 
z
" transform="scale(0.015625)"/>
      <path id="DejaVuSans-72" d="M 2631 2963 
Q 2534 3019 2420 3045 
Q 2306 3072 2169 3072 
Q 1681 3072 1420 2755 
Q 1159 2438 1159 1844 
L 1159 0 
L 581 0 
L 581 3500 
L 1159 3500 
L 1159 2956 
Q 1341 3275 1631 3429 
Q 1922 3584 2338 3584 
Q 2397 3584 2469 3576 
Q 2541 3569 2628 3553 
L 2631 2963 
z
" transform="scale(0.015625)"/>
      <path id="DejaVuSans-55" d="M 556 4666 
L 1191 4666 
L 1191 1831 
Q 1191 1081 1462 751 
Q 1734 422 2344 422 
Q 2950 422 3222 751 
Q 3494 1081 3494 1831 
L 3494 4666 
L 4128 4666 
L 4128 1753 
Q 4128 841 3676 375 
Q 3225 -91 2344 -91 
Q 1459 -91 1007 375 
Q 556 841 556 1753 
L 556 4666 
z
" transform="scale(0.015625)"/>
      <path id="DejaVuSans-61" d="M 2194 1759 
Q 1497 1759 1228 1600 
Q 959 1441 959 1056 
Q 959 750 1161 570 
Q 1363 391 1709 391 
Q 2188 391 2477 730 
Q 2766 1069 2766 1631 
L 2766 1759 
L 2194 1759 
z
M 3341 1997 
L 3341 0 
L 2766 0 
L 2766 531 
Q 2569 213 2275 61 
Q 1981 -91 1556 -91 
Q 1019 -91 701 211 
Q 384 513 384 1019 
Q 384 1609 779 1909 
Q 1175 2209 1959 2209 
L 2766 2209 
L 2766 2266 
Q 2766 2663 2505 2880 
Q 2244 3097 1772 3097 
Q 1472 3097 1187 3025 
Q 903 2953 641 2809 
L 641 3341 
Q 956 3463 1253 3523 
Q 1550 3584 1831 3584 
Q 2591 3584 2966 3190 
Q 3341 2797 3341 1997 
z
" transform="scale(0.015625)"/>
      <path id="DejaVuSans-54" d="M -19 4666 
L 3928 4666 
L 3928 4134 
L 2272 4134 
L 2272 0 
L 1638 0 
L 1638 4134 
L -19 4134 
L -19 4666 
z
" transform="scale(0.015625)"/>
      <path id="DejaVuSans-70" d="M 1159 525 
L 1159 -1331 
L 581 -1331 
L 581 3500 
L 1159 3500 
L 1159 2969 
Q 1341 3281 1617 3432 
Q 1894 3584 2278 3584 
Q 2916 3584 3314 3078 
Q 3713 2572 3713 1747 
Q 3713 922 3314 415 
Q 2916 -91 2278 -91 
Q 1894 -91 1617 61 
Q 1341 213 1159 525 
z
M 3116 1747 
Q 3116 2381 2855 2742 
Q 2594 3103 2138 3103 
Q 1681 3103 1420 2742 
Q 1159 2381 1159 1747 
Q 1159 1113 1420 752 
Q 1681 391 2138 391 
Q 2594 391 2855 752 
Q 3116 1113 3116 1747 
z
" transform="scale(0.015625)"/>
     </defs>
     <use xlink:href="#DejaVuSans-4d"/>
     <use xlink:href="#DejaVuSans-65" x="86.279297"/>
     <use xlink:href="#DejaVuSans-6d" x="147.802734"/>
     <use xlink:href="#DejaVuSans-6f" x="245.214844"/>
     <use xlink:href="#DejaVuSans-72" x="306.396484"/>
     <use xlink:href="#DejaVuSans-79" x="347.509766"/>
     <use xlink:href="#DejaVuSans-20" x="406.689453"/>
     <use xlink:href="#DejaVuSans-55" x="438.476562"/>
     <use xlink:href="#DejaVuSans-73" x="511.669922"/>
     <use xlink:href="#DejaVuSans-61" x="563.769531"/>
     <use xlink:href="#DejaVuSans-67" x="625.048828"/>
     <use xlink:href="#DejaVuSans-65" x="688.525391"/>
     <use xlink:href="#DejaVuSans-20" x="750.048828"/>
     <use xlink:href="#DejaVuSans-62" x="781.835938"/>
     <use xlink:href="#DejaVuSans-79" x="845.3125"/>
     <use xlink:href="#DejaVuSans-20" x="904.492188"/>
     <use xlink:href="#DejaVuSans-4f" x="936.279297"/>
     <use xlink:href="#DejaVuSans-62" x="1014.990234"/>
     <use xlink:href="#DejaVuSans-6a" x="1078.466797"/>
     <use xlink:href="#DejaVuSans-65" x="1106.25"/>
     <use xlink:href="#DejaVuSans-63" x="1167.773438"/>
     <use xlink:href="#DejaVuSans-74" x="1222.753906"/>
     <use xlink:href="#DejaVuSans-20" x="1261.962891"/>
     <use xlink:href="#DejaVuSans-54" x="1293.75"/>
     <use xlink:href="#DejaVuSans-79" x="1339.208984"/>
     <use xlink:href="#DejaVuSans-70" x="1398.388672"/>
     <use xlink:href="#DejaVuSans-65" x="1461.865234"/>
    </g>
   </g>
   <g id="legend_1">
    <g id="patch_7">
     <path d="M 64.6 122.862625 
L 149.964063 122.862625 
Q 151.964063 122.862625 151.964063 120.862625 
L 151.964063 48.472 
Q 151.964063 46.472 149.964063 46.472 
L 64.6 46.472 
Q 62.6 46.472 62.6 48.472 
L 62.6 120.862625 
Q 62.6 122.862625 64.6 122.862625 
z
" style="fill: #ffffff; opacity: 0.8; stroke: #cccccc; stroke-linejoin: miter"/>
    </g>
    <g id="line2d_18">
     <path d="M 66.6 54.570438 
L 76.6 54.570438 
L 86.6 54.570438 
" style="fill: none; stroke: #1f77b4; stroke-width: 1.5; stroke-linecap: square"/>
    </g>
    <g id="text_16">
     <!-- ShortSeq -->
     <g transform="translate(94.6 58.070438) scale(0.1 -0.1)">
      <use xlink:href="#DejaVuSans-53"/>
      <use xlink:href="#DejaVuSans-68" x="63.476562"/>
      <use xlink:href="#DejaVuSans-6f" x="126.855469"/>
      <use xlink:href="#DejaVuSans-72" x="188.037109"/>
      <use xlink:href="#DejaVuSans-74" x="229.150391"/>
      <use xlink:href="#DejaVuSans-53" x="268.359375"/>
      <use xlink:href="#DejaVuSans-65" x="331.835938"/>
      <use xlink:href="#DejaVuSans-71" x="393.359375"/>
     </g>
    </g>
    <g id="line2d_19">
     <path d="M 66.6 69.248563 
L 76.6 69.248563 
L 86.6 69.248563 
" style="fill: none; stroke: #ff7f0e; stroke-width: 1.5; stroke-linecap: square"/>
    </g>
    <g id="text_17">
     <!-- NumPy -->
     <g transform="translate(94.6 72.748563) scale(0.1 -0.1)">
      <defs>
       <path id="DejaVuSans-4e" d="M 628 4666 
L 1478 4666 
L 3547 763 
L 3547 4666 
L 4159 4666 
L 4159 0 
L 3309 0 
L 1241 3903 
L 1241 0 
L 628 0 
L 628 4666 
z
" transform="scale(0.015625)"/>
       <path id="DejaVuSans-50" d="M 1259 4147 
L 1259 2394 
L 2053 2394 
Q 2494 2394 2734 2622 
Q 2975 2850 2975 3272 
Q 2975 3691 2734 3919 
Q 2494 4147 2053 4147 
L 1259 4147 
z
M 628 4666 
L 2053 4666 
Q 2838 4666 3239 4311 
Q 3641 3956 3641 3272 
Q 3641 2581 3239 2228 
Q 2838 1875 2053 1875 
L 1259 1875 
L 1259 0 
L 628 0 
L 628 4666 
z
" transform="scale(0.015625)"/>
      </defs>
      <use xlink:href="#DejaVuSans-4e"/>
      <use xlink:href="#DejaVuSans-75" x="74.804688"/>
      <use xlink:href="#DejaVuSans-6d" x="138.183594"/>
      <use xlink:href="#DejaVuSans-50" x="235.595703"/>
      <use xlink:href="#DejaVuSans-79" x="295.898438"/>
     </g>
    </g>
    <g id="line2d_20">
     <path d="M 66.6 83.926688 
L 76.6 83.926688 
L 86.6 83.926688 
" style="fill: none; stroke: #2ca02c; stroke-width: 1.5; stroke-linecap: square"/>
    </g>
    <g id="text_18">
     <!-- PyUnicode -->
     <g transform="translate(94.6 87.426688) scale(0.1 -0.1)">
      <defs>
       <path id="DejaVuSans-64" d="M 2906 2969 
L 2906 4863 
L 3481 4863 
L 3481 0 
L 2906 0 
L 2906 525 
Q 2725 213 2448 61 
Q 2172 -91 1784 -91 
Q 1150 -91 751 415 
Q 353 922 353 1747 
Q 353 2572 751 3078 
Q 1150 3584 1784 3584 
Q 2172 3584 2448 3432 
Q 2725 3281 2906 2969 
z
M 947 1747 
Q 947 1113 1208 752 
Q 1469 391 1925 391 
Q 2381 391 2643 752 
Q 2906 1113 2906 1747 
Q 2906 2381 2643 2742 
Q 2381 3103 1925 3103 
Q 1469 3103 1208 2742 
Q 947 2381 947 1747 
z
" transform="scale(0.015625)"/>
      </defs>
      <use xlink:href="#DejaVuSans-50"/>
      <use xlink:href="#DejaVuSans-79" x="60.302734"/>
      <use xlink:href="#DejaVuSans-55" x="119.482422"/>
      <use xlink:href="#DejaVuSans-6e" x="192.675781"/>
      <use xlink:href="#DejaVuSans-69" x="256.054688"/>
      <use xlink:href="#DejaVuSans-63" x="283.837891"/>
      <use xlink:href="#DejaVuSans-6f" x="338.818359"/>
      <use xlink:href="#DejaVuSans-64" x="400"/>
      <use xlink:href="#DejaVuSans-65" x="463.476562"/>
     </g>
    </g>
    <g id="line2d_21">
     <path d="M 66.6 98.604813 
L 76.6 98.604813 
L 86.6 98.604813 
" style="fill: none; stroke: #d62728; stroke-width: 1.5; stroke-linecap: square"/>
    </g>
    <g id="text_19">
     <!-- PyBytes -->
     <g transform="translate(94.6 102.104813) scale(0.1 -0.1)">
      <defs>
       <path id="DejaVuSans-42" d="M 1259 2228 
L 1259 519 
L 2272 519 
Q 2781 519 3026 730 
Q 3272 941 3272 1375 
Q 3272 1813 3026 2020 
Q 2781 2228 2272 2228 
L 1259 2228 
z
M 1259 4147 
L 1259 2741 
L 2194 2741 
Q 2656 2741 2882 2914 
Q 3109 3088 3109 3444 
Q 3109 3797 2882 3972 
Q 2656 4147 2194 4147 
L 1259 4147 
z
M 628 4666 
L 2241 4666 
Q 2963 4666 3353 4366 
Q 3744 4066 3744 3513 
Q 3744 3084 3544 2831 
Q 3344 2578 2956 2516 
Q 3422 2416 3680 2098 
Q 3938 1781 3938 1306 
Q 3938 681 3513 340 
Q 3088 0 2303 0 
L 628 0 
L 628 4666 
z
" transform="scale(0.015625)"/>
      </defs>
      <use xlink:href="#DejaVuSans-50"/>
      <use xlink:href="#DejaVuSans-79" x="60.302734"/>
      <use xlink:href="#DejaVuSans-42" x="119.482422"/>
      <use xlink:href="#DejaVuSans-79" x="188.085938"/>
      <use xlink:href="#DejaVuSans-74" x="247.265625"/>
      <use xlink:href="#DejaVuSans-65" x="286.474609"/>
      <use xlink:href="#DejaVuSans-73" x="347.998047"/>
     </g>
    </g>
    <g id="line2d_22">
     <path d="M 66.6 113.282938 
L 76.6 113.282938 
L 86.6 113.282938 
" style="fill: none; stroke: #9467bd; stroke-width: 1.5; stroke-linecap: square"/>
    </g>
    <g id="text_20">
     <!-- Gzip Bytes -->
     <g transform="translate(94.6 116.782938) scale(0.1 -0.1)">
      <defs>
       <path id="DejaVuSans-47" d="M 3809 666 
L 3809 1919 
L 2778 1919 
L 2778 2438 
L 4434 2438 
L 4434 434 
Q 4069 175 3628 42 
Q 3188 -91 2688 -91 
Q 1594 -91 976 548 
Q 359 1188 359 2328 
Q 359 3472 976 4111 
Q 1594 4750 2688 4750 
Q 3144 4750 3555 4637 
Q 3966 4525 4313 4306 
L 4313 3634 
Q 3963 3931 3569 4081 
Q 3175 4231 2741 4231 
Q 1884 4231 1454 3753 
Q 1025 3275 1025 2328 
Q 1025 1384 1454 906 
Q 1884 428 2741 428 
Q 3075 428 3337 486 
Q 3600 544 3809 666 
z
" transform="scale(0.015625)"/>
      </defs>
      <use xlink:href="#DejaVuSans-47"/>
      <use xlink:href="#DejaVuSans-7a" x="77.490234"/>
      <use xlink:href="#DejaVuSans-69" x="129.980469"/>
      <use xlink:href="#DejaVuSans-70" x="157.763672"/>
      <use xlink:href="#DejaVuSans-20" x="221.240234"/>
      <use xlink:href="#DejaVuSans-42" x="253.027344"/>
      <use xlink:href="#DejaVuSans-79" x="321.630859"/>
      <use xlink:href="#DejaVuSans-74" x="380.810547"/>
      <use xlink:href="#DejaVuSans-65" x="420.019531"/>
      <use xlink:href="#DejaVuSans-73" x="481.542969"/>
     </g>
    </g>
   </g>
  </g>
 </g>
 <defs>
  <clipPath id="pbba9286c37">
   <rect x="57.6" y="41.472" width="357.12" height="266.112"/>
  </clipPath>
 </defs>
</svg>
