<?xml version="1.0" encoding="utf-8" standalone="no"?>
<!DOCTYPE svg PUBLIC "-//W3C//DTD SVG 1.1//EN"
  "http://www.w3.org/Graphics/SVG/1.1/DTD/svg11.dtd">
<svg xmlns:xlink="http://www.w3.org/1999/xlink" width="460.8pt" height="345.6pt" viewBox="0 0 460.8 345.6" xmlns="http://www.w3.org/2000/svg" version="1.1">
 <metadata>
  <rdf:RDF xmlns:dc="http://purl.org/dc/elements/1.1/" xmlns:cc="http://creativecommons.org/ns#" xmlns:rdf="http://www.w3.org/1999/02/22-rdf-syntax-ns#">
   <cc:Work>
    <dc:type rdf:resource="http://purl.org/dc/dcmitype/StillImage"/>
    <dc:date>2023-12-19T23:36:20.817077</dc:date>
    <dc:format>image/svg+xml</dc:format>
    <dc:creator>
     <cc:Agent>
      <dc:title>Matplotlib v3.7.2, https://matplotlib.org/</dc:title>
     </cc:Agent>
    </dc:creator>
   </cc:Work>
  </rdf:RDF>
 </metadata>
 <defs>
  <style type="text/css">*{stroke-linejoin: round; stroke-linecap: butt}</style>
 </defs>
 <g id="figure_1">
  <g id="patch_1">
   <path d="M 0 345.6 
L 460.8 345.6 
L 460.8 0 
L 0 0 
z
" style="fill: #ffffff"/>
  </g>
  <g id="axes_1">
   <g id="patch_2">
    <path d="M 57.44 303.64 
L 450 303.64 
L 450 25.44 
L 57.44 25.44 
z
" style="fill: #ffffff"/>
   </g>
   <g id="matplotlib.axis_1">
    <g id="xtick_1">
     <g id="line2d_1">
      <defs>
       <path id="m537acafc41" d="M 0 0 
L 0 3.5 
" style="stroke: #000000; stroke-width: 0.8"/>
      </defs>
      <g>
       <use xlink:href="#m537acafc41" x="75.283636" y="303.64" style="stroke: #000000; stroke-width: 0.8"/>
      </g>
     </g>
     <g id="text_1">
      <!-- 0 -->
      <g transform="translate(72.102386 318.238437) scale(0.1 -0.1)">
       <defs>
        <path id="DejaVuSans-30" d="M 2034 4250 
Q 1547 4250 1301 3770 
Q 1056 3291 1056 2328 
Q 1056 1369 1301 889 
Q 1547 409 2034 409 
Q 2525 409 2770 889 
Q 3016 1369 3016 2328 
Q 3016 3291 2770 3770 
Q 2525 4250 2034 4250 
z
M 2034 4750 
Q 2819 4750 3233 4129 
Q 3647 3509 3647 2328 
Q 3647 1150 3233 529 
Q 2819 -91 2034 -91 
Q 1250 -91 836 529 
Q 422 1150 422 2328 
Q 422 3509 836 4129 
Q 1250 4750 2034 4750 
z
" transform="scale(0.015625)"/>
       </defs>
       <use xlink:href="#DejaVuSans-30"/>
      </g>
     </g>
    </g>
    <g id="xtick_2">
     <g id="line2d_2">
      <g>
       <use xlink:href="#m537acafc41" x="144.985341" y="303.64" style="stroke: #000000; stroke-width: 0.8"/>
      </g>
     </g>
     <g id="text_2">
      <!-- 200 -->
      <g transform="translate(135.441591 318.238437) scale(0.1 -0.1)">
       <defs>
        <path id="DejaVuSans-32" d="M 1228 531 
L 3431 531 
L 3431 0 
L 469 0 
L 469 531 
Q 828 903 1448 1529 
Q 2069 2156 2228 2338 
Q 2531 2678 2651 2914 
Q 2772 3150 2772 3378 
Q 2772 3750 2511 3984 
Q 2250 4219 1831 4219 
Q 1534 4219 1204 4116 
Q 875 4013 500 3803 
L 500 4441 
Q 881 4594 1212 4672 
Q 1544 4750 1819 4750 
Q 2544 4750 2975 4387 
Q 3406 4025 3406 3419 
Q 3406 3131 3298 2873 
Q 3191 2616 2906 2266 
Q 2828 2175 2409 1742 
Q 1991 1309 1228 531 
z
" transform="scale(0.015625)"/>
       </defs>
       <use xlink:href="#DejaVuSans-32"/>
       <use xlink:href="#DejaVuSans-30" x="63.623047"/>
       <use xlink:href="#DejaVuSans-30" x="127.246094"/>
      </g>
     </g>
    </g>
    <g id="xtick_3">
     <g id="line2d_3">
      <g>
       <use xlink:href="#m537acafc41" x="214.687045" y="303.64" style="stroke: #000000; stroke-width: 0.8"/>
      </g>
     </g>
     <g id="text_3">
      <!-- 400 -->
      <g transform="translate(205.143295 318.238437) scale(0.1 -0.1)">
       <defs>
        <path id="DejaVuSans-34" d="M 2419 4116 
L 825 1625 
L 2419 1625 
L 2419 4116 
z
M 2253 4666 
L 3047 4666 
L 3047 1625 
L 3713 1625 
L 3713 1100 
L 3047 1100 
L 3047 0 
L 2419 0 
L 2419 1100 
L 313 1100 
L 313 1709 
L 2253 4666 
z
" transform="scale(0.015625)"/>
       </defs>
       <use xlink:href="#DejaVuSans-34"/>
       <use xlink:href="#DejaVuSans-30" x="63.623047"/>
       <use xlink:href="#DejaVuSans-30" x="127.246094"/>
      </g>
     </g>
    </g>
    <g id="xtick_4">
     <g id="line2d_4">
      <g>
       <use xlink:href="#m537acafc41" x="284.38875" y="303.64" style="stroke: #000000; stroke-width: 0.8"/>
      </g>
     </g>
     <g id="text_4">
      <!-- 600 -->
      <g transform="translate(274.845 318.238437) scale(0.1 -0.1)">
       <defs>
        <path id="DejaVuSans-36" d="M 2113 2584 
Q 1688 2584 1439 2293 
Q 1191 2003 1191 1497 
Q 1191 994 1439 701 
Q 1688 409 2113 409 
Q 2538 409 2786 701 
Q 3034 994 3034 1497 
Q 3034 2003 2786 2293 
Q 2538 2584 2113 2584 
z
M 3366 4563 
L 3366 3988 
Q 3128 4100 2886 4159 
Q 2644 4219 2406 4219 
Q 1781 4219 1451 3797 
Q 1122 3375 1075 2522 
Q 1259 2794 1537 2939 
Q 1816 3084 2150 3084 
Q 2853 3084 3261 2657 
Q 3669 2231 3669 1497 
Q 3669 778 3244 343 
Q 2819 -91 2113 -91 
Q 1303 -91 875 529 
Q 447 1150 447 2328 
Q 447 3434 972 4092 
Q 1497 4750 2381 4750 
Q 2619 4750 2861 4703 
Q 3103 4656 3366 4563 
z
" transform="scale(0.015625)"/>
       </defs>
       <use xlink:href="#DejaVuSans-36"/>
       <use xlink:href="#DejaVuSans-30" x="63.623047"/>
       <use xlink:href="#DejaVuSans-30" x="127.246094"/>
      </g>
     </g>
    </g>
    <g id="xtick_5">
     <g id="line2d_5">
      <g>
       <use xlink:href="#m537acafc41" x="354.090455" y="303.64" style="stroke: #000000; stroke-width: 0.8"/>
      </g>
     </g>
     <g id="text_5">
      <!-- 800 -->
      <g transform="translate(344.546705 318.238437) scale(0.1 -0.1)">
       <defs>
        <path id="DejaVuSans-38" d="M 2034 2216 
Q 1584 2216 1326 1975 
Q 1069 1734 1069 1313 
Q 1069 891 1326 650 
Q 1584 409 2034 409 
Q 2484 409 2743 651 
Q 3003 894 3003 1313 
Q 3003 1734 2745 1975 
Q 2488 2216 2034 2216 
z
M 1403 2484 
Q 997 2584 770 2862 
Q 544 3141 544 3541 
Q 544 4100 942 4425 
Q 1341 4750 2034 4750 
Q 2731 4750 3128 4425 
Q 3525 4100 3525 3541 
Q 3525 3141 3298 2862 
Q 3072 2584 2669 2484 
Q 3125 2378 3379 2068 
Q 3634 1759 3634 1313 
Q 3634 634 3220 271 
Q 2806 -91 2034 -91 
Q 1263 -91 848 271 
Q 434 634 434 1313 
Q 434 1759 690 2068 
Q 947 2378 1403 2484 
z
M 1172 3481 
Q 1172 3119 1398 2916 
Q 1625 2713 2034 2713 
Q 2441 2713 2670 2916 
Q 2900 3119 2900 3481 
Q 2900 3844 2670 4047 
Q 2441 4250 2034 4250 
Q 1625 4250 1398 4047 
Q 1172 3844 1172 3481 
z
" transform="scale(0.015625)"/>
       </defs>
       <use xlink:href="#DejaVuSans-38"/>
       <use xlink:href="#DejaVuSans-30" x="63.623047"/>
       <use xlink:href="#DejaVuSans-30" x="127.246094"/>
      </g>
     </g>
    </g>
    <g id="xtick_6">
     <g id="line2d_6">
      <g>
       <use xlink:href="#m537acafc41" x="423.792159" y="303.64" style="stroke: #000000; stroke-width: 0.8"/>
      </g>
     </g>
     <g id="text_6">
      <!-- 1000 -->
      <g transform="translate(411.067159 318.238437) scale(0.1 -0.1)">
       <defs>
        <path id="DejaVuSans-31" d="M 794 531 
L 1825 531 
L 1825 4091 
L 703 3866 
L 703 4441 
L 1819 4666 
L 2450 4666 
L 2450 531 
L 3481 531 
L 3481 0 
L 794 0 
L 794 531 
z
" transform="scale(0.015625)"/>
       </defs>
       <use xlink:href="#DejaVuSans-31"/>
       <use xlink:href="#DejaVuSans-30" x="63.623047"/>
       <use xlink:href="#DejaVuSans-30" x="127.246094"/>
       <use xlink:href="#DejaVuSans-30" x="190.869141"/>
      </g>
     </g>
    </g>
    <g id="text_7">
     <!-- Sequence Length -->
     <g transform="translate(210.219219 331.916562) scale(0.1 -0.1)">
      <defs>
       <path id="DejaVuSans-53" d="M 3425 4513 
L 3425 3897 
Q 3066 4069 2747 4153 
Q 2428 4238 2131 4238 
Q 1616 4238 1336 4038 
Q 1056 3838 1056 3469 
Q 1056 3159 1242 3001 
Q 1428 2844 1947 2747 
L 2328 2669 
Q 3034 2534 3370 2195 
Q 3706 1856 3706 1288 
Q 3706 609 3251 259 
Q 2797 -91 1919 -91 
Q 1588 -91 1214 -16 
Q 841 59 441 206 
L 441 856 
Q 825 641 1194 531 
Q 1563 422 1919 422 
Q 2459 422 2753 634 
Q 3047 847 3047 1241 
Q 3047 1584 2836 1778 
Q 2625 1972 2144 2069 
L 1759 2144 
Q 1053 2284 737 2584 
Q 422 2884 422 3419 
Q 422 4038 858 4394 
Q 1294 4750 2059 4750 
Q 2388 4750 2728 4690 
Q 3069 4631 3425 4513 
z
" transform="scale(0.015625)"/>
       <path id="DejaVuSans-65" d="M 3597 1894 
L 3597 1613 
L 953 1613 
Q 991 1019 1311 708 
Q 1631 397 2203 397 
Q 2534 397 2845 478 
Q 3156 559 3463 722 
L 3463 178 
Q 3153 47 2828 -22 
Q 2503 -91 2169 -91 
Q 1331 -91 842 396 
Q 353 884 353 1716 
Q 353 2575 817 3079 
Q 1281 3584 2069 3584 
Q 2775 3584 3186 3129 
Q 3597 2675 3597 1894 
z
M 3022 2063 
Q 3016 2534 2758 2815 
Q 2500 3097 2075 3097 
Q 1594 3097 1305 2825 
Q 1016 2553 972 2059 
L 3022 2063 
z
" transform="scale(0.015625)"/>
       <path id="DejaVuSans-71" d="M 947 1747 
Q 947 1113 1208 752 
Q 1469 391 1925 391 
Q 2381 391 2643 752 
Q 2906 1113 2906 1747 
Q 2906 2381 2643 2742 
Q 2381 3103 1925 3103 
Q 1469 3103 1208 2742 
Q 947 2381 947 1747 
z
M 2906 525 
Q 2725 213 2448 61 
Q 2172 -91 1784 -91 
Q 1150 -91 751 415 
Q 353 922 353 1747 
Q 353 2572 751 3078 
Q 1150 3584 1784 3584 
Q 2172 3584 2448 3432 
Q 2725 3281 2906 2969 
L 2906 3500 
L 3481 3500 
L 3481 -1331 
L 2906 -1331 
L 2906 525 
z
" transform="scale(0.015625)"/>
       <path id="DejaVuSans-75" d="M 544 1381 
L 544 3500 
L 1119 3500 
L 1119 1403 
Q 1119 906 1312 657 
Q 1506 409 1894 409 
Q 2359 409 2629 706 
Q 2900 1003 2900 1516 
L 2900 3500 
L 3475 3500 
L 3475 0 
L 2900 0 
L 2900 538 
Q 2691 219 2414 64 
Q 2138 -91 1772 -91 
Q 1169 -91 856 284 
Q 544 659 544 1381 
z
M 1991 3584 
L 1991 3584 
z
" transform="scale(0.015625)"/>
       <path id="DejaVuSans-6e" d="M 3513 2113 
L 3513 0 
L 2938 0 
L 2938 2094 
Q 2938 2591 2744 2837 
Q 2550 3084 2163 3084 
Q 1697 3084 1428 2787 
Q 1159 2491 1159 1978 
L 1159 0 
L 581 0 
L 581 3500 
L 1159 3500 
L 1159 2956 
Q 1366 3272 1645 3428 
Q 1925 3584 2291 3584 
Q 2894 3584 3203 3211 
Q 3513 2838 3513 2113 
z
" transform="scale(0.015625)"/>
       <path id="DejaVuSans-63" d="M 3122 3366 
L 3122 2828 
Q 2878 2963 2633 3030 
Q 2388 3097 2138 3097 
Q 1578 3097 1268 2742 
Q 959 2388 959 1747 
Q 959 1106 1268 751 
Q 1578 397 2138 397 
Q 2388 397 2633 464 
Q 2878 531 3122 666 
L 3122 134 
Q 2881 22 2623 -34 
Q 2366 -91 2075 -91 
Q 1284 -91 818 406 
Q 353 903 353 1747 
Q 353 2603 823 3093 
Q 1294 3584 2113 3584 
Q 2378 3584 2631 3529 
Q 2884 3475 3122 3366 
z
" transform="scale(0.015625)"/>
       <path id="DejaVuSans-20" transform="scale(0.015625)"/>
       <path id="DejaVuSans-4c" d="M 628 4666 
L 1259 4666 
L 1259 531 
L 3531 531 
L 3531 0 
L 628 0 
L 628 4666 
z
" transform="scale(0.015625)"/>
       <path id="DejaVuSans-67" d="M 2906 1791 
Q 2906 2416 2648 2759 
Q 2391 3103 1925 3103 
Q 1463 3103 1205 2759 
Q 947 2416 947 1791 
Q 947 1169 1205 825 
Q 1463 481 1925 481 
Q 2391 481 2648 825 
Q 2906 1169 2906 1791 
z
M 3481 434 
Q 3481 -459 3084 -895 
Q 2688 -1331 1869 -1331 
Q 1566 -1331 1297 -1286 
Q 1028 -1241 775 -1147 
L 775 -588 
Q 1028 -725 1275 -790 
Q 1522 -856 1778 -856 
Q 2344 -856 2625 -561 
Q 2906 -266 2906 331 
L 2906 616 
Q 2728 306 2450 153 
Q 2172 0 1784 0 
Q 1141 0 747 490 
Q 353 981 353 1791 
Q 353 2603 747 3093 
Q 1141 3584 1784 3584 
Q 2172 3584 2450 3431 
Q 2728 3278 2906 2969 
L 2906 3500 
L 3481 3500 
L 3481 434 
z
" transform="scale(0.015625)"/>
       <path id="DejaVuSans-74" d="M 1172 4494 
L 1172 3500 
L 2356 3500 
L 2356 3053 
L 1172 3053 
L 1172 1153 
Q 1172 725 1289 603 
Q 1406 481 1766 481 
L 2356 481 
L 2356 0 
L 1766 0 
Q 1100 0 847 248 
Q 594 497 594 1153 
L 594 3053 
L 172 3053 
L 172 3500 
L 594 3500 
L 594 4494 
L 1172 4494 
z
" transform="scale(0.015625)"/>
       <path id="DejaVuSans-68" d="M 3513 2113 
L 3513 0 
L 2938 0 
L 2938 2094 
Q 2938 2591 2744 2837 
Q 2550 3084 2163 3084 
Q 1697 3084 1428 2787 
Q 1159 2491 1159 1978 
L 1159 0 
L 581 0 
L 581 4863 
L 1159 4863 
L 1159 2956 
Q 1366 3272 1645 3428 
Q 1925 3584 2291 3584 
Q 2894 3584 3203 3211 
Q 3513 2838 3513 2113 
z
" transform="scale(0.015625)"/>
      </defs>
      <use xlink:href="#DejaVuSans-53"/>
      <use xlink:href="#DejaVuSans-65" x="63.476562"/>
      <use xlink:href="#DejaVuSans-71" x="125"/>
      <use xlink:href="#DejaVuSans-75" x="188.476562"/>
      <use xlink:href="#DejaVuSans-65" x="251.855469"/>
      <use xlink:href="#DejaVuSans-6e" x="313.378906"/>
      <use xlink:href="#DejaVuSans-63" x="376.757812"/>
      <use xlink:href="#DejaVuSans-65" x="431.738281"/>
      <use xlink:href="#DejaVuSans-20" x="493.261719"/>
      <use xlink:href="#DejaVuSans-4c" x="525.048828"/>
      <use xlink:href="#DejaVuSans-65" x="579.011719"/>
      <use xlink:href="#DejaVuSans-6e" x="640.535156"/>
      <use xlink:href="#DejaVuSans-67" x="703.914062"/>
      <use xlink:href="#DejaVuSans-74" x="767.390625"/>
      <use xlink:href="#DejaVuSans-68" x="806.599609"/>
     </g>
    </g>
   </g>
   <g id="matplotlib.axis_2">
    <g id="ytick_1">
     <g id="line2d_7">
      <defs>
       <path id="m50836a71e2" d="M 0 0 
L -3.5 0 
" style="stroke: #000000; stroke-width: 0.8"/>
      </defs>
      <g>
       <use xlink:href="#m50836a71e2" x="57.44" y="295.526966" style="stroke: #000000; stroke-width: 0.8"/>
      </g>
     </g>
     <g id="text_8">
      <!-- 0 -->
      <g transform="translate(44.0775 299.326185) scale(0.1 -0.1)">
       <use xlink:href="#DejaVuSans-30"/>
      </g>
     </g>
    </g>
    <g id="ytick_2">
     <g id="line2d_8">
      <g>
       <use xlink:href="#m50836a71e2" x="57.44" y="250.202757" style="stroke: #000000; stroke-width: 0.8"/>
      </g>
     </g>
     <g id="text_9">
      <!-- 200 -->
      <g transform="translate(31.3525 254.001975) scale(0.1 -0.1)">
       <use xlink:href="#DejaVuSans-32"/>
       <use xlink:href="#DejaVuSans-30" x="63.623047"/>
       <use xlink:href="#DejaVuSans-30" x="127.246094"/>
      </g>
     </g>
    </g>
    <g id="ytick_3">
     <g id="line2d_9">
      <g>
       <use xlink:href="#m50836a71e2" x="57.44" y="204.878547" style="stroke: #000000; stroke-width: 0.8"/>
      </g>
     </g>
     <g id="text_10">
      <!-- 400 -->
      <g transform="translate(31.3525 208.677766) scale(0.1 -0.1)">
       <use xlink:href="#DejaVuSans-34"/>
       <use xlink:href="#DejaVuSans-30" x="63.623047"/>
       <use xlink:href="#DejaVuSans-30" x="127.246094"/>
      </g>
     </g>
    </g>
    <g id="ytick_4">
     <g id="line2d_10">
      <g>
       <use xlink:href="#m50836a71e2" x="57.44" y="159.554337" style="stroke: #000000; stroke-width: 0.8"/>
      </g>
     </g>
     <g id="text_11">
      <!-- 600 -->
      <g transform="translate(31.3525 163.353556) scale(0.1 -0.1)">
       <use xlink:href="#DejaVuSans-36"/>
       <use xlink:href="#DejaVuSans-30" x="63.623047"/>
       <use xlink:href="#DejaVuSans-30" x="127.246094"/>
      </g>
     </g>
    </g>
    <g id="ytick_5">
     <g id="line2d_11">
      <g>
       <use xlink:href="#m50836a71e2" x="57.44" y="114.230127" style="stroke: #000000; stroke-width: 0.8"/>
      </g>
     </g>
     <g id="text_12">
      <!-- 800 -->
      <g transform="translate(31.3525 118.029346) scale(0.1 -0.1)">
       <use xlink:href="#DejaVuSans-38"/>
       <use xlink:href="#DejaVuSans-30" x="63.623047"/>
       <use xlink:href="#DejaVuSans-30" x="127.246094"/>
      </g>
     </g>
    </g>
    <g id="ytick_6">
     <g id="line2d_12">
      <g>
       <use xlink:href="#m50836a71e2" x="57.44" y="68.905917" style="stroke: #000000; stroke-width: 0.8"/>
      </g>
     </g>
     <g id="text_13">
      <!-- 1000 -->
      <g transform="translate(24.99 72.705136) scale(0.1 -0.1)">
       <use xlink:href="#DejaVuSans-31"/>
       <use xlink:href="#DejaVuSans-30" x="63.623047"/>
       <use xlink:href="#DejaVuSans-30" x="127.246094"/>
       <use xlink:href="#DejaVuSans-30" x="190.869141"/>
      </g>
     </g>
    </g>
    <g id="text_14">
     <!-- Object Size (bytes) -->
     <g transform="translate(18.910312 211.943906) rotate(-90) scale(0.1 -0.1)">
      <defs>
       <path id="DejaVuSans-4f" d="M 2522 4238 
Q 1834 4238 1429 3725 
Q 1025 3213 1025 2328 
Q 1025 1447 1429 934 
Q 1834 422 2522 422 
Q 3209 422 3611 934 
Q 4013 1447 4013 2328 
Q 4013 3213 3611 3725 
Q 3209 4238 2522 4238 
z
M 2522 4750 
Q 3503 4750 4090 4092 
Q 4678 3434 4678 2328 
Q 4678 1225 4090 567 
Q 3503 -91 2522 -91 
Q 1538 -91 948 565 
Q 359 1222 359 2328 
Q 359 3434 948 4092 
Q 1538 4750 2522 4750 
z
" transform="scale(0.015625)"/>
       <path id="DejaVuSans-62" d="M 3116 1747 
Q 3116 2381 2855 2742 
Q 2594 3103 2138 3103 
Q 1681 3103 1420 2742 
Q 1159 2381 1159 1747 
Q 1159 1113 1420 752 
Q 1681 391 2138 391 
Q 2594 391 2855 752 
Q 3116 1113 3116 1747 
z
M 1159 2969 
Q 1341 3281 1617 3432 
Q 1894 3584 2278 3584 
Q 2916 3584 3314 3078 
Q 3713 2572 3713 1747 
Q 3713 922 3314 415 
Q 2916 -91 2278 -91 
Q 1894 -91 1617 61 
Q 1341 213 1159 525 
L 1159 0 
L 581 0 
L 581 4863 
L 1159 4863 
L 1159 2969 
z
" transform="scale(0.015625)"/>
       <path id="DejaVuSans-6a" d="M 603 3500 
L 1178 3500 
L 1178 -63 
Q 1178 -731 923 -1031 
Q 669 -1331 103 -1331 
L -116 -1331 
L -116 -844 
L 38 -844 
Q 366 -844 484 -692 
Q 603 -541 603 -63 
L 603 3500 
z
M 603 4863 
L 1178 4863 
L 1178 4134 
L 603 4134 
L 603 4863 
z
" transform="scale(0.015625)"/>
       <path id="DejaVuSans-69" d="M 603 3500 
L 1178 3500 
L 1178 0 
L 603 0 
L 603 3500 
z
M 603 4863 
L 1178 4863 
L 1178 4134 
L 603 4134 
L 603 4863 
z
" transform="scale(0.015625)"/>
       <path id="DejaVuSans-7a" d="M 353 3500 
L 3084 3500 
L 3084 2975 
L 922 459 
L 3084 459 
L 3084 0 
L 275 0 
L 275 525 
L 2438 3041 
L 353 3041 
L 353 3500 
z
" transform="scale(0.015625)"/>
       <path id="DejaVuSans-28" d="M 1984 4856 
Q 1566 4138 1362 3434 
Q 1159 2731 1159 2009 
Q 1159 1288 1364 580 
Q 1569 -128 1984 -844 
L 1484 -844 
Q 1016 -109 783 600 
Q 550 1309 550 2009 
Q 550 2706 781 3412 
Q 1013 4119 1484 4856 
L 1984 4856 
z
" transform="scale(0.015625)"/>
       <path id="DejaVuSans-79" d="M 2059 -325 
Q 1816 -950 1584 -1140 
Q 1353 -1331 966 -1331 
L 506 -1331 
L 506 -850 
L 844 -850 
Q 1081 -850 1212 -737 
Q 1344 -625 1503 -206 
L 1606 56 
L 191 3500 
L 800 3500 
L 1894 763 
L 2988 3500 
L 3597 3500 
L 2059 -325 
z
" transform="scale(0.015625)"/>
       <path id="DejaVuSans-73" d="M 2834 3397 
L 2834 2853 
Q 2591 2978 2328 3040 
Q 2066 3103 1784 3103 
Q 1356 3103 1142 2972 
Q 928 2841 928 2578 
Q 928 2378 1081 2264 
Q 1234 2150 1697 2047 
L 1894 2003 
Q 2506 1872 2764 1633 
Q 3022 1394 3022 966 
Q 3022 478 2636 193 
Q 2250 -91 1575 -91 
Q 1294 -91 989 -36 
Q 684 19 347 128 
L 347 722 
Q 666 556 975 473 
Q 1284 391 1588 391 
Q 1994 391 2212 530 
Q 2431 669 2431 922 
Q 2431 1156 2273 1281 
Q 2116 1406 1581 1522 
L 1381 1569 
Q 847 1681 609 1914 
Q 372 2147 372 2553 
Q 372 3047 722 3315 
Q 1072 3584 1716 3584 
Q 2034 3584 2315 3537 
Q 2597 3491 2834 3397 
z
" transform="scale(0.015625)"/>
       <path id="DejaVuSans-29" d="M 513 4856 
L 1013 4856 
Q 1481 4119 1714 3412 
Q 1947 2706 1947 2009 
Q 1947 1309 1714 600 
Q 1481 -109 1013 -844 
L 513 -844 
Q 928 -128 1133 580 
Q 1338 1288 1338 2009 
Q 1338 2731 1133 3434 
Q 928 4138 513 4856 
z
" transform="scale(0.015625)"/>
      </defs>
      <use xlink:href="#DejaVuSans-4f"/>
      <use xlink:href="#DejaVuSans-62" x="78.710938"/>
      <use xlink:href="#DejaVuSans-6a" x="142.1875"/>
      <use xlink:href="#DejaVuSans-65" x="169.970703"/>
      <use xlink:href="#DejaVuSans-63" x="231.494141"/>
      <use xlink:href="#DejaVuSans-74" x="286.474609"/>
      <use xlink:href="#DejaVuSans-20" x="325.683594"/>
      <use xlink:href="#DejaVuSans-53" x="357.470703"/>
      <use xlink:href="#DejaVuSans-69" x="420.947266"/>
      <use xlink:href="#DejaVuSans-7a" x="448.730469"/>
      <use xlink:href="#DejaVuSans-65" x="501.220703"/>
      <use xlink:href="#DejaVuSans-20" x="562.744141"/>
      <use xlink:href="#DejaVuSans-28" x="594.53125"/>
      <use xlink:href="#DejaVuSans-62" x="633.544922"/>
      <use xlink:href="#DejaVuSans-79" x="697.021484"/>
      <use xlink:href="#DejaVuSans-74" x="756.201172"/>
      <use xlink:href="#DejaVuSans-65" x="795.410156"/>
      <use xlink:href="#DejaVuSans-73" x="856.933594"/>
      <use xlink:href="#DejaVuSans-29" x="909.033203"/>
     </g>
    </g>
   </g>
   <g id="line2d_13">
    <path d="M 75.283636 288.275093 
L 86.435909 288.275093 
L 86.784418 284.649156 
L 97.588182 284.649156 
L 97.93669 282.836188 
L 108.740455 282.836188 
L 109.088963 281.023219 
L 119.892727 281.023219 
L 120.241236 279.210251 
L 131.045 279.210251 
L 131.393509 277.397283 
L 142.197273 277.397283 
L 142.545781 275.584314 
L 153.349545 275.584314 
L 153.698054 273.771346 
L 164.501818 273.771346 
L 164.850327 271.958377 
L 175.654091 271.958377 
L 176.002599 270.145409 
L 186.806364 270.145409 
L 187.154872 268.332441 
L 197.958636 268.332441 
L 198.307145 266.519472 
L 209.110909 266.519472 
L 209.459418 264.706504 
L 220.263182 264.706504 
L 220.61169 262.893535 
L 231.415455 262.893535 
L 231.763963 261.080567 
L 242.567727 261.080567 
L 242.916236 259.267599 
L 253.72 259.267599 
L 254.068509 257.45463 
L 264.872273 257.45463 
L 265.220781 255.641662 
L 276.024545 255.641662 
L 276.373054 253.828693 
L 287.176818 253.828693 
L 287.525327 252.015725 
L 298.329091 252.015725 
L 298.677599 250.202757 
L 309.481364 250.202757 
L 309.829872 248.389788 
L 320.633636 248.389788 
L 320.982145 246.57682 
L 331.785909 246.57682 
L 332.134418 244.763851 
L 342.938182 244.763851 
L 343.28669 242.950883 
L 354.090455 242.950883 
L 354.438963 241.137915 
L 365.242727 241.137915 
L 365.591236 239.324946 
L 376.395 239.324946 
L 376.743509 237.511978 
L 387.547273 237.511978 
L 387.895781 235.699009 
L 398.699545 235.699009 
L 399.048054 233.886041 
L 409.851818 233.886041 
L 410.200327 232.073073 
L 421.004091 232.073073 
L 421.352599 230.260104 
L 432.156364 230.260104 
L 432.156364 230.260104 
" clip-path="url(#pd27588378f)" style="fill: none; stroke: #1f77b4; stroke-width: 1.5; stroke-linecap: square"/>
   </g>
   <g id="line2d_14">
    <path d="M 75.283636 268.332441 
L 78.071705 268.332441 
L 78.420213 266.519472 
L 80.859773 266.519472 
L 81.208281 264.706504 
L 83.647841 264.706504 
L 83.996349 262.893535 
L 86.435909 262.893535 
L 86.784418 261.080567 
L 89.223977 261.080567 
L 89.572486 259.267599 
L 92.012045 259.267599 
L 92.360554 257.45463 
L 94.800114 257.45463 
L 95.148622 255.641662 
L 97.588182 255.641662 
L 97.93669 253.828693 
L 100.37625 253.828693 
L 100.724759 252.015725 
L 103.164318 252.015725 
L 103.512827 250.202757 
L 105.952386 250.202757 
L 106.300895 248.389788 
L 108.740455 248.389788 
L 109.088963 246.57682 
L 111.528523 246.57682 
L 111.877031 244.763851 
L 114.316591 244.763851 
L 114.665099 242.950883 
L 117.104659 242.950883 
L 117.453168 241.137915 
L 119.892727 241.137915 
L 120.241236 239.324946 
L 122.680795 239.324946 
L 123.029304 237.511978 
L 125.468864 237.511978 
L 125.817372 235.699009 
L 128.256932 235.699009 
L 128.60544 233.886041 
L 131.045 233.886041 
L 131.393509 232.073073 
L 133.833068 232.073073 
L 134.181577 230.260104 
L 136.621136 230.260104 
L 136.969645 228.447136 
L 139.409205 228.447136 
L 139.757713 226.634167 
L 142.197273 226.634167 
L 142.545781 224.821199 
L 144.985341 224.821199 
L 145.333849 223.008231 
L 147.773409 223.008231 
L 148.121918 221.195262 
L 150.561477 221.195262 
L 150.909986 219.382294 
L 153.349545 219.382294 
L 153.698054 217.569326 
L 156.137614 217.569326 
L 156.486122 215.756357 
L 158.925682 215.756357 
L 159.27419 213.943389 
L 161.71375 213.943389 
L 162.062259 212.13042 
L 164.501818 212.13042 
L 164.850327 210.317452 
L 167.289886 210.317452 
L 167.638395 208.504484 
L 170.077955 208.504484 
L 170.426463 206.691515 
L 172.866023 206.691515 
L 173.214531 204.878547 
L 175.654091 204.878547 
L 176.002599 203.065578 
L 178.442159 203.065578 
L 178.790668 201.25261 
L 181.230227 201.25261 
L 181.578736 199.439642 
L 184.018295 199.439642 
L 184.366804 197.626673 
L 186.806364 197.626673 
L 187.154872 195.813705 
L 189.594432 195.813705 
L 189.94294 194.000736 
L 192.3825 194.000736 
L 192.731009 192.187768 
L 195.170568 192.187768 
L 195.519077 190.3748 
L 197.958636 190.3748 
L 198.307145 188.561831 
L 200.746705 188.561831 
L 201.095213 186.748863 
L 203.534773 186.748863 
L 203.883281 184.935894 
L 206.322841 184.935894 
L 206.671349 183.122926 
L 209.110909 183.122926 
L 209.459418 181.309958 
L 211.898977 181.309958 
L 212.247486 179.496989 
L 214.687045 179.496989 
L 215.035554 177.684021 
L 217.475114 177.684021 
L 217.823622 175.871052 
L 220.263182 175.871052 
L 220.61169 174.058084 
L 223.05125 174.058084 
L 223.399759 172.245116 
L 225.839318 172.245116 
L 226.187827 170.432147 
L 228.627386 170.432147 
L 228.975895 168.619179 
L 231.415455 168.619179 
L 231.763963 166.80621 
L 234.203523 166.80621 
L 234.552031 164.993242 
L 236.991591 164.993242 
L 237.340099 163.180274 
L 239.779659 163.180274 
L 240.128168 161.367305 
L 242.567727 161.367305 
L 242.916236 159.554337 
L 245.355795 159.554337 
L 245.704304 157.741369 
L 248.143864 157.741369 
L 248.492372 155.9284 
L 250.931932 155.9284 
L 251.28044 154.115432 
L 253.72 154.115432 
L 254.068509 152.302463 
L 256.508068 152.302463 
L 256.856577 150.489495 
L 259.296136 150.489495 
L 259.644645 148.676527 
L 262.084205 148.676527 
L 262.432713 146.863558 
L 264.872273 146.863558 
L 265.220781 145.05059 
L 267.660341 145.05059 
L 268.008849 143.237621 
L 270.448409 143.237621 
L 270.796918 141.424653 
L 273.236477 141.424653 
L 273.584986 139.611685 
L 276.024545 139.611685 
L 276.373054 137.798716 
L 278.812614 137.798716 
L 279.161122 135.985748 
L 281.600682 135.985748 
L 281.94919 134.172779 
L 284.38875 134.172779 
L 284.737259 132.359811 
L 287.176818 132.359811 
L 287.525327 130.546843 
L 289.964886 130.546843 
L 290.313395 128.733874 
L 292.752955 128.733874 
L 293.101463 126.920906 
L 295.541023 126.920906 
L 295.889531 125.107937 
L 298.329091 125.107937 
L 298.677599 123.294969 
L 301.117159 123.294969 
L 301.465668 121.482001 
L 303.905227 121.482001 
L 304.253736 119.669032 
L 306.693295 119.669032 
L 307.041804 117.856064 
L 309.481364 117.856064 
L 309.829872 116.043095 
L 312.269432 116.043095 
L 312.61794 114.230127 
L 315.0575 114.230127 
L 315.406009 112.417159 
L 317.845568 112.417159 
L 318.194077 110.60419 
L 320.633636 110.60419 
L 320.982145 108.791222 
L 323.421705 108.791222 
L 323.770213 106.978254 
L 326.209773 106.978254 
L 326.558281 105.165285 
L 328.997841 105.165285 
L 329.346349 103.352317 
L 331.785909 103.352317 
L 332.134418 101.539348 
L 334.573977 101.539348 
L 334.922486 99.72638 
L 337.362045 99.72638 
L 337.710554 97.913412 
L 340.150114 97.913412 
L 340.498622 96.100443 
L 342.938182 96.100443 
L 343.28669 94.287475 
L 345.72625 94.287475 
L 346.074759 92.474506 
L 348.514318 92.474506 
L 348.862827 90.661538 
L 351.302386 90.661538 
L 351.650895 88.84857 
L 354.090455 88.84857 
L 354.438963 87.035601 
L 356.878523 87.035601 
L 357.227031 85.222633 
L 359.666591 85.222633 
L 360.015099 83.409664 
L 362.454659 83.409664 
L 362.803168 81.596696 
L 365.242727 81.596696 
L 365.591236 79.783728 
L 368.030795 79.783728 
L 368.379304 77.970759 
L 370.818864 77.970759 
L 371.167372 76.157791 
L 373.606932 76.157791 
L 373.95544 74.344822 
L 376.395 74.344822 
L 376.743509 72.531854 
L 379.183068 72.531854 
L 379.531577 70.718886 
L 381.971136 70.718886 
L 382.319645 68.905917 
L 384.759205 68.905917 
L 385.107713 67.092949 
L 387.547273 67.092949 
L 387.895781 65.27998 
L 390.335341 65.27998 
L 390.683849 63.467012 
L 393.123409 63.467012 
L 393.471918 61.654044 
L 395.911477 61.654044 
L 396.259986 59.841075 
L 398.699545 59.841075 
L 399.048054 58.028107 
L 401.487614 58.028107 
L 401.836122 56.215138 
L 404.275682 56.215138 
L 404.62419 54.40217 
L 407.06375 54.40217 
L 407.412259 52.589202 
L 409.851818 52.589202 
L 410.200327 50.776233 
L 412.639886 50.776233 
L 412.988395 48.963265 
L 415.427955 48.963265 
L 415.776463 47.150297 
L 418.216023 47.150297 
L 418.564531 45.337328 
L 421.004091 45.337328 
L 421.352599 43.52436 
L 423.792159 43.52436 
L 424.140668 41.711391 
L 426.580227 41.711391 
L 426.928736 39.898423 
L 429.368295 39.898423 
L 429.716804 38.085455 
L 432.156364 38.085455 
L 432.156364 38.085455 
" clip-path="url(#pd27588378f)" style="fill: none; stroke: #ff7f0e; stroke-width: 1.5; stroke-linecap: square"/>
   </g>
   <g id="line2d_15">
    <path d="M 75.283636 282.836188 
L 76.67767 282.836188 
L 77.026179 281.023219 
L 79.465739 281.023219 
L 79.814247 279.210251 
L 82.253807 279.210251 
L 82.602315 277.397283 
L 85.041875 277.397283 
L 85.390384 275.584314 
L 87.829943 275.584314 
L 88.178452 273.771346 
L 90.618011 273.771346 
L 90.96652 271.958377 
L 93.40608 271.958377 
L 93.754588 270.145409 
L 96.194148 270.145409 
L 96.542656 268.332441 
L 98.982216 268.332441 
L 99.330724 266.519472 
L 101.770284 266.519472 
L 102.118793 264.706504 
L 104.558352 264.706504 
L 104.906861 262.893535 
L 107.34642 262.893535 
L 107.694929 261.080567 
L 110.134489 261.080567 
L 110.482997 259.267599 
L 112.922557 259.267599 
L 113.271065 257.45463 
L 115.710625 257.45463 
L 116.059134 255.641662 
L 118.498693 255.641662 
L 118.847202 253.828693 
L 121.286761 253.828693 
L 121.63527 252.015725 
L 124.07483 252.015725 
L 124.423338 250.202757 
L 126.862898 250.202757 
L 127.211406 248.389788 
L 129.650966 248.389788 
L 129.999474 246.57682 
L 132.439034 246.57682 
L 132.787543 244.763851 
L 135.227102 244.763851 
L 135.575611 242.950883 
L 138.01517 242.950883 
L 138.363679 241.137915 
L 140.803239 241.137915 
L 141.151747 239.324946 
L 143.591307 239.324946 
L 143.939815 237.511978 
L 146.379375 237.511978 
L 146.727884 235.699009 
L 149.167443 235.699009 
L 149.515952 233.886041 
L 151.955511 233.886041 
L 152.30402 232.073073 
L 154.74358 232.073073 
L 155.092088 230.260104 
L 157.531648 230.260104 
L 157.880156 228.447136 
L 160.319716 228.447136 
L 160.668224 226.634167 
L 163.107784 226.634167 
L 163.456293 224.821199 
L 165.895852 224.821199 
L 166.244361 223.008231 
L 168.68392 223.008231 
L 169.032429 221.195262 
L 171.471989 221.195262 
L 171.820497 219.382294 
L 174.260057 219.382294 
L 174.608565 217.569326 
L 177.048125 217.569326 
L 177.396634 215.756357 
L 179.836193 215.756357 
L 180.184702 213.943389 
L 182.624261 213.943389 
L 182.97277 212.13042 
L 185.41233 212.13042 
L 185.760838 210.317452 
L 188.200398 210.317452 
L 188.548906 208.504484 
L 190.988466 208.504484 
L 191.336974 206.691515 
L 193.776534 206.691515 
L 194.125043 204.878547 
L 196.564602 204.878547 
L 196.913111 203.065578 
L 199.35267 203.065578 
L 199.701179 201.25261 
L 202.140739 201.25261 
L 202.489247 199.439642 
L 204.928807 199.439642 
L 205.277315 197.626673 
L 207.716875 197.626673 
L 208.065384 195.813705 
L 210.504943 195.813705 
L 210.853452 194.000736 
L 213.293011 194.000736 
L 213.64152 192.187768 
L 216.08108 192.187768 
L 216.429588 190.3748 
L 218.869148 190.3748 
L 219.217656 188.561831 
L 221.657216 188.561831 
L 222.005724 186.748863 
L 224.445284 186.748863 
L 224.793793 184.935894 
L 227.233352 184.935894 
L 227.581861 183.122926 
L 230.02142 183.122926 
L 230.369929 181.309958 
L 232.809489 181.309958 
L 233.157997 179.496989 
L 235.597557 179.496989 
L 235.946065 177.684021 
L 238.385625 177.684021 
L 238.734134 175.871052 
L 241.173693 175.871052 
L 241.522202 174.058084 
L 243.961761 174.058084 
L 244.31027 172.245116 
L 246.74983 172.245116 
L 247.098338 170.432147 
L 249.537898 170.432147 
L 249.886406 168.619179 
L 252.325966 168.619179 
L 252.674474 166.80621 
L 255.114034 166.80621 
L 255.462543 164.993242 
L 257.902102 164.993242 
L 258.250611 163.180274 
L 260.69017 163.180274 
L 261.038679 161.367305 
L 263.478239 161.367305 
L 263.826747 159.554337 
L 266.266307 159.554337 
L 266.614815 157.741369 
L 269.054375 157.741369 
L 269.402884 155.9284 
L 271.842443 155.9284 
L 272.190952 154.115432 
L 274.630511 154.115432 
L 274.97902 152.302463 
L 277.41858 152.302463 
L 277.767088 150.489495 
L 280.206648 150.489495 
L 280.555156 148.676527 
L 282.994716 148.676527 
L 283.343224 146.863558 
L 285.782784 146.863558 
L 286.131293 145.05059 
L 288.570852 145.05059 
L 288.919361 143.237621 
L 291.35892 143.237621 
L 291.707429 141.424653 
L 294.146989 141.424653 
L 294.495497 139.611685 
L 296.935057 139.611685 
L 297.283565 137.798716 
L 299.723125 137.798716 
L 300.071634 135.985748 
L 302.511193 135.985748 
L 302.859702 134.172779 
L 305.299261 134.172779 
L 305.64777 132.359811 
L 308.08733 132.359811 
L 308.435838 130.546843 
L 310.875398 130.546843 
L 311.223906 128.733874 
L 313.663466 128.733874 
L 314.011974 126.920906 
L 316.451534 126.920906 
L 316.800043 125.107937 
L 319.239602 125.107937 
L 319.588111 123.294969 
L 322.02767 123.294969 
L 322.376179 121.482001 
L 324.815739 121.482001 
L 325.164247 119.669032 
L 327.603807 119.669032 
L 327.952315 117.856064 
L 330.391875 117.856064 
L 330.740384 116.043095 
L 333.179943 116.043095 
L 333.528452 114.230127 
L 335.968011 114.230127 
L 336.31652 112.417159 
L 338.75608 112.417159 
L 339.104588 110.60419 
L 341.544148 110.60419 
L 341.892656 108.791222 
L 344.332216 108.791222 
L 344.680724 106.978254 
L 347.120284 106.978254 
L 347.468793 105.165285 
L 349.908352 105.165285 
L 350.256861 103.352317 
L 352.69642 103.352317 
L 353.044929 101.539348 
L 355.484489 101.539348 
L 355.832997 99.72638 
L 358.272557 99.72638 
L 358.621065 97.913412 
L 361.060625 97.913412 
L 361.409134 96.100443 
L 363.848693 96.100443 
L 364.197202 94.287475 
L 366.636761 94.287475 
L 366.98527 92.474506 
L 369.42483 92.474506 
L 369.773338 90.661538 
L 372.212898 90.661538 
L 372.561406 88.84857 
L 375.000966 88.84857 
L 375.349474 87.035601 
L 377.789034 87.035601 
L 378.137543 85.222633 
L 380.577102 85.222633 
L 380.925611 83.409664 
L 383.36517 83.409664 
L 383.713679 81.596696 
L 386.153239 81.596696 
L 386.501747 79.783728 
L 388.941307 79.783728 
L 389.289815 77.970759 
L 391.729375 77.970759 
L 392.077884 76.157791 
L 394.517443 76.157791 
L 394.865952 74.344822 
L 397.305511 74.344822 
L 397.65402 72.531854 
L 400.09358 72.531854 
L 400.442088 70.718886 
L 402.881648 70.718886 
L 403.230156 68.905917 
L 405.669716 68.905917 
L 406.018224 67.092949 
L 408.457784 67.092949 
L 408.806293 65.27998 
L 411.245852 65.27998 
L 411.594361 63.467012 
L 414.03392 63.467012 
L 414.382429 61.654044 
L 416.821989 61.654044 
L 417.170497 59.841075 
L 419.610057 59.841075 
L 419.958565 58.028107 
L 422.398125 58.028107 
L 422.746634 56.215138 
L 425.186193 56.215138 
L 425.534702 54.40217 
L 427.974261 54.40217 
L 428.32277 52.589202 
L 430.76233 52.589202 
L 431.110838 50.776233 
L 432.156364 50.776233 
L 432.156364 50.776233 
" clip-path="url(#pd27588378f)" style="fill: none; stroke: #2ca02c; stroke-width: 1.5; stroke-linecap: square"/>
   </g>
   <g id="line2d_16">
    <path d="M 75.283636 286.462124 
L 77.723196 286.462124 
L 78.071705 284.649156 
L 80.511264 284.649156 
L 80.859773 282.836188 
L 83.299332 282.836188 
L 83.647841 281.023219 
L 86.087401 281.023219 
L 86.435909 279.210251 
L 88.875469 279.210251 
L 89.223977 277.397283 
L 91.663537 277.397283 
L 92.012045 275.584314 
L 94.451605 275.584314 
L 94.800114 273.771346 
L 97.239673 273.771346 
L 97.588182 271.958377 
L 100.027741 271.958377 
L 100.37625 270.145409 
L 102.81581 270.145409 
L 103.164318 268.332441 
L 105.603878 268.332441 
L 105.952386 266.519472 
L 108.391946 266.519472 
L 108.740455 264.706504 
L 111.180014 264.706504 
L 111.528523 262.893535 
L 113.968082 262.893535 
L 114.316591 261.080567 
L 116.756151 261.080567 
L 117.104659 259.267599 
L 119.544219 259.267599 
L 119.892727 257.45463 
L 122.332287 257.45463 
L 122.680795 255.641662 
L 125.120355 255.641662 
L 125.468864 253.828693 
L 127.908423 253.828693 
L 128.256932 252.015725 
L 130.696491 252.015725 
L 131.045 250.202757 
L 133.48456 250.202757 
L 133.833068 248.389788 
L 136.272628 248.389788 
L 136.621136 246.57682 
L 139.060696 246.57682 
L 139.409205 244.763851 
L 141.848764 244.763851 
L 142.197273 242.950883 
L 144.636832 242.950883 
L 144.985341 241.137915 
L 147.424901 241.137915 
L 147.773409 239.324946 
L 150.212969 239.324946 
L 150.561477 237.511978 
L 153.001037 237.511978 
L 153.349545 235.699009 
L 155.789105 235.699009 
L 156.137614 233.886041 
L 158.577173 233.886041 
L 158.925682 232.073073 
L 161.365241 232.073073 
L 161.71375 230.260104 
L 164.15331 230.260104 
L 164.501818 228.447136 
L 166.941378 228.447136 
L 167.289886 226.634167 
L 169.729446 226.634167 
L 170.077955 224.821199 
L 172.517514 224.821199 
L 172.866023 223.008231 
L 175.305582 223.008231 
L 175.654091 221.195262 
L 178.093651 221.195262 
L 178.442159 219.382294 
L 180.881719 219.382294 
L 181.230227 217.569326 
L 183.669787 217.569326 
L 184.018295 215.756357 
L 186.457855 215.756357 
L 186.806364 213.943389 
L 189.245923 213.943389 
L 189.594432 212.13042 
L 192.033991 212.13042 
L 192.3825 210.317452 
L 194.82206 210.317452 
L 195.170568 208.504484 
L 197.610128 208.504484 
L 197.958636 206.691515 
L 200.398196 206.691515 
L 200.746705 204.878547 
L 203.186264 204.878547 
L 203.534773 203.065578 
L 205.974332 203.065578 
L 206.322841 201.25261 
L 208.762401 201.25261 
L 209.110909 199.439642 
L 211.550469 199.439642 
L 211.898977 197.626673 
L 214.338537 197.626673 
L 214.687045 195.813705 
L 217.126605 195.813705 
L 217.475114 194.000736 
L 219.914673 194.000736 
L 220.263182 192.187768 
L 222.702741 192.187768 
L 223.05125 190.3748 
L 225.49081 190.3748 
L 225.839318 188.561831 
L 228.278878 188.561831 
L 228.627386 186.748863 
L 231.066946 186.748863 
L 231.415455 184.935894 
L 233.855014 184.935894 
L 234.203523 183.122926 
L 236.643082 183.122926 
L 236.991591 181.309958 
L 239.431151 181.309958 
L 239.779659 179.496989 
L 242.219219 179.496989 
L 242.567727 177.684021 
L 245.007287 177.684021 
L 245.355795 175.871052 
L 247.795355 175.871052 
L 248.143864 174.058084 
L 250.583423 174.058084 
L 250.931932 172.245116 
L 253.371491 172.245116 
L 253.72 170.432147 
L 256.15956 170.432147 
L 256.508068 168.619179 
L 258.947628 168.619179 
L 259.296136 166.80621 
L 261.735696 166.80621 
L 262.084205 164.993242 
L 264.523764 164.993242 
L 264.872273 163.180274 
L 267.311832 163.180274 
L 267.660341 161.367305 
L 270.099901 161.367305 
L 270.448409 159.554337 
L 272.887969 159.554337 
L 273.236477 157.741369 
L 275.676037 157.741369 
L 276.024545 155.9284 
L 278.464105 155.9284 
L 278.812614 154.115432 
L 281.252173 154.115432 
L 281.600682 152.302463 
L 284.040241 152.302463 
L 284.38875 150.489495 
L 286.82831 150.489495 
L 287.176818 148.676527 
L 289.616378 148.676527 
L 289.964886 146.863558 
L 292.404446 146.863558 
L 292.752955 145.05059 
L 295.192514 145.05059 
L 295.541023 143.237621 
L 297.980582 143.237621 
L 298.329091 141.424653 
L 300.768651 141.424653 
L 301.117159 139.611685 
L 303.556719 139.611685 
L 303.905227 137.798716 
L 306.344787 137.798716 
L 306.693295 135.985748 
L 309.132855 135.985748 
L 309.481364 134.172779 
L 311.920923 134.172779 
L 312.269432 132.359811 
L 314.708991 132.359811 
L 315.0575 130.546843 
L 317.49706 130.546843 
L 317.845568 128.733874 
L 320.285128 128.733874 
L 320.633636 126.920906 
L 323.073196 126.920906 
L 323.421705 125.107937 
L 325.861264 125.107937 
L 326.209773 123.294969 
L 328.649332 123.294969 
L 328.997841 121.482001 
L 331.437401 121.482001 
L 331.785909 119.669032 
L 334.225469 119.669032 
L 334.573977 117.856064 
L 337.013537 117.856064 
L 337.362045 116.043095 
L 339.801605 116.043095 
L 340.150114 114.230127 
L 342.589673 114.230127 
L 342.938182 112.417159 
L 345.377741 112.417159 
L 345.72625 110.60419 
L 348.16581 110.60419 
L 348.514318 108.791222 
L 350.953878 108.791222 
L 351.302386 106.978254 
L 353.741946 106.978254 
L 354.090455 105.165285 
L 356.530014 105.165285 
L 356.878523 103.352317 
L 359.318082 103.352317 
L 359.666591 101.539348 
L 362.106151 101.539348 
L 362.454659 99.72638 
L 364.894219 99.72638 
L 365.242727 97.913412 
L 367.682287 97.913412 
L 368.030795 96.100443 
L 370.470355 96.100443 
L 370.818864 94.287475 
L 373.258423 94.287475 
L 373.606932 92.474506 
L 376.046491 92.474506 
L 376.395 90.661538 
L 378.83456 90.661538 
L 379.183068 88.84857 
L 381.622628 88.84857 
L 381.971136 87.035601 
L 384.410696 87.035601 
L 384.759205 85.222633 
L 387.198764 85.222633 
L 387.547273 83.409664 
L 389.986832 83.409664 
L 390.335341 81.596696 
L 392.774901 81.596696 
L 393.123409 79.783728 
L 395.562969 79.783728 
L 395.911477 77.970759 
L 398.351037 77.970759 
L 398.699545 76.157791 
L 401.139105 76.157791 
L 401.487614 74.344822 
L 403.927173 74.344822 
L 404.275682 72.531854 
L 406.715241 72.531854 
L 407.06375 70.718886 
L 409.50331 70.718886 
L 409.851818 68.905917 
L 412.291378 68.905917 
L 412.639886 67.092949 
L 415.079446 67.092949 
L 415.427955 65.27998 
L 417.867514 65.27998 
L 418.216023 63.467012 
L 420.655582 63.467012 
L 421.004091 61.654044 
L 423.443651 61.654044 
L 423.792159 59.841075 
L 426.231719 59.841075 
L 426.580227 58.028107 
L 429.019787 58.028107 
L 429.368295 56.215138 
L 431.807855 56.215138 
L 432.156364 54.40217 
L 432.156364 54.40217 
" clip-path="url(#pd27588378f)" style="fill: none; stroke: #d62728; stroke-width: 1.5; stroke-linecap: square"/>
   </g>
   <g id="line2d_17">
    <path d="M 75.283636 290.994545 
L 78.071705 289.181577 
L 78.420213 289.408198 
L 78.768722 288.728335 
L 79.11723 288.954956 
L 79.465739 288.275093 
L 80.162756 287.821851 
L 80.511264 288.048472 
L 80.859773 288.048472 
L 81.208281 287.59523 
L 81.55679 287.368609 
L 81.905298 286.688746 
L 82.253807 286.462124 
L 82.602315 286.915367 
L 83.299332 286.462124 
L 83.647841 286.008882 
L 83.996349 286.235503 
L 84.344858 286.915367 
L 84.693366 285.55564 
L 85.041875 285.55564 
L 85.390384 286.235503 
L 85.738892 285.329019 
L 86.087401 285.782261 
L 86.435909 285.102398 
L 86.784418 285.102398 
L 87.132926 284.875777 
L 87.481435 284.875777 
L 88.178452 284.422535 
L 89.920994 284.422535 
L 90.618011 283.969293 
L 91.315028 283.969293 
L 91.663537 283.742672 
L 92.012045 283.969293 
L 92.709063 283.516051 
L 93.057571 283.742672 
L 93.40608 283.062809 
L 93.754588 283.28943 
L 94.103097 283.062809 
L 94.451605 283.28943 
L 95.148622 283.28943 
L 95.497131 282.836188 
L 95.845639 283.062809 
L 96.194148 282.609567 
L 96.542656 283.062809 
L 96.891165 282.609567 
L 97.239673 282.382946 
L 98.285199 282.382946 
L 98.633707 282.156325 
L 98.982216 282.382946 
L 99.679233 281.929703 
L 100.37625 281.929703 
L 100.724759 281.703082 
L 101.073267 281.703082 
L 101.421776 282.156325 
L 101.770284 281.476461 
L 102.118793 281.476461 
L 102.81581 281.023219 
L 103.164318 281.023219 
L 103.512827 280.569977 
L 103.861335 280.796598 
L 104.209844 280.796598 
L 104.558352 280.343356 
L 105.255369 280.796598 
L 105.603878 280.116735 
L 105.952386 280.116735 
L 106.300895 280.569977 
L 107.34642 279.890114 
L 107.694929 280.116735 
L 108.043437 279.890114 
L 108.391946 280.116735 
L 108.740455 279.436872 
L 109.088963 279.890114 
L 109.437472 279.210251 
L 109.78598 279.663493 
L 110.134489 279.436872 
L 110.482997 278.98363 
L 110.831506 278.98363 
L 111.180014 279.210251 
L 111.877031 278.757009 
L 112.22554 278.98363 
L 112.574048 278.757009 
L 112.922557 278.757009 
L 113.271065 278.530388 
L 114.316591 278.530388 
L 114.665099 278.757009 
L 115.013608 278.077146 
L 115.710625 278.530388 
L 116.407642 278.530388 
L 116.756151 277.397283 
L 117.104659 278.077146 
L 117.453168 277.623904 
L 117.801676 277.850525 
L 118.150185 277.170661 
L 118.498693 277.623904 
L 118.847202 277.170661 
L 119.19571 277.623904 
L 119.544219 277.170661 
L 119.892727 277.170661 
L 120.241236 277.623904 
L 120.589744 276.94404 
L 120.938253 276.94404 
L 121.286761 276.717419 
L 121.63527 276.94404 
L 121.983778 276.037556 
L 122.332287 276.490798 
L 123.029304 276.490798 
L 123.377813 276.94404 
L 124.07483 275.584314 
L 124.423338 276.264177 
L 124.771847 275.810935 
L 125.120355 276.264177 
L 125.468864 276.037556 
L 125.817372 275.131072 
L 126.165881 275.584314 
L 126.514389 275.584314 
L 126.862898 275.131072 
L 127.211406 275.357693 
L 127.559915 275.131072 
L 127.908423 275.131072 
L 128.256932 275.357693 
L 128.953949 275.357693 
L 129.302457 274.904451 
L 129.650966 275.131072 
L 129.999474 274.904451 
L 130.347983 274.451209 
L 130.696491 274.904451 
L 131.045 273.997967 
L 131.393509 274.451209 
L 131.742017 274.67783 
L 132.439034 273.771346 
L 132.787543 274.224588 
L 133.136051 273.544725 
L 133.48456 274.224588 
L 133.833068 273.771346 
L 134.181577 273.771346 
L 134.530085 273.091483 
L 134.878594 273.771346 
L 135.575611 274.224588 
L 136.272628 273.318104 
L 136.621136 273.544725 
L 137.666662 272.864862 
L 138.01517 273.091483 
L 138.363679 272.63824 
L 138.712187 272.63824 
L 139.060696 273.091483 
L 139.409205 272.63824 
L 139.757713 272.411619 
L 140.106222 272.63824 
L 140.45473 272.184998 
L 140.803239 272.864862 
L 141.151747 271.958377 
L 141.500256 271.505135 
L 141.848764 271.958377 
L 142.197273 271.731756 
L 142.545781 271.731756 
L 142.89429 271.278514 
L 143.242798 271.958377 
L 143.591307 271.505135 
L 143.939815 271.731756 
L 144.288324 272.864862 
L 144.636832 271.958377 
L 144.985341 270.598651 
L 145.333849 271.278514 
L 145.682358 271.051893 
L 146.030866 271.278514 
L 146.379375 270.598651 
L 146.727884 270.598651 
L 147.076392 271.278514 
L 147.424901 271.051893 
L 147.773409 270.145409 
L 148.470426 270.598651 
L 149.167443 270.145409 
L 149.515952 270.37203 
L 149.86446 270.37203 
L 150.212969 269.918788 
L 150.561477 269.918788 
L 150.909986 269.465546 
L 151.258494 270.145409 
L 151.607003 269.692167 
L 151.955511 269.918788 
L 152.30402 269.238925 
L 152.652528 269.692167 
L 153.001037 269.692167 
L 153.349545 269.465546 
L 153.698054 269.465546 
L 154.046562 269.012304 
L 154.395071 269.238925 
L 154.74358 269.238925 
L 155.092088 268.559062 
L 155.440597 268.785683 
L 155.789105 269.238925 
L 156.137614 269.012304 
L 156.486122 268.559062 
L 156.834631 269.465546 
L 157.183139 269.012304 
L 157.531648 269.012304 
L 157.880156 268.785683 
L 158.228665 268.332441 
L 158.925682 267.879198 
L 159.27419 268.559062 
L 159.622699 267.652577 
L 159.971207 267.652577 
L 160.319716 268.332441 
L 160.668224 267.879198 
L 161.016733 267.652577 
L 161.365241 267.652577 
L 161.71375 267.879198 
L 162.062259 266.972714 
L 162.410767 267.199335 
L 162.759276 266.972714 
L 163.107784 267.879198 
L 163.456293 267.879198 
L 163.804801 266.972714 
L 164.501818 266.519472 
L 164.850327 267.199335 
L 165.198835 266.746093 
L 165.547344 266.519472 
L 165.895852 266.746093 
L 166.244361 266.292851 
L 166.592869 266.292851 
L 166.941378 265.839609 
L 167.289886 266.746093 
L 167.638395 266.06623 
L 167.986903 266.519472 
L 168.68392 266.06623 
L 169.032429 265.612988 
L 169.380938 266.292851 
L 169.729446 266.06623 
L 170.077955 265.159746 
L 170.426463 265.159746 
L 170.774972 265.386367 
L 171.12348 264.933125 
L 171.820497 266.292851 
L 172.169006 264.479883 
L 172.517514 265.159746 
L 172.866023 264.253262 
L 173.56304 265.159746 
L 173.911548 264.706504 
L 174.260057 265.386367 
L 174.608565 264.253262 
L 174.957074 264.253262 
L 175.305582 264.479883 
L 175.654091 264.933125 
L 176.351108 263.573399 
L 176.699616 264.253262 
L 177.048125 263.80002 
L 177.396634 263.573399 
L 177.745142 264.253262 
L 178.093651 264.253262 
L 178.442159 263.80002 
L 178.790668 263.573399 
L 179.139176 264.026641 
L 179.487685 264.026641 
L 179.836193 263.346777 
L 180.184702 263.80002 
L 180.53321 263.80002 
L 180.881719 263.120156 
L 181.230227 263.120156 
L 181.578736 263.573399 
L 181.927244 263.573399 
L 182.275753 262.440293 
L 182.624261 263.120156 
L 182.97277 262.666914 
L 183.321278 262.666914 
L 183.669787 263.120156 
L 184.018295 261.987051 
L 184.715312 262.893535 
L 185.063821 262.440293 
L 185.41233 262.440293 
L 186.806364 261.533809 
L 187.503381 261.533809 
L 188.200398 261.987051 
L 188.548906 260.853946 
L 188.897415 261.76043 
L 189.594432 261.76043 
L 189.94294 261.987051 
L 190.291449 261.76043 
L 190.639957 261.987051 
L 190.988466 261.533809 
L 191.336974 260.853946 
L 191.685483 261.307188 
L 192.033991 260.400704 
L 192.3825 260.853946 
L 192.731009 260.174083 
L 193.428026 260.174083 
L 193.776534 260.400704 
L 194.125043 260.174083 
L 194.473551 260.627325 
L 194.82206 259.720841 
L 195.170568 260.627325 
L 195.519077 260.627325 
L 195.867585 259.947462 
L 196.216094 258.814356 
L 196.564602 259.49422 
L 196.913111 259.040978 
L 197.261619 259.720841 
L 197.610128 259.040978 
L 197.958636 258.814356 
L 198.307145 258.814356 
L 198.655653 259.49422 
L 199.004162 259.49422 
L 199.35267 259.267599 
L 199.701179 258.814356 
L 200.049688 258.814356 
L 200.398196 259.267599 
L 200.746705 258.814356 
L 201.095213 257.907872 
L 201.443722 259.040978 
L 201.79223 259.040978 
L 202.140739 258.814356 
L 202.489247 259.267599 
L 202.837756 258.587735 
L 203.186264 258.587735 
L 203.534773 258.134493 
L 203.883281 258.361114 
L 204.23179 257.907872 
L 204.580298 257.681251 
L 204.928807 258.134493 
L 205.277315 257.001388 
L 205.625824 257.907872 
L 205.974332 258.134493 
L 206.322841 258.134493 
L 206.671349 258.361114 
L 207.019858 256.774767 
L 207.368366 258.134493 
L 208.065384 256.548146 
L 208.413892 257.001388 
L 208.762401 256.774767 
L 209.110909 257.681251 
L 209.807926 256.774767 
L 210.156435 257.228009 
L 210.504943 256.094904 
L 210.853452 255.868283 
L 211.20196 256.774767 
L 211.898977 257.228009 
L 212.247486 256.548146 
L 212.595994 256.321525 
L 213.990028 256.321525 
L 214.687045 254.735178 
L 215.035554 254.735178 
L 215.384062 255.868283 
L 215.732571 255.641662 
L 216.08108 255.18842 
L 217.126605 255.868283 
L 217.475114 255.641662 
L 217.823622 254.961799 
L 218.172131 254.961799 
L 218.520639 254.281935 
L 218.869148 254.735178 
L 219.217656 254.508557 
L 219.566165 255.415041 
L 219.914673 254.961799 
L 220.263182 254.281935 
L 220.61169 254.055314 
L 220.960199 254.508557 
L 221.308707 254.281935 
L 221.657216 254.735178 
L 222.005724 254.508557 
L 222.354233 253.602072 
L 222.702741 254.281935 
L 223.05125 254.055314 
L 223.399759 254.281935 
L 223.748267 253.602072 
L 224.096776 254.281935 
L 224.445284 253.602072 
L 224.793793 254.508557 
L 225.142301 254.281935 
L 225.49081 253.828693 
L 225.839318 254.281935 
L 226.187827 252.015725 
L 226.536335 253.14883 
L 226.884844 253.375451 
L 227.233352 252.695588 
L 227.581861 253.375451 
L 227.930369 252.242346 
L 228.627386 252.695588 
L 228.975895 251.789104 
L 229.672912 253.375451 
L 230.02142 252.015725 
L 230.369929 252.468967 
L 230.718437 252.468967 
L 231.066946 252.695588 
L 231.415455 251.789104 
L 231.763963 251.789104 
L 232.112472 252.695588 
L 232.46098 252.922209 
L 232.809489 252.695588 
L 233.157997 251.789104 
L 233.506506 251.789104 
L 233.855014 250.655999 
L 234.203523 252.015725 
L 234.552031 250.88262 
L 234.90054 251.562483 
L 235.249048 250.88262 
L 235.597557 250.655999 
L 235.946065 251.335862 
L 236.294574 250.429378 
L 236.643082 250.88262 
L 236.991591 250.88262 
L 237.340099 251.335862 
L 237.688608 251.109241 
L 238.037116 251.335862 
L 238.385625 250.655999 
L 238.734134 250.655999 
L 239.082642 249.976136 
L 239.431151 250.88262 
L 239.779659 250.88262 
L 240.128168 250.655999 
L 240.476676 249.749514 
L 240.825185 249.522893 
L 241.173693 250.202757 
L 241.522202 250.429378 
L 241.87071 249.522893 
L 242.219219 250.202757 
L 242.567727 248.84303 
L 242.916236 249.522893 
L 243.264744 248.84303 
L 243.613253 250.429378 
L 243.961761 248.84303 
L 244.31027 249.522893 
L 244.658778 249.296272 
L 245.007287 248.84303 
L 245.355795 248.163167 
L 245.704304 249.069651 
L 246.052812 248.84303 
L 246.401321 248.389788 
L 246.74983 249.069651 
L 247.098338 248.389788 
L 247.446847 248.616409 
L 247.795355 248.389788 
L 248.143864 248.84303 
L 248.492372 248.163167 
L 248.840881 248.389788 
L 249.189389 248.163167 
L 249.537898 249.069651 
L 249.886406 246.57682 
L 250.583423 247.709925 
L 250.931932 247.709925 
L 251.28044 248.616409 
L 251.628949 247.030062 
L 251.977457 246.803441 
L 252.674474 248.163167 
L 253.022983 246.803441 
L 253.371491 247.936546 
L 253.72 246.803441 
L 254.068509 247.256683 
L 254.417017 247.483304 
L 254.765526 246.123578 
L 255.114034 246.803441 
L 255.462543 246.57682 
L 255.811051 247.030062 
L 256.15956 246.803441 
L 256.508068 247.709925 
L 256.856577 246.803441 
L 257.205085 246.350199 
L 257.553594 247.256683 
L 257.902102 246.57682 
L 258.250611 246.57682 
L 258.599119 245.443715 
L 258.947628 246.350199 
L 259.296136 246.123578 
L 259.644645 246.123578 
L 259.993153 245.670336 
L 260.341662 245.896957 
L 260.69017 245.217094 
L 261.038679 246.123578 
L 261.387187 245.896957 
L 261.735696 244.990472 
L 262.084205 246.123578 
L 262.432713 245.896957 
L 262.781222 244.990472 
L 263.12973 245.670336 
L 263.478239 244.083988 
L 263.826747 244.310609 
L 264.175256 244.763851 
L 264.523764 244.53723 
L 264.872273 244.53723 
L 265.220781 245.217094 
L 265.56929 244.990472 
L 266.266307 244.083988 
L 266.614815 244.310609 
L 266.963324 244.310609 
L 267.311832 245.217094 
L 267.660341 243.177504 
L 268.008849 243.404125 
L 268.357358 244.53723 
L 268.705866 244.53723 
L 269.402884 243.404125 
L 269.751392 244.083988 
L 270.448409 244.083988 
L 270.796918 243.857367 
L 271.145426 242.950883 
L 271.493935 243.630746 
L 271.842443 242.724262 
L 272.190952 243.177504 
L 272.53946 242.950883 
L 272.887969 243.404125 
L 273.236477 242.27102 
L 273.584986 242.724262 
L 273.933494 242.497641 
L 274.282003 242.044399 
L 274.630511 242.724262 
L 274.97902 243.857367 
L 275.327528 241.137915 
L 276.024545 242.27102 
L 276.373054 241.364536 
L 276.721563 242.497641 
L 277.070071 242.724262 
L 277.41858 241.817778 
L 277.767088 242.27102 
L 278.115597 241.364536 
L 278.464105 241.817778 
L 278.812614 241.817778 
L 279.161122 242.044399 
L 279.509631 241.817778 
L 279.858139 242.724262 
L 280.206648 241.591157 
L 280.555156 241.137915 
L 280.903665 240.458051 
L 281.252173 240.684673 
L 281.600682 240.684673 
L 281.94919 240.911294 
L 282.297699 240.911294 
L 282.646207 241.137915 
L 282.994716 239.778188 
L 283.343224 241.591157 
L 283.691733 240.458051 
L 284.040241 240.684673 
L 284.38875 240.458051 
L 284.737259 240.458051 
L 285.434276 239.324946 
L 285.782784 240.458051 
L 286.131293 241.137915 
L 286.82831 240.23143 
L 287.176818 239.551567 
L 287.525327 239.324946 
L 287.873835 240.004809 
L 288.222344 240.004809 
L 288.570852 239.098325 
L 288.919361 239.098325 
L 289.267869 240.004809 
L 289.616378 239.778188 
L 289.964886 239.324946 
L 290.313395 239.324946 
L 290.661903 240.23143 
L 291.010412 238.645083 
L 291.35892 239.098325 
L 291.707429 238.191841 
L 292.055938 239.098325 
L 292.404446 237.96522 
L 292.752955 237.511978 
L 293.101463 238.645083 
L 293.449972 238.191841 
L 294.495497 238.871704 
L 294.844006 237.738599 
L 295.889531 237.058736 
L 296.23804 238.191841 
L 296.586548 237.738599 
L 296.935057 238.191841 
L 297.283565 238.191841 
L 297.632074 238.418462 
L 297.980582 237.285357 
L 298.677599 237.738599 
L 299.026108 237.738599 
L 299.374616 236.152252 
L 299.723125 236.152252 
L 300.071634 237.511978 
L 300.420142 236.605494 
L 300.768651 236.605494 
L 301.465668 238.191841 
L 301.814176 236.152252 
L 302.162685 236.378873 
L 302.511193 236.378873 
L 302.859702 235.019146 
L 303.20821 235.472388 
L 303.556719 236.152252 
L 303.905227 236.378873 
L 304.253736 235.92563 
L 304.602244 235.92563 
L 304.950753 235.699009 
L 305.299261 237.058736 
L 305.64777 237.285357 
L 306.344787 234.792525 
L 307.041804 235.245767 
L 307.390312 237.058736 
L 307.738821 235.472388 
L 308.08733 236.378873 
L 308.435838 233.886041 
L 308.784347 235.019146 
L 309.132855 234.792525 
L 309.481364 235.699009 
L 310.178381 233.65942 
L 310.526889 234.339283 
L 310.875398 234.565904 
L 311.223906 235.245767 
L 311.572415 235.019146 
L 311.920923 233.65942 
L 312.269432 235.019146 
L 312.61794 235.472388 
L 312.966449 234.339283 
L 314.011974 233.65942 
L 314.360483 233.886041 
L 314.708991 232.979557 
L 315.0575 234.339283 
L 315.406009 233.206178 
L 315.754517 235.019146 
L 316.103026 233.886041 
L 316.451534 233.206178 
L 316.800043 234.112662 
L 317.49706 232.752936 
L 317.845568 233.886041 
L 318.194077 234.112662 
L 318.542585 233.432799 
L 318.891094 231.619831 
L 319.239602 233.206178 
L 319.588111 232.979557 
L 319.936619 233.432799 
L 320.285128 233.65942 
L 320.633636 232.979557 
L 320.982145 231.39321 
L 321.330653 232.073073 
L 321.679162 231.846452 
L 322.02767 232.073073 
L 322.376179 232.752936 
L 322.724687 230.939967 
L 323.073196 232.299694 
L 323.421705 230.260104 
L 323.770213 232.073073 
L 324.118722 232.526315 
L 324.815739 231.39321 
L 325.164247 231.619831 
L 325.512756 231.39321 
L 325.861264 230.486725 
L 326.209773 231.846452 
L 326.558281 232.073073 
L 326.90679 231.619831 
L 327.603807 230.260104 
L 328.300824 231.846452 
L 328.997841 230.033483 
L 329.346349 229.806862 
L 329.694858 230.939967 
L 330.043366 231.166588 
L 330.391875 230.033483 
L 330.740384 229.806862 
L 331.088892 230.033483 
L 331.437401 231.166588 
L 331.785909 231.166588 
L 332.134418 229.806862 
L 332.831435 229.806862 
L 333.179943 230.260104 
L 333.528452 228.447136 
L 334.225469 230.260104 
L 334.922486 229.806862 
L 335.270994 228.900378 
L 335.619503 228.673757 
L 335.968011 229.35362 
L 336.31652 228.673757 
L 336.665028 229.126999 
L 337.362045 228.220515 
L 337.710554 228.447136 
L 338.059062 229.126999 
L 338.407571 228.220515 
L 338.75608 229.126999 
L 339.104588 227.767273 
L 339.453097 228.673757 
L 339.801605 228.673757 
L 340.150114 229.580241 
L 340.498622 228.220515 
L 340.847131 227.767273 
L 341.195639 229.126999 
L 341.544148 227.993894 
L 341.892656 227.540652 
L 342.241165 228.220515 
L 342.589673 228.447136 
L 342.938182 227.767273 
L 343.28669 227.540652 
L 343.635199 225.501062 
L 343.983707 227.540652 
L 344.332216 227.540652 
L 345.029233 227.993894 
L 345.377741 227.540652 
L 345.72625 226.180925 
L 346.423267 226.180925 
L 347.120284 228.220515 
L 347.468793 225.954304 
L 347.817301 225.501062 
L 348.16581 226.634167 
L 348.514318 226.634167 
L 348.862827 226.180925 
L 349.211335 226.634167 
L 349.559844 225.954304 
L 349.908352 226.407546 
L 350.256861 227.08741 
L 350.605369 225.04782 
L 350.953878 226.407546 
L 351.650895 227.540652 
L 351.999403 225.501062 
L 352.347912 227.314031 
L 352.69642 226.180925 
L 353.044929 224.594578 
L 353.393438 225.04782 
L 353.741946 225.954304 
L 354.090455 225.04782 
L 354.438963 225.501062 
L 354.787472 225.274441 
L 355.484489 225.727683 
L 355.832997 224.821199 
L 356.530014 225.727683 
L 356.878523 224.594578 
L 357.227031 224.821199 
L 357.57554 223.914715 
L 357.924048 223.688094 
L 358.272557 224.141336 
L 358.621065 225.501062 
L 358.969574 223.914715 
L 359.318082 223.914715 
L 359.666591 224.141336 
L 360.015099 223.688094 
L 360.363608 225.501062 
L 360.712116 223.914715 
L 361.060625 224.367957 
L 361.409134 223.688094 
L 362.454659 225.04782 
L 363.151676 225.04782 
L 363.500185 223.234852 
L 363.848693 224.367957 
L 364.197202 222.554989 
L 364.54571 223.688094 
L 364.894219 222.78161 
L 365.242727 222.78161 
L 365.591236 223.234852 
L 365.939744 221.648504 
L 366.288253 224.141336 
L 366.636761 222.78161 
L 366.98527 223.234852 
L 367.333778 223.461473 
L 367.682287 221.875125 
L 368.030795 222.101746 
L 368.379304 221.875125 
L 368.727813 222.101746 
L 369.076321 223.008231 
L 369.42483 222.554989 
L 369.773338 222.328368 
L 370.121847 223.008231 
L 370.818864 220.968641 
L 371.167372 220.968641 
L 371.515881 222.78161 
L 371.864389 222.554989 
L 372.212898 221.195262 
L 372.561406 222.328368 
L 373.258423 220.288778 
L 373.606932 221.648504 
L 373.95544 220.515399 
L 374.303949 222.554989 
L 375.000966 220.515399 
L 375.349474 220.062157 
L 375.697983 221.421883 
L 376.046491 220.288778 
L 376.395 220.74202 
L 376.743509 221.421883 
L 377.440526 219.835536 
L 377.789034 220.288778 
L 378.137543 219.608915 
L 378.486051 219.835536 
L 378.83456 219.835536 
L 379.183068 220.515399 
L 379.531577 219.835536 
L 380.228594 220.968641 
L 380.577102 218.929052 
L 380.925611 220.74202 
L 381.274119 218.702431 
L 381.622628 218.702431 
L 381.971136 219.382294 
L 382.319645 218.47581 
L 382.668153 220.062157 
L 383.016662 218.022568 
L 383.36517 221.648504 
L 383.713679 219.155673 
L 384.062188 218.47581 
L 384.410696 218.929052 
L 384.759205 219.155673 
L 385.107713 217.795947 
L 385.456222 218.47581 
L 385.80473 218.702431 
L 386.153239 219.155673 
L 386.501747 217.342704 
L 387.198764 218.47581 
L 387.547273 218.47581 
L 387.895781 218.249189 
L 388.24429 217.795947 
L 388.592798 218.022568 
L 388.941307 218.47581 
L 389.289815 217.116083 
L 389.638324 218.022568 
L 389.986832 218.249189 
L 390.335341 217.116083 
L 390.683849 216.889462 
L 391.032358 217.795947 
L 391.380866 216.209599 
L 391.729375 217.569326 
L 392.077884 215.756357 
L 392.426392 215.982978 
L 392.774901 217.342704 
L 393.471918 216.209599 
L 393.820426 217.116083 
L 394.168935 217.116083 
L 394.517443 215.529736 
L 394.865952 217.569326 
L 395.21446 215.982978 
L 395.562969 215.756357 
L 395.911477 217.569326 
L 396.259986 216.43622 
L 396.608494 216.43622 
L 396.957003 214.849873 
L 397.305511 216.662841 
L 397.65402 214.17001 
L 398.002528 215.529736 
L 398.351037 215.303115 
L 398.699545 214.849873 
L 399.048054 215.529736 
L 399.396562 215.756357 
L 399.745071 215.756357 
L 400.09358 216.43622 
L 400.442088 213.943389 
L 400.790597 216.43622 
L 401.139105 215.076494 
L 401.487614 215.756357 
L 401.836122 215.303115 
L 402.184631 215.982978 
L 402.533139 214.623252 
L 402.881648 215.529736 
L 403.230156 215.982978 
L 403.927173 215.529736 
L 404.275682 214.849873 
L 404.62419 215.303115 
L 404.972699 215.982978 
L 405.321207 215.303115 
L 405.669716 213.943389 
L 406.018224 215.076494 
L 406.366733 214.623252 
L 406.715241 215.529736 
L 407.06375 213.943389 
L 407.412259 213.943389 
L 407.760767 213.490147 
L 408.109276 215.529736 
L 408.457784 213.263526 
L 408.806293 213.490147 
L 409.154801 213.943389 
L 409.50331 214.849873 
L 410.200327 213.036905 
L 410.548835 211.223936 
L 410.897344 212.13042 
L 411.245852 213.943389 
L 411.594361 214.17001 
L 411.942869 213.716768 
L 412.639886 212.13042 
L 412.988395 213.716768 
L 413.336903 211.677178 
L 413.685412 212.810283 
L 414.03392 212.810283 
L 414.382429 214.396631 
L 414.730937 212.583662 
L 415.079446 212.357041 
L 415.427955 213.263526 
L 415.776463 212.13042 
L 416.124972 213.490147 
L 416.47348 211.677178 
L 417.170497 213.036905 
L 417.519006 210.997315 
L 417.867514 211.677178 
L 418.216023 211.677178 
L 418.564531 212.357041 
L 418.91304 211.677178 
L 419.261548 211.903799 
L 419.610057 211.450557 
L 419.958565 210.544073 
L 420.307074 211.903799 
L 420.655582 211.223936 
L 421.004091 210.997315 
L 421.352599 208.957726 
L 421.701108 209.86421 
L 422.049616 210.317452 
L 422.398125 210.544073 
L 422.746634 210.090831 
L 423.095142 210.317452 
L 423.792159 209.184347 
L 424.140668 210.317452 
L 424.489176 208.731105 
L 425.186193 211.450557 
L 425.534702 208.957726 
L 425.88321 209.86421 
L 426.231719 210.090831 
L 426.580227 209.86421 
L 426.928736 210.317452 
L 427.277244 209.86421 
L 427.625753 210.317452 
L 427.974261 210.544073 
L 428.32277 209.86421 
L 428.671278 210.770694 
L 429.019787 210.770694 
L 429.368295 207.597999 
L 429.716804 209.184347 
L 430.065313 208.731105 
L 430.413821 209.410968 
L 430.76233 208.051241 
L 431.110838 207.597999 
L 431.459347 207.597999 
L 432.156364 209.410968 
L 432.156364 209.410968 
" clip-path="url(#pd27588378f)" style="fill: none; stroke: #9467bd; stroke-width: 1.5; stroke-linecap: square"/>
   </g>
   <g id="patch_3">
    <path d="M 57.44 303.64 
L 57.44 25.44 
" style="fill: none; stroke: #000000; stroke-width: 0.8; stroke-linejoin: miter; stroke-linecap: square"/>
   </g>
   <g id="patch_4">
    <path d="M 450 303.64 
L 450 25.44 
" style="fill: none; stroke: #000000; stroke-width: 0.8; stroke-linejoin: miter; stroke-linecap: square"/>
   </g>
   <g id="patch_5">
    <path d="M 57.44 303.64 
L 450 303.64 
" style="fill: none; stroke: #000000; stroke-width: 0.8; stroke-linejoin: miter; stroke-linecap: square"/>
   </g>
   <g id="patch_6">
    <path d="M 57.44 25.44 
L 450 25.44 
" style="fill: none; stroke: #000000; stroke-width: 0.8; stroke-linejoin: miter; stroke-linecap: square"/>
   </g>
   <g id="text_15">
    <!-- Memory Usage by Object Type -->
    <g transform="translate(162.31375 19.44) scale(0.12 -0.12)">
     <defs>
      <path id="DejaVuSans-4d" d="M 628 4666 
L 1569 4666 
L 2759 1491 
L 3956 4666 
L 4897 4666 
L 4897 0 
L 4281 0 
L 4281 4097 
L 3078 897 
L 2444 897 
L 1241 4097 
L 1241 0 
L 628 0 
L 628 4666 
z
" transform="scale(0.015625)"/>
      <path id="DejaVuSans-6d" d="M 3328 2828 
Q 3544 3216 3844 3400 
Q 4144 3584 4550 3584 
Q 5097 3584 5394 3201 
Q 5691 2819 5691 2113 
L 5691 0 
L 5113 0 
L 5113 2094 
Q 5113 2597 4934 2840 
Q 4756 3084 4391 3084 
Q 3944 3084 3684 2787 
Q 3425 2491 3425 1978 
L 3425 0 
L 2847 0 
L 2847 2094 
Q 2847 2600 2669 2842 
Q 2491 3084 2119 3084 
Q 1678 3084 1418 2786 
Q 1159 2488 1159 1978 
L 1159 0 
L 581 0 
L 581 3500 
L 1159 3500 
L 1159 2956 
Q 1356 3278 1631 3431 
Q 1906 3584 2284 3584 
Q 2666 3584 2933 3390 
Q 3200 3197 3328 2828 
z
" transform="scale(0.015625)"/>
      <path id="DejaVuSans-6f" d="M 1959 3097 
Q 1497 3097 1228 2736 
Q 959 2375 959 1747 
Q 959 1119 1226 758 
Q 1494 397 1959 397 
Q 2419 397 2687 759 
Q 2956 1122 2956 1747 
Q 2956 2369 2687 2733 
Q 2419 3097 1959 3097 
z
M 1959 3584 
Q 2709 3584 3137 3096 
Q 3566 2609 3566 1747 
Q 3566 888 3137 398 
Q 2709 -91 1959 -91 
Q 1206 -91 779 398 
Q 353 888 353 1747 
Q 353 2609 779 3096 
Q 1206 3584 1959 3584 
z
" transform="scale(0.015625)"/>
      <path id="DejaVuSans-72" d="M 2631 2963 
Q 2534 3019 2420 3045 
Q 2306 3072 2169 3072 
Q 1681 3072 1420 2755 
Q 1159 2438 1159 1844 
L 1159 0 
L 581 0 
L 581 3500 
L 1159 3500 
L 1159 2956 
Q 1341 3275 1631 3429 
Q 1922 3584 2338 3584 
Q 2397 3584 2469 3576 
Q 2541 3569 2628 3553 
L 2631 2963 
z
" transform="scale(0.015625)"/>
      <path id="DejaVuSans-55" d="M 556 4666 
L 1191 4666 
L 1191 1831 
Q 1191 1081 1462 751 
Q 1734 422 2344 422 
Q 2950 422 3222 751 
Q 3494 1081 3494 1831 
L 3494 4666 
L 4128 4666 
L 4128 1753 
Q 4128 841 3676 375 
Q 3225 -91 2344 -91 
Q 1459 -91 1007 375 
Q 556 841 556 1753 
L 556 4666 
z
" transform="scale(0.015625)"/>
      <path id="DejaVuSans-61" d="M 2194 1759 
Q 1497 1759 1228 1600 
Q 959 1441 959 1056 
Q 959 750 1161 570 
Q 1363 391 1709 391 
Q 2188 391 2477 730 
Q 2766 1069 2766 1631 
L 2766 1759 
L 2194 1759 
z
M 3341 1997 
L 3341 0 
L 2766 0 
L 2766 531 
Q 2569 213 2275 61 
Q 1981 -91 1556 -91 
Q 1019 -91 701 211 
Q 384 513 384 1019 
Q 384 1609 779 1909 
Q 1175 2209 1959 2209 
L 2766 2209 
L 2766 2266 
Q 2766 2663 2505 2880 
Q 2244 3097 1772 3097 
Q 1472 3097 1187 3025 
Q 903 2953 641 2809 
L 641 3341 
Q 956 3463 1253 3523 
Q 1550 3584 1831 3584 
Q 2591 3584 2966 3190 
Q 3341 2797 3341 1997 
z
" transform="scale(0.015625)"/>
      <path id="DejaVuSans-54" d="M -19 4666 
L 3928 4666 
L 3928 4134 
L 2272 4134 
L 2272 0 
L 1638 0 
L 1638 4134 
L -19 4134 
L -19 4666 
z
" transform="scale(0.015625)"/>
      <path id="DejaVuSans-70" d="M 1159 525 
L 1159 -1331 
L 581 -1331 
L 581 3500 
L 1159 3500 
L 1159 2969 
Q 1341 3281 1617 3432 
Q 1894 3584 2278 3584 
Q 2916 3584 3314 3078 
Q 3713 2572 3713 1747 
Q 3713 922 3314 415 
Q 2916 -91 2278 -91 
Q 1894 -91 1617 61 
Q 1341 213 1159 525 
z
M 3116 1747 
Q 3116 2381 2855 2742 
Q 2594 3103 2138 3103 
Q 1681 3103 1420 2742 
Q 1159 2381 1159 1747 
Q 1159 1113 1420 752 
Q 1681 391 2138 391 
Q 2594 391 2855 752 
Q 3116 1113 3116 1747 
z
" transform="scale(0.015625)"/>
     </defs>
     <use xlink:href="#DejaVuSans-4d"/>
     <use xlink:href="#DejaVuSans-65" x="86.279297"/>
     <use xlink:href="#DejaVuSans-6d" x="147.802734"/>
     <use xlink:href="#DejaVuSans-6f" x="245.214844"/>
     <use xlink:href="#DejaVuSans-72" x="306.396484"/>
     <use xlink:href="#DejaVuSans-79" x="347.509766"/>
     <use xlink:href="#DejaVuSans-20" x="406.689453"/>
     <use xlink:href="#DejaVuSans-55" x="438.476562"/>
     <use xlink:href="#DejaVuSans-73" x="511.669922"/>
     <use xlink:href="#DejaVuSans-61" x="563.769531"/>
     <use xlink:href="#DejaVuSans-67" x="625.048828"/>
     <use xlink:href="#DejaVuSans-65" x="688.525391"/>
     <use xlink:href="#DejaVuSans-20" x="750.048828"/>
     <use xlink:href="#DejaVuSans-62" x="781.835938"/>
     <use xlink:href="#DejaVuSans-79" x="845.3125"/>
     <use xlink:href="#DejaVuSans-20" x="904.492188"/>
     <use xlink:href="#DejaVuSans-4f" x="936.279297"/>
     <use xlink:href="#DejaVuSans-62" x="1014.990234"/>
     <use xlink:href="#DejaVuSans-6a" x="1078.466797"/>
     <use xlink:href="#DejaVuSans-65" x="1106.25"/>
     <use xlink:href="#DejaVuSans-63" x="1167.773438"/>
     <use xlink:href="#DejaVuSans-74" x="1222.753906"/>
     <use xlink:href="#DejaVuSans-20" x="1261.962891"/>
     <use xlink:href="#DejaVuSans-54" x="1293.75"/>
     <use xlink:href="#DejaVuSans-79" x="1339.208984"/>
     <use xlink:href="#DejaVuSans-70" x="1398.388672"/>
     <use xlink:href="#DejaVuSans-65" x="1461.865234"/>
    </g>
   </g>
   <g id="legend_1">
    <g id="patch_7">
     <path d="M 64.44 106.830625 
L 149.804062 106.830625 
Q 151.804062 106.830625 151.804062 104.830625 
L 151.804062 32.44 
Q 151.804062 30.44 149.804062 30.44 
L 64.44 30.44 
Q 62.44 30.44 62.44 32.44 
L 62.44 104.830625 
Q 62.44 106.830625 64.44 106.830625 
z
" style="fill: #ffffff; opacity: 0.8; stroke: #cccccc; stroke-linejoin: miter"/>
    </g>
    <g id="line2d_18">
     <path d="M 66.44 38.538437 
L 76.44 38.538437 
L 86.44 38.538437 
" style="fill: none; stroke: #1f77b4; stroke-width: 1.5; stroke-linecap: square"/>
    </g>
    <g id="text_16">
     <!-- ShortSeq -->
     <g transform="translate(94.44 42.038437) scale(0.1 -0.1)">
      <use xlink:href="#DejaVuSans-53"/>
      <use xlink:href="#DejaVuSans-68" x="63.476562"/>
      <use xlink:href="#DejaVuSans-6f" x="126.855469"/>
      <use xlink:href="#DejaVuSans-72" x="188.037109"/>
      <use xlink:href="#DejaVuSans-74" x="229.150391"/>
      <use xlink:href="#DejaVuSans-53" x="268.359375"/>
      <use xlink:href="#DejaVuSans-65" x="331.835938"/>
      <use xlink:href="#DejaVuSans-71" x="393.359375"/>
     </g>
    </g>
    <g id="line2d_19">
     <path d="M 66.44 53.216562 
L 76.44 53.216562 
L 86.44 53.216562 
" style="fill: none; stroke: #ff7f0e; stroke-width: 1.5; stroke-linecap: square"/>
    </g>
    <g id="text_17">
     <!-- NumPy -->
     <g transform="translate(94.44 56.716562) scale(0.1 -0.1)">
      <defs>
       <path id="DejaVuSans-4e" d="M 628 4666 
L 1478 4666 
L 3547 763 
L 3547 4666 
L 4159 4666 
L 4159 0 
L 3309 0 
L 1241 3903 
L 1241 0 
L 628 0 
L 628 4666 
z
" transform="scale(0.015625)"/>
       <path id="DejaVuSans-50" d="M 1259 4147 
L 1259 2394 
L 2053 2394 
Q 2494 2394 2734 2622 
Q 2975 2850 2975 3272 
Q 2975 3691 2734 3919 
Q 2494 4147 2053 4147 
L 1259 4147 
z
M 628 4666 
L 2053 4666 
Q 2838 4666 3239 4311 
Q 3641 3956 3641 3272 
Q 3641 2581 3239 2228 
Q 2838 1875 2053 1875 
L 1259 1875 
L 1259 0 
L 628 0 
L 628 4666 
z
" transform="scale(0.015625)"/>
      </defs>
      <use xlink:href="#DejaVuSans-4e"/>
      <use xlink:href="#DejaVuSans-75" x="74.804688"/>
      <use xlink:href="#DejaVuSans-6d" x="138.183594"/>
      <use xlink:href="#DejaVuSans-50" x="235.595703"/>
      <use xlink:href="#DejaVuSans-79" x="295.898438"/>
     </g>
    </g>
    <g id="line2d_20">
     <path d="M 66.44 67.894687 
L 76.44 67.894687 
L 86.44 67.894687 
" style="fill: none; stroke: #2ca02c; stroke-width: 1.5; stroke-linecap: square"/>
    </g>
    <g id="text_18">
     <!-- PyUnicode -->
     <g transform="translate(94.44 71.394687) scale(0.1 -0.1)">
      <defs>
       <path id="DejaVuSans-64" d="M 2906 2969 
L 2906 4863 
L 3481 4863 
L 3481 0 
L 2906 0 
L 2906 525 
Q 2725 213 2448 61 
Q 2172 -91 1784 -91 
Q 1150 -91 751 415 
Q 353 922 353 1747 
Q 353 2572 751 3078 
Q 1150 3584 1784 3584 
Q 2172 3584 2448 3432 
Q 2725 3281 2906 2969 
z
M 947 1747 
Q 947 1113 1208 752 
Q 1469 391 1925 391 
Q 2381 391 2643 752 
Q 2906 1113 2906 1747 
Q 2906 2381 2643 2742 
Q 2381 3103 1925 3103 
Q 1469 3103 1208 2742 
Q 947 2381 947 1747 
z
" transform="scale(0.015625)"/>
      </defs>
      <use xlink:href="#DejaVuSans-50"/>
      <use xlink:href="#DejaVuSans-79" x="60.302734"/>
      <use xlink:href="#DejaVuSans-55" x="119.482422"/>
      <use xlink:href="#DejaVuSans-6e" x="192.675781"/>
      <use xlink:href="#DejaVuSans-69" x="256.054688"/>
      <use xlink:href="#DejaVuSans-63" x="283.837891"/>
      <use xlink:href="#DejaVuSans-6f" x="338.818359"/>
      <use xlink:href="#DejaVuSans-64" x="400"/>
      <use xlink:href="#DejaVuSans-65" x="463.476562"/>
     </g>
    </g>
    <g id="line2d_21">
     <path d="M 66.44 82.572812 
L 76.44 82.572812 
L 86.44 82.572812 
" style="fill: none; stroke: #d62728; stroke-width: 1.5; stroke-linecap: square"/>
    </g>
    <g id="text_19">
     <!-- PyBytes -->
     <g transform="translate(94.44 86.072812) scale(0.1 -0.1)">
      <defs>
       <path id="DejaVuSans-42" d="M 1259 2228 
L 1259 519 
L 2272 519 
Q 2781 519 3026 730 
Q 3272 941 3272 1375 
Q 3272 1813 3026 2020 
Q 2781 2228 2272 2228 
L 1259 2228 
z
M 1259 4147 
L 1259 2741 
L 2194 2741 
Q 2656 2741 2882 2914 
Q 3109 3088 3109 3444 
Q 3109 3797 2882 3972 
Q 2656 4147 2194 4147 
L 1259 4147 
z
M 628 4666 
L 2241 4666 
Q 2963 4666 3353 4366 
Q 3744 4066 3744 3513 
Q 3744 3084 3544 2831 
Q 3344 2578 2956 2516 
Q 3422 2416 3680 2098 
Q 3938 1781 3938 1306 
Q 3938 681 3513 340 
Q 3088 0 2303 0 
L 628 0 
L 628 4666 
z
" transform="scale(0.015625)"/>
      </defs>
      <use xlink:href="#DejaVuSans-50"/>
      <use xlink:href="#DejaVuSans-79" x="60.302734"/>
      <use xlink:href="#DejaVuSans-42" x="119.482422"/>
      <use xlink:href="#DejaVuSans-79" x="188.085938"/>
      <use xlink:href="#DejaVuSans-74" x="247.265625"/>
      <use xlink:href="#DejaVuSans-65" x="286.474609"/>
      <use xlink:href="#DejaVuSans-73" x="347.998047"/>
     </g>
    </g>
    <g id="line2d_22">
     <path d="M 66.44 97.250937 
L 76.44 97.250937 
L 86.44 97.250937 
" style="fill: none; stroke: #9467bd; stroke-width: 1.5; stroke-linecap: square"/>
    </g>
    <g id="text_20">
     <!-- Gzip Bytes -->
     <g transform="translate(94.44 100.750937) scale(0.1 -0.1)">
      <defs>
       <path id="DejaVuSans-47" d="M 3809 666 
L 3809 1919 
L 2778 1919 
L 2778 2438 
L 4434 2438 
L 4434 434 
Q 4069 175 3628 42 
Q 3188 -91 2688 -91 
Q 1594 -91 976 548 
Q 359 1188 359 2328 
Q 359 3472 976 4111 
Q 1594 4750 2688 4750 
Q 3144 4750 3555 4637 
Q 3966 4525 4313 4306 
L 4313 3634 
Q 3963 3931 3569 4081 
Q 3175 4231 2741 4231 
Q 1884 4231 1454 3753 
Q 1025 3275 1025 2328 
Q 1025 1384 1454 906 
Q 1884 428 2741 428 
Q 3075 428 3337 486 
Q 3600 544 3809 666 
z
" transform="scale(0.015625)"/>
      </defs>
      <use xlink:href="#DejaVuSans-47"/>
      <use xlink:href="#DejaVuSans-7a" x="77.490234"/>
      <use xlink:href="#DejaVuSans-69" x="129.980469"/>
      <use xlink:href="#DejaVuSans-70" x="157.763672"/>
      <use xlink:href="#DejaVuSans-20" x="221.240234"/>
      <use xlink:href="#DejaVuSans-42" x="253.027344"/>
      <use xlink:href="#DejaVuSans-79" x="321.630859"/>
      <use xlink:href="#DejaVuSans-74" x="380.810547"/>
      <use xlink:href="#DejaVuSans-65" x="420.019531"/>
      <use xlink:href="#DejaVuSans-73" x="481.542969"/>
     </g>
    </g>
   </g>
  </g>
 </g>
 <defs>
  <clipPath id="pd27588378f">
   <rect x="57.44" y="25.44" width="392.56" height="278.2"/>
  </clipPath>
 </defs>
</svg>
